<svg width="1920" height="1104" viewBox="0 0 1920 1104" fill="none" xmlns="http://www.w3.org/2000/svg">
<mask id="mask0" mask-type="alpha" maskUnits="userSpaceOnUse" x="0" y="0" width="1920" height="1104">
<path d="M1920 1045.32C1626.86 999.304 1240.7 1108.83 941 1103.4C631.149 1097.78 333.623 1014.1 0 1067.36V0H1920V1045.32Z" fill="#F9F9F9"/>
</mask>
<g mask="url(#mask0)">
<rect width="1920" height="1234" fill="url(#paint0_linear)"/>
<ellipse opacity="0.25" cx="961" cy="639" rx="797" ry="417" fill="url(#paint1_radial)"/>
<g opacity="0.1">
<path d="M706.061 655.119C706.061 657.855 703.958 659.959 701.224 659.959C698.491 659.959 696.388 657.855 696.388 655.119C696.388 652.384 698.491 650.279 701.224 650.279C703.958 650.279 706.061 652.384 706.061 655.119Z" fill="#B1DDF6"/>
<path d="M728.14 609.668C728.14 611.14 726.878 612.403 725.407 612.403C723.935 612.403 722.673 611.14 722.673 609.668C722.673 608.195 723.935 606.932 725.407 606.932C726.878 606.722 728.14 607.984 728.14 609.668Z" fill="#B1DDF6"/>
<path d="M685.453 623.556C687.195 623.556 688.607 622.142 688.607 620.399C688.607 618.656 687.195 617.243 685.453 617.243C683.711 617.243 682.299 618.656 682.299 620.399C682.299 622.142 683.711 623.556 685.453 623.556Z" fill="#B1DDF6"/>
<path d="M664.635 455.847C664.635 458.793 662.322 461.318 659.168 461.318C656.224 461.318 653.701 459.004 653.701 455.847C653.701 452.901 656.014 450.376 659.168 450.376C662.322 450.376 664.635 452.901 664.635 455.847Z" fill="#B1DDF6"/>
<path d="M680.827 447.641C680.827 449.114 679.565 450.376 678.094 450.376C676.622 450.376 675.36 449.114 675.36 447.641C675.36 446.168 676.622 444.905 678.094 444.905C679.565 444.695 680.827 445.957 680.827 447.641Z" fill="#B1DDF6"/>
<path d="M664.636 422.179C664.636 423.652 663.374 424.915 661.902 424.915C660.43 424.915 659.168 423.652 659.168 422.179C659.168 420.706 660.43 419.444 661.902 419.444C663.374 419.444 664.636 420.706 664.636 422.179Z" fill="#B1DDF6"/>
<path d="M797.112 298.45C797.112 301.185 795.009 303.289 792.276 303.289C789.542 303.289 787.439 301.185 787.439 298.45C787.439 295.714 789.542 293.61 792.276 293.61C795.009 293.61 797.112 295.925 797.112 298.45Z" fill="#B1DDF6"/>
<path d="M760.103 291.716C761.38 291.716 762.416 290.68 762.416 289.401C762.416 288.123 761.38 287.087 760.103 287.087C758.825 287.087 757.79 288.123 757.79 289.401C757.79 290.68 758.825 291.716 760.103 291.716Z" fill="#B1DDF6"/>
<path d="M563.701 398.822C563.701 402.399 560.757 405.556 556.972 405.556C553.187 405.556 550.243 402.61 550.243 398.822C550.243 395.035 553.187 392.089 556.972 392.089C560.757 392.089 563.701 395.035 563.701 398.822Z" fill="#B1DDF6"/>
<path d="M540.57 381.567C541.731 381.567 542.673 380.625 542.673 379.463C542.673 378.301 541.731 377.359 540.57 377.359C539.409 377.359 538.467 378.301 538.467 379.463C538.467 380.625 539.409 381.567 540.57 381.567Z" fill="#B1DDF6"/>
<path d="M574.215 334.643C574.215 336.326 572.953 337.589 571.271 337.589C569.589 337.589 568.327 336.326 568.327 334.643C568.327 332.959 569.589 331.697 571.271 331.697C572.953 331.907 574.215 333.17 574.215 334.643Z" fill="#B1DDF6"/>
<path d="M381.388 320.334C383.362 320.334 384.963 318.732 384.963 316.757C384.963 314.781 383.362 313.179 381.388 313.179C379.414 313.179 377.813 314.781 377.813 316.757C377.813 318.732 379.414 320.334 381.388 320.334Z" fill="#B1DDF6"/>
<path d="M400.103 329.382C400.103 330.645 399.051 331.697 397.79 331.697C396.528 331.697 395.477 330.645 395.477 329.382C395.477 328.12 396.528 327.067 397.79 327.067C398.841 327.067 400.103 328.12 400.103 329.382Z" fill="#B1DDF6"/>
<path d="M451.622 254.261C453.248 254.261 454.566 252.942 454.566 251.315C454.566 249.688 453.248 248.369 451.622 248.369C449.996 248.369 448.678 249.688 448.678 251.315C448.678 252.942 449.996 254.261 451.622 254.261Z" fill="#B1DDF6"/>
<path d="M319.565 145.681C319.565 148.838 317.042 151.363 313.888 151.363C310.523 151.573 308 148.838 308 145.681C308 142.525 310.523 140 313.678 140C316.832 140 319.565 142.525 319.565 145.681Z" fill="#B1DDF6"/>
<path d="M337.229 151.784C337.229 154.098 335.336 155.992 333.023 155.992C330.71 155.992 328.818 154.098 328.818 151.784C328.818 149.469 330.71 147.575 333.023 147.575C335.336 147.575 337.229 149.469 337.229 151.784Z" fill="#B1DDF6"/>
<path d="M326.505 169.249C326.505 170.301 325.664 171.353 324.402 171.353C323.35 171.353 322.299 170.512 322.299 169.249C322.299 168.197 323.14 167.145 324.402 167.145C325.664 167.355 326.505 168.197 326.505 169.249Z" fill="#B1DDF6"/>
<path d="M613.958 576.21C613.958 579.577 611.224 582.312 607.86 582.312C604.495 582.312 601.762 579.577 601.762 576.21C601.762 572.843 604.495 570.108 607.86 570.108C611.224 570.108 613.958 572.843 613.958 576.21Z" fill="#B1DDF6"/>
<path d="M622.58 594.307C623.393 594.307 624.052 593.647 624.052 592.834C624.052 592.02 623.393 591.361 622.58 591.361C621.767 591.361 621.108 592.02 621.108 592.834C621.108 593.647 621.767 594.307 622.58 594.307Z" fill="#B1DDF6"/>
<path d="M626.154 703.938C626.154 706.463 624.052 708.567 621.528 708.567C619.005 708.567 616.902 706.463 616.902 703.938C616.902 701.413 619.005 699.308 621.528 699.308C624.052 699.308 626.154 701.413 626.154 703.938Z" fill="#B1DDF6"/>
<path d="M621.318 729.399C621.318 731.503 619.635 733.187 617.533 733.187C615.43 733.187 613.748 731.503 613.748 729.399C613.748 727.295 615.43 725.611 617.533 725.611C619.635 725.611 621.318 727.505 621.318 729.399Z" fill="#B1DDF6"/>
<path d="M424.706 1042.09C428.77 1042.09 432.065 1038.79 432.065 1034.73C432.065 1030.66 428.77 1027.36 424.706 1027.36C420.641 1027.36 417.346 1030.66 417.346 1034.73C417.346 1038.79 420.641 1042.09 424.706 1042.09Z" fill="#B1DDF6"/>
<path d="M450.991 1062.5C450.991 1064.18 449.729 1065.45 448.047 1065.45C446.365 1065.45 445.103 1064.18 445.103 1062.5C445.103 1060.82 446.365 1059.56 448.047 1059.56C449.729 1059.56 450.991 1060.82 450.991 1062.5Z" fill="#B1DDF6"/>
<path d="M473.911 1072.18C475.77 1072.18 477.276 1070.67 477.276 1068.81C477.276 1066.95 475.77 1065.45 473.911 1065.45C472.053 1065.45 470.547 1066.95 470.547 1068.81C470.547 1070.67 472.053 1072.18 473.911 1072.18Z" fill="#B1DDF6"/>
<path d="M458.561 1112.16C461.464 1112.16 463.818 1109.81 463.818 1106.9C463.818 1104 461.464 1101.64 458.561 1101.64C455.657 1101.64 453.304 1104 453.304 1106.9C453.304 1109.81 455.657 1112.16 458.561 1112.16Z" fill="#B1DDF6"/>
<path d="M793.958 884.272C793.958 886.797 791.855 888.901 789.332 888.901C786.809 888.901 784.706 886.797 784.706 884.272C784.706 881.746 786.809 879.642 789.332 879.642C792.066 879.642 793.958 881.746 793.958 884.272Z" fill="#B1DDF6"/>
<path d="M767.463 863.229C767.463 864.492 766.411 865.754 764.939 865.754C763.677 865.754 762.416 864.702 762.416 863.229C762.416 861.967 763.467 860.704 764.939 860.704C766.411 860.704 767.463 861.756 767.463 863.229Z" fill="#B1DDF6"/>
<path d="M779.659 862.387C779.659 864.492 777.977 866.385 775.664 866.385C773.561 866.385 771.668 864.702 771.668 862.387C771.668 860.283 773.351 858.389 775.664 858.389C777.767 858.389 779.659 860.283 779.659 862.387Z" fill="#B1DDF6"/>
<path d="M936.318 694.679C936.318 697.625 933.795 700.15 930.851 700.15C927.907 700.15 925.383 697.625 925.383 694.679C925.383 691.733 927.907 689.208 930.851 689.208C933.795 689.208 936.318 691.523 936.318 694.679Z" fill="#B1DDF6"/>
<path d="M953.14 685.42C953.14 687.525 951.458 688.998 949.566 688.998C947.463 688.998 945.991 687.314 945.991 685.42C945.991 683.316 947.673 681.843 949.566 681.843C951.458 681.843 953.14 683.527 953.14 685.42Z" fill="#B1DDF6"/>
<path d="M935.687 675.11C935.687 676.372 934.635 677.635 933.163 677.635C931.902 677.635 930.64 676.583 930.64 675.11C930.64 673.847 931.692 672.584 933.163 672.584C934.635 672.795 935.687 673.847 935.687 675.11Z" fill="#B1DDF6"/>
<path d="M1197.49 606.722C1200.97 606.722 1203.79 603.895 1203.79 600.409C1203.79 596.922 1200.97 594.096 1197.49 594.096C1194 594.096 1191.18 596.922 1191.18 600.409C1191.18 603.895 1194 606.722 1197.49 606.722Z" fill="#B1DDF6"/>
<path d="M1179.82 594.517C1179.82 595.569 1178.98 596.2 1178.14 596.2C1177.09 596.2 1176.46 595.359 1176.46 594.517C1176.46 593.465 1177.3 592.834 1178.14 592.834C1179.19 592.834 1179.82 593.465 1179.82 594.517Z" fill="#B1DDF6"/>
<path d="M1194.33 582.523C1196.07 582.523 1197.49 581.11 1197.49 579.366C1197.49 577.623 1196.07 576.21 1194.33 576.21C1192.59 576.21 1191.18 577.623 1191.18 579.366C1191.18 581.11 1192.59 582.523 1194.33 582.523Z" fill="#B1DDF6"/>
<path d="M1206.11 565.689C1206.11 568.214 1204.21 570.108 1201.69 570.108C1199.17 570.108 1197.28 568.214 1197.28 565.689C1197.28 563.164 1199.17 561.27 1201.69 561.27C1204.21 561.48 1206.11 563.374 1206.11 565.689Z" fill="#B1DDF6"/>
<path d="M1300.52 618.716C1304.01 618.716 1306.83 615.89 1306.83 612.403C1306.83 608.917 1304.01 606.09 1300.52 606.09C1297.04 606.09 1294.21 608.917 1294.21 612.403C1294.21 615.89 1297.04 618.716 1300.52 618.716Z" fill="#B1DDF6"/>
<path d="M1235.97 771.273C1237.83 771.273 1239.33 769.766 1239.33 767.907C1239.33 766.047 1237.83 764.54 1235.97 764.54C1234.11 764.54 1232.6 766.047 1232.6 767.907C1232.6 769.766 1234.11 771.273 1235.97 771.273Z" fill="#B1DDF6"/>
<path d="M1168.47 784.53C1170.79 784.53 1172.67 782.646 1172.67 780.322C1172.67 777.997 1170.79 776.113 1168.47 776.113C1166.14 776.113 1164.26 777.997 1164.26 780.322C1164.26 782.646 1166.14 784.53 1168.47 784.53Z" fill="#B1DDF6"/>
<path d="M1172.67 758.648C1172.25 760.963 1170.15 762.646 1167.84 762.225C1165.52 761.805 1163.84 759.7 1164.26 757.386C1164.68 755.071 1166.78 753.388 1169.1 753.808C1171.41 754.229 1173.09 756.333 1172.67 758.648Z" fill="#B1DDF6"/>
<path d="M1184.87 776.745C1187.31 776.745 1189.28 774.766 1189.28 772.326C1189.28 769.885 1187.31 767.907 1184.87 767.907C1182.43 767.907 1180.45 769.885 1180.45 772.326C1180.45 774.766 1182.43 776.745 1184.87 776.745Z" fill="#B1DDF6"/>
<path d="M1109.8 825.984C1111.89 825.984 1113.58 824.288 1113.58 822.196C1113.58 820.104 1111.89 818.409 1109.8 818.409C1107.71 818.409 1106.01 820.104 1106.01 822.196C1106.01 824.288 1107.71 825.984 1109.8 825.984Z" fill="#B1DDF6"/>
<path d="M1116.74 790.843C1118.48 790.843 1119.89 789.43 1119.89 787.687C1119.89 785.943 1118.48 784.53 1116.74 784.53C1115 784.53 1113.58 785.943 1113.58 787.687C1113.58 789.43 1115 790.843 1116.74 790.843Z" fill="#B1DDF6"/>
<path d="M1094.87 891.005C1094.87 892.899 1093.4 894.582 1091.29 894.582C1089.19 894.582 1087.72 893.109 1087.72 891.005C1087.72 889.111 1089.19 887.428 1091.29 887.428C1093.4 887.428 1094.87 889.111 1094.87 891.005Z" fill="#B1DDF6"/>
<path d="M1328.07 444.695C1329.81 444.695 1331.22 443.282 1331.22 441.538C1331.22 439.795 1329.81 438.382 1328.07 438.382C1326.33 438.382 1324.92 439.795 1324.92 441.538C1324.92 443.282 1326.33 444.695 1328.07 444.695Z" fill="#B1DDF6"/>
<path d="M1300.52 436.699C1300.52 437.961 1299.47 439.224 1298 439.224C1296.74 439.224 1295.48 438.172 1295.48 436.699C1295.48 435.436 1296.53 434.173 1298 434.173C1299.26 434.173 1300.52 435.436 1300.52 436.699Z" fill="#B1DDF6"/>
<path d="M1320.29 455.847C1320.29 458.793 1317.98 461.318 1314.82 461.318C1311.88 461.318 1309.35 459.004 1309.35 455.847C1309.35 452.901 1311.67 450.376 1314.82 450.376C1317.98 450.376 1320.29 452.901 1320.29 455.847Z" fill="#B1DDF6"/>
<path d="M1357.72 322.228C1357.72 325.384 1354.99 328.12 1351.83 328.12C1348.68 328.12 1345.94 325.384 1345.94 322.228C1345.94 319.071 1348.68 316.336 1351.83 316.336C1355.2 316.336 1357.72 319.071 1357.72 322.228Z" fill="#B1DDF6"/>
<path d="M1333.33 336.116C1334.49 336.116 1335.43 335.174 1335.43 334.011C1335.43 332.849 1334.49 331.907 1333.33 331.907C1332.17 331.907 1331.22 332.849 1331.22 334.011C1331.22 335.174 1332.17 336.116 1333.33 336.116Z" fill="#B1DDF6"/>
<path d="M1564.64 247.737C1564.64 250.262 1562.53 252.367 1560.01 252.367C1557.49 252.367 1555.38 250.262 1555.38 247.737C1555.38 245.212 1557.49 243.108 1560.01 243.108C1562.53 243.318 1564.64 245.212 1564.64 247.737Z" fill="#B1DDF6"/>
<path d="M1561.69 171.774C1565.18 171.774 1568 168.948 1568 165.461C1568 161.975 1565.18 159.149 1561.69 159.149C1558.21 159.149 1555.38 161.975 1555.38 165.461C1555.38 168.948 1558.21 171.774 1561.69 171.774Z" fill="#B1DDF6"/>
<path d="M1535.41 164.83C1535.41 166.934 1533.72 168.618 1531.62 168.618C1529.52 168.618 1527.84 166.934 1527.84 164.83C1527.84 162.726 1529.52 161.042 1531.62 161.042C1533.72 161.042 1535.41 162.936 1535.41 164.83Z" fill="#B1DDF6"/>
<path d="M1556.01 189.029C1556.01 191.133 1554.33 193.027 1552.02 193.027C1549.92 193.027 1548.02 191.344 1548.02 189.029C1548.02 186.925 1549.71 185.031 1552.02 185.031C1554.12 185.031 1556.01 186.714 1556.01 189.029Z" fill="#B1DDF6"/>
<path d="M1261.2 342.428C1265.15 342.428 1268.35 339.225 1268.35 335.274C1268.35 331.323 1265.15 328.12 1261.2 328.12C1257.25 328.12 1254.05 331.323 1254.05 335.274C1254.05 339.225 1257.25 342.428 1261.2 342.428Z" fill="#B1DDF6"/>
<path d="M1275.5 357.158C1277.24 357.158 1278.65 355.745 1278.65 354.002C1278.65 352.258 1277.24 350.845 1275.5 350.845C1273.76 350.845 1272.35 352.258 1272.35 354.002C1272.35 355.745 1273.76 357.158 1275.5 357.158Z" fill="#B1DDF6"/>
<path d="M1261.83 372.94C1261.83 375.044 1260.15 376.728 1258.05 376.728C1255.94 376.728 1254.26 375.044 1254.26 372.94C1254.26 370.836 1255.94 369.152 1258.05 369.152C1260.15 369.152 1261.83 370.836 1261.83 372.94Z" fill="#B1DDF6"/>
<path d="M1124.1 239.741C1124.1 242.056 1122.21 243.739 1120.1 243.739C1117.79 243.739 1116.11 241.845 1116.11 239.741C1116.11 237.637 1118 235.743 1120.1 235.743C1122.42 235.743 1124.1 237.637 1124.1 239.741Z" fill="#B1DDF6"/>
<path d="M1168.05 243.318C1168.05 245.212 1166.36 246.896 1164.47 246.896C1162.58 246.896 1160.9 245.212 1160.9 243.318C1160.9 241.425 1162.58 239.741 1164.47 239.741C1166.58 239.741 1168.05 241.425 1168.05 243.318Z" fill="#B1DDF6"/>
<path d="M1145.34 250.473C1145.34 252.367 1143.86 253.84 1141.97 253.84C1140.08 253.84 1138.61 252.367 1138.61 250.473C1138.61 248.579 1140.08 247.106 1141.97 247.106C1143.86 246.896 1145.34 248.579 1145.34 250.473Z" fill="#B1DDF6"/>
<path d="M990.99 184.4C992.732 184.4 994.145 182.986 994.145 181.243C994.145 179.5 992.732 178.087 990.99 178.087C989.248 178.087 987.836 179.5 987.836 181.243C987.836 182.986 989.248 184.4 990.99 184.4Z" fill="#B1DDF6"/>
<path d="M1002.56 203.127C1002.56 204.6 1001.5 205.652 1000.03 205.652C998.561 205.652 997.509 204.6 997.509 203.127C997.509 201.654 998.561 200.602 1000.03 200.602C1001.5 200.602 1002.56 201.865 1002.56 203.127Z" fill="#B1DDF6"/>
<path d="M983.631 209.861C983.631 212.176 981.738 214.069 979.425 214.069C977.112 214.069 975.219 212.176 975.219 209.861C975.219 207.546 977.112 205.652 979.425 205.652C981.738 205.652 983.631 207.546 983.631 209.861Z" fill="#B1DDF6"/>
<path d="M968.28 340.324C968.28 341.797 967.019 343.06 965.547 343.06C964.075 343.06 962.813 341.797 962.813 340.324C962.813 338.851 964.075 337.589 965.547 337.589C967.019 337.589 968.28 338.851 968.28 340.324Z" fill="#B1DDF6"/>
<path d="M986.785 357.158C988.527 357.158 989.939 355.745 989.939 354.002C989.939 352.258 988.527 350.845 986.785 350.845C985.043 350.845 983.631 352.258 983.631 354.002C983.631 355.745 985.043 357.158 986.785 357.158Z" fill="#B1DDF6"/>
<path d="M962.603 361.787C962.603 364.313 960.5 366.627 957.766 366.627C955.033 366.627 952.93 364.523 952.93 361.787C952.93 359.052 955.033 356.948 957.766 356.948C960.5 356.948 962.603 359.262 962.603 361.787Z" fill="#B1DDF6"/>
<path d="M975.43 378.832C977.056 378.832 978.374 377.513 978.374 375.886C978.374 374.259 977.056 372.94 975.43 372.94C973.804 372.94 972.486 374.259 972.486 375.886C972.486 377.513 973.804 378.832 975.43 378.832Z" fill="#B1DDF6"/>
</g>
<g style="mix-blend-mode:multiply" opacity="0.1">
<path d="M0 435.454C124.416 432.205 250.112 434.307 373.248 438.704C715.776 450.936 1063.68 477.696 1399.55 442.144C1584.64 422.648 1757.7 384.803 1920 336.253V237.244C1677.82 300.893 1439.23 368.365 1170.69 366.071C861.184 363.586 591.616 268.017 300.544 214.307H0V435.454Z" fill="#264892"/>
<path d="M1920 888.453C1611.26 797.089 1239.81 758.67 883.712 782.753C554.752 805.116 241.664 880.616 0 993.961V1170H126.976C180.224 1151.65 226.56 1126.42 271.104 1102.53C473.088 994.917 728.064 893.996 1024 893.04C1256.96 892.276 1471.74 954.013 1661.18 1021.49C1747.46 1052.26 1832.45 1084.94 1920 1114.76V888.453Z" fill="#264892"/>
<path d="M1127.42 709.165C1409.02 721.971 1658.88 796.133 1920 852.71V445.011C1802.5 469.859 1681.41 490.502 1556.74 505.22C1244.67 542.301 920.064 543.065 601.856 563.135C396.032 575.941 187.136 598.495 0 641.311V889.6C359.168 798.809 728.576 691.007 1127.42 709.165Z" fill="#264892"/>
<path d="M1920 583.587C1603.07 598.496 1279.74 587.027 959.744 587.027C634.368 587.027 295.936 601.554 0 664.056V748.539C157.184 716.428 310.016 678.774 471.808 652.779C865.024 589.894 1291.52 600.98 1697.54 638.061C1771.01 644.751 1845.76 652.206 1920 652.014V583.587Z" fill="#264892"/>
</g>
</g>
<defs>
<linearGradient id="paint0_linear" x1="359.085" y1="1249.59" x2="1598.07" y2="106.499" gradientUnits="userSpaceOnUse">
<stop stop-color="#253A80"/>
<stop offset="1" stop-color="#1E6DB5"/>
</linearGradient>
<radialGradient id="paint1_radial" cx="0" cy="0" r="1" gradientUnits="userSpaceOnUse" gradientTransform="translate(961 639) rotate(90) scale(417 797)">
<stop stop-color="#B1DCF5"/>
<stop offset="1" stop-color="#B1DCF5" stop-opacity="0"/>
</radialGradient>
</defs>
</svg>
