<svg width="1920" height="2113" viewBox="0 0 1920 2113" fill="none" xmlns="http://www.w3.org/2000/svg">
<g clip-path="url(#clip0)">
<rect width="1920" height="2113" fill="#F9F9F9"/>
<mask id="mask0" mask-type="alpha" maskUnits="userSpaceOnUse" x="0" y="0" width="1920" height="556">
<path d="M1920 515.011C1626.74 482.601 1241.04 559.254 941 555.456C631.149 551.533 333.623 493.107 0 530.29V0H1920V515.011Z" fill="#F9F9F9"/>
</mask>
<g mask="url(#mask0)">
<rect width="1920" height="803" fill="url(#paint0_linear)"/>
<mask id="mask1" mask-type="alpha" maskUnits="userSpaceOnUse" x="0" y="0" width="1920" height="803">
<rect width="1920" height="803" fill="url(#paint1_linear)"/>
</mask>
<g mask="url(#mask1)">
<g opacity="0.1">
<path d="M712.061 420.119C712.061 422.855 709.958 424.959 707.224 424.959C704.491 424.959 702.388 422.855 702.388 420.119C702.388 417.384 704.491 415.279 707.224 415.279C709.958 415.279 712.061 417.384 712.061 420.119Z" fill="#B1DDF6"/>
<path d="M734.14 374.667C734.14 376.14 732.878 377.403 731.407 377.403C729.935 377.403 728.673 376.14 728.673 374.667C728.673 373.195 729.935 371.932 731.407 371.932C732.878 371.722 734.14 372.984 734.14 374.667Z" fill="#B1DDF6"/>
<path d="M691.453 388.556C693.195 388.556 694.607 387.142 694.607 385.399C694.607 383.656 693.195 382.243 691.453 382.243C689.711 382.243 688.299 383.656 688.299 385.399C688.299 387.142 689.711 388.556 691.453 388.556Z" fill="#B1DDF6"/>
<path d="M670.636 220.847C670.636 223.793 668.323 226.318 665.168 226.318C662.225 226.318 659.701 224.004 659.701 220.847C659.701 217.901 662.014 215.376 665.168 215.376C668.323 215.376 670.636 217.901 670.636 220.847Z" fill="#B1DDF6"/>
<path d="M686.827 212.641C686.827 214.114 685.565 215.376 684.093 215.376C682.621 215.376 681.359 214.114 681.359 212.641C681.359 211.168 682.621 209.905 684.093 209.905C685.565 209.695 686.827 210.957 686.827 212.641Z" fill="#B1DDF6"/>
<path d="M670.635 187.179C670.635 188.652 669.374 189.915 667.902 189.915C666.43 189.915 665.168 188.652 665.168 187.179C665.168 185.706 666.43 184.444 667.902 184.444C669.374 184.444 670.635 185.706 670.635 187.179Z" fill="#B1DDF6"/>
<path d="M803.112 63.4496C803.112 66.1851 801.01 68.2894 798.276 68.2894C795.542 68.2894 793.439 66.1851 793.439 63.4496C793.439 60.7141 795.542 58.6099 798.276 58.6099C801.01 58.6099 803.112 60.9245 803.112 63.4496Z" fill="#B1DDF6"/>
<path d="M766.102 56.7161C767.38 56.7161 768.415 55.6798 768.415 54.4014C768.415 53.123 767.38 52.0867 766.102 52.0867C764.825 52.0867 763.789 53.123 763.789 54.4014C763.789 55.6798 764.825 56.7161 766.102 56.7161Z" fill="#B1DDF6"/>
<path d="M569.701 163.822C569.701 167.399 566.757 170.556 562.972 170.556C559.187 170.556 556.243 167.61 556.243 163.822C556.243 160.035 559.187 157.089 562.972 157.089C566.757 157.089 569.701 160.035 569.701 163.822Z" fill="#B1DDF6"/>
<path d="M546.57 146.567C547.731 146.567 548.672 145.625 548.672 144.463C548.672 143.301 547.731 142.359 546.57 142.359C545.408 142.359 544.467 143.301 544.467 144.463C544.467 145.625 545.408 146.567 546.57 146.567Z" fill="#B1DDF6"/>
<path d="M580.215 99.6427C580.215 101.326 578.953 102.589 577.271 102.589C575.589 102.589 574.327 101.326 574.327 99.6427C574.327 97.9593 575.589 96.6967 577.271 96.6967C578.953 96.9072 580.215 98.1697 580.215 99.6427Z" fill="#B1DDF6"/>
<path d="M387.388 85.3338C389.363 85.3338 390.963 83.7322 390.963 81.7566C390.963 79.781 389.363 78.1794 387.388 78.1794C385.414 78.1794 383.813 79.781 383.813 81.7566C383.813 83.7322 385.414 85.3338 387.388 85.3338Z" fill="#B1DDF6"/>
<path d="M406.103 94.3821C406.103 95.6446 405.051 96.6967 403.79 96.6967C402.528 96.6967 401.477 95.6446 401.477 94.3821C401.477 93.1195 402.528 92.0674 403.79 92.0674C404.841 92.0674 406.103 93.1195 406.103 94.3821Z" fill="#B1DDF6"/>
<path d="M457.622 19.2605C459.248 19.2605 460.566 17.9416 460.566 16.3146C460.566 14.6876 459.248 13.3687 457.622 13.3687C455.996 13.3687 454.678 14.6876 454.678 16.3146C454.678 17.9416 455.996 19.2605 457.622 19.2605Z" fill="#B1DDF6"/>
<path d="M619.958 341.21C619.958 344.577 617.224 347.312 613.86 347.312C610.495 347.312 607.762 344.577 607.762 341.21C607.762 337.843 610.495 335.108 613.86 335.108C617.224 335.108 619.958 337.843 619.958 341.21Z" fill="#B1DDF6"/>
<path d="M628.579 359.306C629.392 359.306 630.051 358.647 630.051 357.834C630.051 357.02 629.392 356.361 628.579 356.361C627.766 356.361 627.107 357.02 627.107 357.834C627.107 358.647 627.766 359.306 628.579 359.306Z" fill="#B1DDF6"/>
<path d="M632.155 468.938C632.155 471.463 630.052 473.567 627.529 473.567C625.005 473.567 622.902 471.463 622.902 468.938C622.902 466.413 625.005 464.308 627.529 464.308C630.052 464.308 632.155 466.413 632.155 468.938Z" fill="#B1DDF6"/>
<path d="M627.318 494.399C627.318 496.503 625.636 498.187 623.533 498.187C621.43 498.187 619.748 496.503 619.748 494.399C619.748 492.295 621.43 490.611 623.533 490.611C625.636 490.611 627.318 492.505 627.318 494.399Z" fill="#B1DDF6"/>
<path d="M942.317 459.679C942.317 462.625 939.794 465.15 936.85 465.15C933.906 465.15 931.383 462.625 931.383 459.679C931.383 456.733 933.906 454.208 936.85 454.208C939.794 454.208 942.317 456.523 942.317 459.679Z" fill="#B1DDF6"/>
<path d="M959.14 450.42C959.14 452.525 957.458 453.997 955.565 453.997C953.462 453.997 951.99 452.314 951.99 450.42C951.99 448.316 953.673 446.843 955.565 446.843C957.458 446.843 959.14 448.526 959.14 450.42Z" fill="#B1DDF6"/>
<path d="M941.687 440.11C941.687 441.372 940.636 442.635 939.164 442.635C937.902 442.635 936.641 441.583 936.641 440.11C936.641 438.847 937.692 437.584 939.164 437.584C940.636 437.795 941.687 438.847 941.687 440.11Z" fill="#B1DDF6"/>
<path d="M1203.49 371.722C1206.97 371.722 1209.79 368.895 1209.79 365.409C1209.79 361.922 1206.97 359.096 1203.49 359.096C1200 359.096 1197.18 361.922 1197.18 365.409C1197.18 368.895 1200 371.722 1203.49 371.722Z" fill="#B1DDF6"/>
<path d="M1185.82 359.517C1185.82 360.569 1184.98 361.2 1184.14 361.2C1183.09 361.2 1182.46 360.359 1182.46 359.517C1182.46 358.465 1183.3 357.834 1184.14 357.834C1185.19 357.834 1185.82 358.465 1185.82 359.517Z" fill="#B1DDF6"/>
<path d="M1200.33 347.523C1202.07 347.523 1203.49 346.11 1203.49 344.366C1203.49 342.623 1202.07 341.21 1200.33 341.21C1198.59 341.21 1197.18 342.623 1197.18 344.366C1197.18 346.11 1198.59 347.523 1200.33 347.523Z" fill="#B1DDF6"/>
<path d="M1212.11 330.689C1212.11 333.214 1210.21 335.108 1207.69 335.108C1205.17 335.108 1203.28 333.214 1203.28 330.689C1203.28 328.164 1205.17 326.27 1207.69 326.27C1210.21 326.48 1212.11 328.374 1212.11 330.689Z" fill="#B1DDF6"/>
<path d="M1306.52 383.716C1310.01 383.716 1312.83 380.89 1312.83 377.403C1312.83 373.917 1310.01 371.09 1306.52 371.09C1303.04 371.09 1300.21 373.917 1300.21 377.403C1300.21 380.89 1303.04 383.716 1306.52 383.716Z" fill="#B1DDF6"/>
<path d="M1241.97 536.273C1243.83 536.273 1245.33 534.766 1245.33 532.907C1245.33 531.047 1243.83 529.54 1241.97 529.54C1240.11 529.54 1238.6 531.047 1238.6 532.907C1238.6 534.766 1240.11 536.273 1241.97 536.273Z" fill="#B1DDF6"/>
<path d="M1174.47 549.53C1176.79 549.53 1178.67 547.646 1178.67 545.322C1178.67 542.997 1176.79 541.113 1174.47 541.113C1172.14 541.113 1170.26 542.997 1170.26 545.322C1170.26 547.646 1172.14 549.53 1174.47 549.53Z" fill="#B1DDF6"/>
<path d="M1178.67 523.648C1178.25 525.963 1176.15 527.646 1173.84 527.225C1171.52 526.804 1169.84 524.7 1170.26 522.386C1170.68 520.071 1172.79 518.387 1175.1 518.808C1177.41 519.229 1179.09 521.333 1178.67 523.648Z" fill="#B1DDF6"/>
<path d="M1190.87 541.745C1193.31 541.745 1195.28 539.766 1195.28 537.326C1195.28 534.885 1193.31 532.907 1190.87 532.907C1188.43 532.907 1186.45 534.885 1186.45 537.326C1186.45 539.766 1188.43 541.745 1190.87 541.745Z" fill="#B1DDF6"/>
<path d="M1122.74 555.843C1124.48 555.843 1125.89 554.43 1125.89 552.687C1125.89 550.943 1124.48 549.53 1122.74 549.53C1121 549.53 1119.58 550.943 1119.58 552.687C1119.58 554.43 1121 555.843 1122.74 555.843Z" fill="#B1DDF6"/>
<path d="M1334.07 209.695C1335.81 209.695 1337.22 208.282 1337.22 206.538C1337.22 204.795 1335.81 203.382 1334.07 203.382C1332.33 203.382 1330.92 204.795 1330.92 206.538C1330.92 208.282 1332.33 209.695 1334.07 209.695Z" fill="#B1DDF6"/>
<path d="M1306.52 201.699C1306.52 202.961 1305.47 204.224 1304 204.224C1302.74 204.224 1301.48 203.172 1301.48 201.699C1301.48 200.436 1302.53 199.173 1304 199.173C1305.26 199.173 1306.52 200.436 1306.52 201.699Z" fill="#B1DDF6"/>
<path d="M1326.29 220.847C1326.29 223.793 1323.98 226.318 1320.82 226.318C1317.88 226.318 1315.36 224.004 1315.36 220.847C1315.36 217.901 1317.67 215.376 1320.82 215.376C1323.98 215.376 1326.29 217.901 1326.29 220.847Z" fill="#B1DDF6"/>
<path d="M1363.72 87.2276C1363.72 90.384 1360.99 93.1195 1357.83 93.1195C1354.68 93.1195 1351.94 90.384 1351.94 87.2276C1351.94 84.0713 1354.68 81.3358 1357.83 81.3358C1361.2 81.3358 1363.72 84.0713 1363.72 87.2276Z" fill="#B1DDF6"/>
<path d="M1339.33 101.116C1340.49 101.116 1341.43 100.174 1341.43 99.0114C1341.43 97.8493 1340.49 96.9072 1339.33 96.9072C1338.17 96.9072 1337.22 97.8493 1337.22 99.0114C1337.22 100.174 1338.17 101.116 1339.33 101.116Z" fill="#B1DDF6"/>
<path d="M1570.64 12.7373C1570.64 15.2624 1568.53 17.3667 1566.01 17.3667C1563.49 17.3667 1561.38 15.2624 1561.38 12.7373C1561.38 10.2122 1563.49 8.10797 1566.01 8.10797C1568.53 8.3184 1570.64 10.2122 1570.64 12.7373Z" fill="#B1DDF6"/>
<path d="M1267.2 107.428C1271.15 107.428 1274.35 104.225 1274.35 100.274C1274.35 96.3227 1271.15 93.1195 1267.2 93.1195C1263.25 93.1195 1260.05 96.3227 1260.05 100.274C1260.05 104.225 1263.25 107.428 1267.2 107.428Z" fill="#B1DDF6"/>
<path d="M1281.5 122.158C1283.24 122.158 1284.65 120.745 1284.65 119.002C1284.65 117.258 1283.24 115.845 1281.5 115.845C1279.76 115.845 1278.35 117.258 1278.35 119.002C1278.35 120.745 1279.76 122.158 1281.5 122.158Z" fill="#B1DDF6"/>
<path d="M1267.83 137.94C1267.83 140.044 1266.15 141.728 1264.05 141.728C1261.94 141.728 1260.26 140.044 1260.26 137.94C1260.26 135.836 1261.94 134.152 1264.05 134.152C1266.15 134.152 1267.83 135.836 1267.83 137.94Z" fill="#B1DDF6"/>
<path d="M1130.1 4.74123C1130.1 7.0559 1128.21 8.73929 1126.1 8.73929C1123.79 8.73929 1122.11 6.84547 1122.11 4.74123C1122.11 2.63699 1124 0.743164 1126.1 0.743164C1128.42 0.743164 1130.1 2.63699 1130.1 4.74123Z" fill="#B1DDF6"/>
<path d="M1174.05 8.31842C1174.05 10.2122 1172.36 11.8956 1170.47 11.8956C1168.58 11.8956 1166.9 10.2122 1166.9 8.31842C1166.9 6.4246 1168.58 4.74121 1170.47 4.74121C1172.58 4.74121 1174.05 6.4246 1174.05 8.31842Z" fill="#B1DDF6"/>
<path d="M1151.34 15.4729C1151.34 17.3667 1149.86 18.8397 1147.97 18.8397C1146.08 18.8397 1144.61 17.3667 1144.61 15.4729C1144.61 13.5791 1146.08 12.1061 1147.97 12.1061C1149.86 11.8957 1151.34 13.5791 1151.34 15.4729Z" fill="#B1DDF6"/>
<path d="M974.28 105.324C974.28 106.797 973.018 108.06 971.546 108.06C970.074 108.06 968.812 106.797 968.812 105.324C968.812 103.851 970.074 102.589 971.546 102.589C973.018 102.589 974.28 103.851 974.28 105.324Z" fill="#B1DDF6"/>
<path d="M992.785 122.158C994.527 122.158 995.939 120.745 995.939 119.002C995.939 117.258 994.527 115.845 992.785 115.845C991.043 115.845 989.631 117.258 989.631 119.002C989.631 120.745 991.043 122.158 992.785 122.158Z" fill="#B1DDF6"/>
<path d="M968.603 126.787C968.603 129.313 966.5 131.627 963.766 131.627C961.032 131.627 958.93 129.523 958.93 126.787C958.93 124.052 961.032 121.948 963.766 121.948C966.5 121.948 968.603 124.262 968.603 126.787Z" fill="#B1DDF6"/>
<path d="M981.43 143.832C983.056 143.832 984.374 142.513 984.374 140.886C984.374 139.259 983.056 137.94 981.43 137.94C979.804 137.94 978.486 139.259 978.486 140.886C978.486 142.513 979.804 143.832 981.43 143.832Z" fill="#B1DDF6"/>
</g>
<g style="mix-blend-mode:multiply" opacity="0.1">
<path d="M0 198.377C124.416 195.932 250.112 197.514 373.248 200.821C715.776 210.024 1063.68 230.156 1399.55 203.41C1584.64 188.742 1757.7 160.27 1920 123.744V49.256C1677.82 97.1414 1439.23 147.903 1170.69 146.177C861.184 144.308 591.616 72.4078 300.544 32H0V198.377Z" fill="#264892"/>
<path d="M1920 539.183C1611.26 470.446 1239.81 441.542 883.712 459.661C554.752 476.486 241.664 533.287 0 618.56V751H126.976C180.224 737.195 226.56 718.214 271.104 700.239C473.088 619.279 728.064 543.353 1024 542.634C1256.96 542.059 1471.74 588.506 1661.18 639.267C1747.46 662.419 1832.45 687.009 1920 709.442V539.183Z" fill="#264892"/>
<path d="M1127.42 404.298C1409.02 413.933 1658.88 469.727 1920 512.292V205.567C1802.5 224.261 1681.41 239.791 1556.74 250.864C1244.67 278.761 920.064 279.336 601.856 294.435C396.032 304.07 187.136 321.038 0 353.249V540.045C359.168 471.74 728.576 390.637 1127.42 404.298Z" fill="#264892"/>
<path d="M1920 309.822C1603.07 321.038 1279.74 312.41 959.744 312.41C634.368 312.41 295.936 323.339 0 370.361V433.921C157.184 409.763 310.016 381.434 471.808 361.877C865.024 314.567 1291.52 322.907 1697.54 350.805C1771.01 355.838 1845.76 361.446 1920 361.302V309.822Z" fill="#264892"/>
</g>
<ellipse opacity="0.25" cx="967" cy="386" rx="635" ry="332" fill="url(#paint2_radial)"/>
</g>
</g>
<path d="M4.62819 1980.38C6.07612 1968.12 1.00836 1955.14 -8.40321 1947.21C-9.12717 1946.49 -9.12718 1946.49 -9.85115 1945.77C-9.85115 1944.33 -9.85115 1942.16 -9.85115 1940.72C-10.5751 1937.84 -12.0231 1935.67 -14.9189 1934.23C-17.0908 1933.51 -19.2627 1933.51 -21.4346 1932.79C-22.8825 1932.07 -24.3305 1930.63 -25.7784 1929.91C-28.6743 1927.74 -33.0181 1928.46 -37.3619 1928.46C-40.2577 1928.46 -43.1536 1928.46 -46.0495 1928.46C-51.1172 1928.46 -56.909 1928.46 -61.9767 1929.91C-63.4247 1930.63 -65.5966 1931.35 -67.0445 1932.07C-67.7685 1932.07 -67.7685 1932.79 -68.4924 1932.79C-69.9404 1932.07 -70.6643 1931.35 -71.3883 1930.63C-72.1123 1929.91 -72.8362 1928.46 -73.5602 1927.74C-74.2842 1926.3 -75.7321 1925.58 -76.4561 1924.14C-80.0759 1919.81 -85.1437 1915.48 -90.2114 1912.6C-90.9354 1911.88 -91.6594 1911.88 -92.3833 1911.88C-93.1073 1911.88 -93.1073 1912.6 -93.1073 1913.32C-93.1073 1914.04 -93.1073 1914.76 -93.1073 1915.48C-92.3833 1916.93 -91.6594 1919.09 -91.6594 1920.53C-90.9354 1921.97 -90.9354 1924.14 -92.3833 1925.58C-93.1073 1927.02 -94.5552 1928.46 -96.0032 1929.18C-97.4511 1929.91 -99.623 1929.91 -101.071 1930.63C-101.795 1930.63 -103.243 1931.35 -103.967 1932.07C-103.967 1932.07 -103.967 1932.79 -103.967 1934.23C-103.967 1935.67 -101.795 1936.4 -100.347 1936.4C-94.5552 1937.84 -88.0395 1938.56 -82.2478 1938.56C-80.7999 1938.56 -79.3519 1938.56 -78.628 1937.84C-77.18 1937.84 -75.7321 1939.28 -75.0081 1940C-72.8362 1942.16 -72.1123 1944.33 -70.6643 1947.21C-70.6643 1947.93 -69.9404 1948.65 -69.2164 1949.37C-69.9404 1949.37 -69.9404 1950.1 -70.6643 1950.1C-71.3883 1950.1 -72.1123 1950.82 -73.5602 1950.82C-72.1123 1956.59 -69.2164 1963.07 -64.8726 1966.68C-64.1486 1967.4 -62.7007 1968.12 -61.2528 1968.84C-59.8048 1969.56 -58.3569 1966.68 -56.185 1965.24C-51.1172 1969.56 -45.3255 1973.89 -39.5338 1976.77C-26.5024 1983.26 -12.023 1984.71 2.45629 1982.54C2.45629 1981.82 2.45629 1981.82 2.45629 1981.1C2.45629 1980.38 3.18025 1980.38 4.62819 1980.38Z" fill="white"/>
<path d="M258.017 2047.44C254.397 2035.18 244.985 2025.81 233.402 2021.48C232.678 2021.48 231.954 2020.76 231.23 2020.76C230.506 2019.32 229.782 2017.88 229.058 2016.43C227.61 2014.27 224.714 2012.11 222.542 2012.83C220.37 2012.83 218.198 2014.27 216.027 2013.55C214.579 2013.55 212.407 2012.83 210.959 2012.11C207.339 2011.39 203.719 2013.55 200.099 2014.99C197.203 2016.43 195.032 2017.15 192.136 2018.6C187.068 2020.76 182 2022.92 177.656 2025.81C176.208 2026.53 174.761 2027.97 174.037 2029.41C173.313 2030.13 173.313 2030.13 172.589 2030.85C171.141 2030.85 169.693 2030.13 168.969 2030.13C168.245 2029.41 166.797 2028.69 166.073 2028.69C164.625 2027.97 163.177 2027.25 161.729 2026.53C156.661 2023.64 150.87 2022.2 144.354 2020.76C143.63 2020.76 142.906 2020.76 142.182 2020.76C142.182 2021.48 142.182 2022.2 142.182 2022.92C142.182 2023.64 142.906 2024.36 142.906 2024.36C144.354 2025.81 145.078 2027.25 146.526 2028.69C147.25 2030.13 147.974 2031.58 147.974 2033.74C147.974 2035.18 146.526 2037.34 145.802 2038.06C144.354 2039.51 142.906 2040.23 141.458 2041.67C140.734 2042.39 140.01 2043.11 139.286 2043.83C138.562 2044.55 138.562 2046 139.286 2046.72C140.01 2048.16 142.182 2048.16 143.63 2047.44C149.422 2046.72 155.213 2044.55 161.005 2042.39C162.453 2041.67 163.177 2040.95 164.625 2040.23C166.073 2040.23 167.521 2040.23 168.969 2040.95C171.141 2041.67 173.313 2043.83 175.484 2045.28C176.208 2046 176.932 2046 176.932 2046.72L176.208 2047.44C175.484 2048.16 174.761 2048.88 174.037 2048.88C177.656 2053.93 182.724 2058.25 187.792 2060.42C189.24 2061.14 190.688 2061.14 191.412 2061.14C192.86 2061.14 193.584 2058.25 194.308 2056.09C200.823 2058.25 207.339 2059.7 213.855 2060.42C228.334 2061.14 242.813 2057.53 254.397 2049.6C254.397 2048.88 253.673 2048.88 253.673 2048.16C256.569 2048.16 257.293 2047.44 258.017 2047.44Z" fill="white"/>
<path d="M315.934 1931.35C307.97 1921.25 295.663 1916.21 283.355 1916.21C282.631 1916.21 281.907 1916.21 281.183 1916.21C280.459 1914.76 279.011 1914.04 277.563 1912.6C275.391 1911.16 272.496 1910.44 269.6 1911.16C267.428 1911.88 265.98 1914.04 263.808 1914.76C262.36 1915.48 260.188 1914.76 258.74 1915.48C255.12 1916.21 252.225 1919.81 250.053 1922.7C247.881 1924.86 246.433 1927.02 244.261 1928.46C240.641 1932.07 236.297 1935.67 234.125 1940.72C233.401 1942.16 232.677 1943.61 231.954 1945.77C231.954 1946.49 231.23 1947.21 231.23 1947.21C229.782 1947.93 228.334 1947.93 227.61 1947.93C226.886 1947.93 225.438 1947.93 223.99 1947.21C222.542 1947.21 221.094 1946.49 219.646 1946.49C213.854 1945.77 207.339 1946.49 201.547 1947.93C200.823 1947.93 200.099 1948.65 199.375 1948.65C199.375 1949.37 199.375 1950.1 199.375 1950.1C200.099 1950.82 200.099 1950.82 200.823 1951.54C202.271 1952.26 204.443 1952.98 205.891 1953.7C207.339 1954.42 208.787 1955.86 209.511 1958.03C210.235 1959.47 209.511 1961.63 208.787 1963.07C208.063 1964.52 207.339 1965.96 205.891 1967.4C205.167 1968.12 205.167 1968.84 204.443 1970.29C204.443 1971.01 204.443 1972.45 205.167 1973.17C206.615 1973.89 208.063 1973.17 209.511 1972.45C214.578 1969.56 219.646 1965.24 223.99 1960.91C224.714 1960.19 226.162 1958.75 226.886 1958.03C228.334 1957.31 229.782 1957.31 231.23 1957.31C234.125 1957.31 236.297 1958.03 239.193 1959.47C239.917 1959.47 240.641 1960.19 241.365 1960.19C241.365 1960.91 240.641 1960.91 240.641 1961.63C239.917 1962.35 239.917 1963.07 239.193 1963.8C244.261 1967.4 250.777 1969.56 256.568 1969.56C258.016 1969.56 259.464 1969.56 260.188 1968.84C261.636 1968.12 260.912 1965.24 260.912 1963.07C267.428 1963.07 274.668 1961.63 281.183 1959.47C294.939 1955.14 306.522 1945.77 315.21 1934.23C314.486 1934.23 314.486 1933.51 313.762 1933.51C315.21 1932.79 315.934 1932.07 315.934 1931.35Z" fill="white"/>
<path d="M452.04 1914.04C441.904 1906.83 428.149 1905.39 416.565 1910.44C415.841 1910.44 415.117 1911.16 414.393 1911.16C412.945 1910.44 411.497 1909.72 410.05 1909C407.154 1908.27 404.258 1908.27 402.086 1910.44C400.638 1911.88 399.914 1914.04 397.742 1915.49C396.294 1916.21 394.846 1916.93 393.398 1917.65C389.778 1919.81 388.331 1923.42 386.883 1927.02C385.435 1929.91 384.711 1932.07 383.263 1934.95C381.091 1940 378.195 1944.33 377.471 1950.1C377.471 1951.54 376.747 1953.7 376.747 1955.14C376.747 1955.86 376.747 1956.59 376.747 1956.59C376.023 1957.31 374.575 1958.03 373.127 1958.03C372.403 1958.03 370.955 1958.75 369.507 1958.75C368.059 1958.75 366.612 1959.47 365.164 1959.47C359.372 1960.91 353.58 1963.08 348.512 1965.96C347.788 1965.96 347.064 1966.68 347.064 1967.4C347.064 1968.12 347.064 1968.84 347.788 1968.84C348.512 1968.84 349.236 1969.56 349.236 1969.56C350.684 1969.56 352.856 1969.56 354.304 1970.29C355.752 1971.01 357.924 1971.73 358.648 1973.17C359.372 1974.61 360.096 1976.78 360.096 1978.22C360.096 1979.66 359.372 1981.82 359.372 1983.26C359.372 1983.99 358.648 1985.43 359.372 1986.15C359.372 1986.87 360.096 1988.31 360.82 1988.31C362.268 1989.03 363.716 1987.59 364.44 1986.15C368.059 1981.82 371.679 1976.05 374.575 1971.01C375.299 1969.56 376.023 1968.84 376.023 1967.4C376.747 1965.96 378.195 1965.24 379.643 1965.24C382.539 1964.52 384.711 1964.52 387.607 1964.52C388.331 1964.52 389.054 1964.52 389.778 1964.52C389.778 1965.24 389.778 1965.24 389.778 1965.96C389.778 1966.68 389.778 1967.4 389.054 1968.84C394.846 1970.29 401.362 1970.29 407.154 1968.84C408.602 1968.12 409.326 1968.12 410.773 1966.68C411.497 1965.96 410.773 1963.08 410.05 1960.91C416.565 1958.75 422.357 1955.14 428.149 1951.54C439.732 1942.89 448.42 1930.63 452.04 1916.93C451.316 1916.93 451.316 1916.93 450.592 1916.21C451.316 1915.49 452.04 1914.76 452.04 1914.04Z" fill="white"/>
<path d="M80.6447 2058.25C79.9208 2047.44 74.129 2036.62 64.7174 2030.85C63.9935 2030.85 63.9935 2030.13 63.2695 2030.13C63.2695 2028.69 62.5456 2027.25 62.5456 2025.81C61.8216 2023.64 59.6497 2021.48 57.4778 2020.76C55.3059 2020.04 53.858 2020.76 51.6861 2020.04C50.2381 2019.32 48.7902 2018.6 47.3423 2017.88C44.4464 2016.43 40.8266 2017.15 37.2067 2018.6C35.0348 2019.32 32.139 2019.32 29.9671 2020.04C24.8993 2020.76 20.5555 2021.48 16.2117 2023.64C14.7637 2024.36 13.3158 2025.09 11.8679 2025.81C11.1439 2025.81 11.1439 2026.53 10.4199 2026.53C8.97201 2026.53 8.24806 2025.81 7.5241 2025.09C6.80013 2024.36 6.07614 2023.64 5.35218 2022.92C4.62821 2022.2 3.18029 2020.76 2.45633 2020.04C-1.88748 2016.43 -6.23129 2013.55 -11.2991 2011.39C-12.023 2011.39 -12.747 2010.66 -13.4709 2011.39C-14.1949 2011.39 -14.1949 2012.11 -14.1949 2012.83C-14.1949 2013.55 -14.1949 2014.27 -13.4709 2014.27C-12.747 2015.71 -12.023 2017.15 -11.2991 2018.6C-10.5751 2020.04 -10.5751 2021.48 -11.2991 2022.92C-12.023 2024.36 -12.747 2025.81 -14.1949 2026.53C-15.6428 2027.25 -17.0908 2027.97 -18.5387 2028.69C-19.2627 2028.69 -19.9866 2029.41 -20.7106 2030.13C-21.4346 2030.85 -21.4346 2031.58 -21.4346 2032.3C-20.7106 2033.74 -19.2627 2033.74 -17.8147 2033.74C-12.747 2034.46 -6.95526 2033.74 -1.88749 2033.02C-0.439558 2033.02 0.284408 2032.3 1.73234 2032.3C3.18028 2032.3 4.62821 2033.02 5.35218 2033.74C7.52408 2035.18 8.97201 2037.34 10.4199 2039.51C11.1439 2040.23 11.1439 2040.23 11.8679 2040.95C11.1439 2040.95 11.1439 2041.67 10.4199 2041.67C9.69598 2042.39 8.97202 2042.39 8.24805 2042.39C10.42 2047.44 13.3158 2052.49 17.6596 2055.37C18.3836 2056.09 19.8315 2056.81 20.5555 2056.81C22.0034 2056.81 23.4514 2054.65 24.1753 2053.21C29.2431 2056.81 34.3109 2058.98 40.1026 2061.14C52.41 2064.74 65.4414 2064.74 77.7488 2060.42C77.7488 2059.7 77.7489 2059.7 77.0249 2058.98C79.1968 2058.25 79.9208 2058.25 80.6447 2058.25Z" fill="white"/>
<path d="M251.501 1899.62C247.881 1889.53 238.469 1880.87 227.61 1878.71C226.886 1878.71 226.162 1878.71 226.162 1877.99C225.438 1876.55 224.714 1875.11 223.99 1874.38C222.542 1872.22 220.37 1871.5 217.474 1871.5C215.302 1871.5 213.854 1872.94 211.683 1872.94C210.235 1872.94 208.787 1872.22 207.339 1872.22C203.719 1871.5 200.823 1873.66 197.927 1875.83C195.755 1877.27 193.583 1877.99 191.411 1879.43C187.068 1881.6 182.724 1883.76 179.104 1886.64C177.656 1887.36 176.932 1888.81 176.208 1890.25C176.208 1890.97 175.484 1890.97 175.484 1891.69C174.036 1891.69 173.312 1891.69 171.864 1890.97C171.14 1890.25 169.692 1890.25 168.968 1889.53C167.521 1888.81 166.797 1888.08 165.349 1888.08C160.281 1885.92 155.213 1884.48 150.145 1884.48C149.421 1884.48 148.697 1884.48 147.973 1885.2C147.249 1885.92 147.249 1885.92 147.973 1886.64C147.973 1887.36 148.697 1887.36 148.697 1888.08C150.145 1889.53 150.869 1890.25 152.317 1891.69C153.041 1893.13 153.765 1894.57 153.765 1896.02C153.765 1897.46 153.041 1898.9 152.317 1900.34C151.593 1901.78 150.145 1902.51 148.697 1903.23C147.973 1903.95 147.249 1904.67 147.249 1905.39C147.249 1906.11 146.526 1906.83 147.249 1907.55C147.973 1908.27 149.421 1908.27 150.869 1908.27C155.937 1906.83 161.005 1904.67 166.073 1902.51C166.797 1901.78 168.245 1901.06 168.968 1900.34C170.416 1899.62 171.864 1900.34 172.588 1900.34C174.76 1901.06 176.932 1902.51 179.104 1903.95C179.828 1904.67 180.552 1904.67 180.552 1905.39L179.828 1906.11C179.828 1906.11 179.104 1906.11 178.38 1906.83C182 1911.16 186.344 1914.76 191.411 1916.21C192.859 1916.21 193.583 1916.93 195.031 1916.93C196.479 1916.93 196.479 1914.04 197.203 1911.88C202.995 1913.32 208.787 1914.04 215.302 1914.04C228.334 1914.04 240.641 1909.72 250.777 1901.78C250.777 1901.06 250.053 1901.06 250.053 1900.34C250.777 1900.34 250.777 1899.62 251.501 1899.62Z" fill="white"/>
<path d="M140.01 1962.35C137.838 1955.14 132.77 1950.1 125.53 1947.21C124.806 1947.21 124.806 1947.21 124.082 1947.21C124.082 1946.49 123.358 1945.77 122.634 1945.05C121.91 1943.61 120.462 1942.16 119.015 1942.16C117.567 1942.16 116.843 1942.89 115.395 1942.89C114.671 1942.89 113.223 1942.16 112.499 1942.16C110.327 1941.44 108.155 1942.89 105.983 1943.61C104.535 1944.33 103.087 1945.05 101.639 1945.77C98.7435 1947.21 95.8476 1947.93 93.6757 1950.1C92.9517 1950.82 92.2277 1951.54 91.5038 1952.26L90.7798 1952.98C90.0559 1952.98 89.3319 1952.98 88.6079 1952.26C87.8839 1951.54 87.16 1951.54 87.16 1951.54C86.436 1950.82 85.712 1950.82 84.9881 1950.1C82.0922 1948.65 78.4724 1947.21 75.5765 1947.21C74.8525 1947.21 74.8525 1947.21 74.1286 1947.21V1947.93C74.1286 1947.93 74.1286 1948.65 74.8526 1948.65C75.5765 1949.37 76.3005 1950.1 77.0245 1950.82C77.7484 1951.54 77.7484 1952.98 77.7484 1953.7C77.7484 1954.42 77.0245 1955.86 76.3005 1956.59C75.5765 1957.31 74.8525 1958.03 74.1286 1958.75C73.4046 1958.75 73.4046 1959.47 72.6807 1960.19C72.6807 1960.91 72.6807 1961.63 72.6807 1961.63C73.4046 1962.35 74.1286 1962.35 74.8526 1962.35C78.4724 1961.63 81.3682 1960.91 84.9881 1959.47C85.712 1959.47 86.436 1958.75 87.16 1958.75C87.884 1958.75 88.6079 1958.75 89.3319 1958.75C90.7798 1959.47 92.2278 1960.19 92.9517 1961.63L93.6757 1962.35L92.9517 1963.07C92.2278 1963.07 92.2277 1963.8 91.5038 1963.8C93.6757 1966.68 96.5715 1968.84 99.4674 1970.29C100.191 1970.29 100.915 1971.01 101.639 1971.01C102.363 1971.01 103.087 1969.56 103.087 1968.12C106.707 1969.56 110.327 1970.29 114.671 1970.29C122.634 1971.01 131.322 1968.84 137.838 1963.8C137.838 1963.8 137.838 1963.07 137.114 1963.07C138.562 1963.07 139.286 1962.35 140.01 1962.35Z" fill="white"/>
<path d="M319.553 1986.15C315.933 1979.66 309.417 1976.05 302.178 1975.33C301.454 1975.33 301.454 1975.33 300.73 1975.33C300.006 1974.61 299.282 1973.89 299.282 1973.17C297.834 1972.45 296.386 1971.73 294.938 1971.73C293.49 1971.73 292.766 1973.17 291.318 1973.17C290.594 1973.17 289.146 1973.17 288.422 1973.17C286.25 1973.17 284.802 1975.33 282.631 1976.77C281.183 1977.5 279.735 1978.94 279.011 1979.66C276.839 1981.82 273.943 1983.26 272.495 1985.43C271.771 1986.15 271.047 1986.87 271.047 1987.59C271.047 1987.59 271.047 1988.31 270.323 1988.31C269.599 1988.31 268.875 1988.31 268.151 1988.31C267.427 1988.31 266.703 1987.59 265.979 1987.59C265.255 1987.59 264.531 1986.87 263.083 1986.87C259.464 1986.15 256.568 1986.15 252.948 1986.15C252.224 1986.15 252.224 1986.15 251.5 1986.87V1987.59L252.224 1988.31C252.948 1989.03 253.672 1989.03 255.12 1989.75C255.844 1990.48 256.568 1991.2 256.568 1992.64C256.568 1993.36 256.568 1994.8 255.844 1995.52C255.12 1996.24 254.396 1996.96 253.672 1997.69C253.672 1998.41 252.948 1998.41 252.948 1999.13C252.948 1999.85 252.948 2000.57 253.672 2000.57C254.396 2001.29 255.12 2000.57 255.844 2000.57C258.74 1999.13 262.36 1997.69 264.531 1995.52C265.255 1994.8 265.979 1994.8 265.979 1994.08C266.703 1993.36 267.427 1993.36 268.151 1994.08C269.599 1994.08 271.047 1994.8 272.495 1995.52C273.219 1995.52 273.219 1995.52 273.943 1996.24C273.943 1996.24 273.943 1996.96 273.219 1996.96C273.219 1997.69 272.495 1997.69 272.495 1998.41C275.391 2000.57 278.287 2002.73 281.907 2002.73C282.631 2002.73 283.355 2002.73 284.078 2002.73C284.802 2002.73 284.802 2000.57 284.802 1999.13C288.422 1999.85 292.766 1999.13 296.386 1998.41C304.35 1996.96 311.589 1992.64 317.381 1986.87L316.657 1986.15C318.829 1986.87 319.553 1986.87 319.553 1986.15Z" fill="white"/>
<path d="M487.514 1808.77C481.723 1805.16 473.759 1804.44 467.243 1807.33C467.243 1807.33 466.519 1807.33 466.519 1808.05C465.795 1807.33 465.071 1807.33 463.623 1807.33C462.176 1807.33 460.728 1807.33 459.28 1808.05C458.556 1808.77 457.832 1810.21 457.108 1810.93C456.384 1811.65 455.66 1811.65 454.212 1812.37C452.04 1813.82 451.316 1815.98 450.592 1818.14C449.868 1819.58 449.144 1821.03 448.42 1822.47C446.972 1825.35 445.524 1828.24 445.524 1831.12C445.524 1831.84 445.524 1833.28 445.524 1834.01V1834.73C444.8 1835.45 444.076 1835.45 443.352 1835.45C442.628 1835.45 441.904 1835.45 441.181 1836.17C440.457 1836.17 439.733 1836.89 439.009 1836.89C435.389 1837.61 432.493 1839.05 429.597 1841.22L428.873 1841.94C428.873 1841.94 428.873 1842.66 429.597 1842.66H430.321C431.045 1842.66 432.493 1842.66 433.217 1842.66C433.941 1842.66 435.389 1843.38 436.113 1844.1C436.837 1844.82 436.837 1846.26 436.837 1846.98C436.837 1847.71 436.837 1849.15 436.113 1849.87C436.113 1850.59 436.113 1851.31 436.113 1851.31C436.113 1852.03 436.837 1852.03 436.837 1852.75C437.561 1852.75 438.285 1852.03 439.009 1851.31C441.18 1848.43 442.628 1845.54 444.076 1842.66C444.076 1841.94 444.8 1841.22 444.8 1840.49C445.524 1839.77 446.248 1839.05 446.972 1839.05C448.42 1838.33 449.868 1838.33 451.316 1838.33C452.04 1838.33 452.04 1838.33 452.764 1838.33V1839.05C452.764 1839.77 452.764 1839.77 452.764 1840.49C456.384 1841.22 460.004 1841.22 462.9 1839.77C463.623 1839.77 464.347 1839.05 465.071 1838.33C465.795 1837.61 465.071 1836.17 464.347 1834.73C467.967 1833.28 471.587 1831.12 474.483 1828.96C480.999 1823.91 485.342 1816.7 487.514 1808.77H486.79C486.79 1809.49 487.514 1808.77 487.514 1808.77Z" fill="white"/>
<path d="M380.367 1835.45C376.023 1829.68 368.059 1827.52 361.544 1828.24C360.82 1828.24 360.82 1828.24 360.096 1828.24C359.372 1827.52 358.648 1826.79 357.924 1826.07C356.476 1825.35 355.028 1824.63 353.58 1825.35C352.132 1826.79 351.408 1827.52 350.684 1828.24C349.96 1828.24 348.512 1828.24 347.788 1828.96C345.616 1829.68 344.168 1831.12 342.72 1833.28C341.996 1834.73 340.548 1835.45 339.101 1836.89C336.929 1839.05 334.757 1841.22 333.309 1844.1C332.585 1844.82 332.585 1846.26 331.861 1846.98V1847.71C331.137 1847.71 330.413 1848.43 329.689 1848.43C328.965 1848.43 328.241 1848.43 327.517 1848.43C326.793 1848.43 326.069 1848.43 324.621 1848.43C321.001 1848.43 318.106 1848.43 314.486 1849.87C313.762 1849.87 313.762 1849.87 313.762 1850.59V1851.31L314.486 1852.03C315.21 1852.75 316.658 1852.75 317.382 1853.47C318.106 1854.19 318.83 1854.92 319.553 1855.64C319.553 1856.36 319.553 1857.8 319.553 1858.52C319.553 1859.24 318.83 1859.96 318.106 1861.41C318.106 1862.13 317.382 1862.13 317.382 1862.85C317.382 1863.57 317.382 1864.29 318.106 1864.29C318.83 1865.01 319.553 1864.29 320.277 1863.57C323.173 1861.41 326.069 1859.24 328.241 1856.36C328.965 1855.64 328.965 1854.92 329.689 1854.92C330.413 1854.19 331.137 1854.19 331.861 1854.19C333.309 1854.19 334.757 1854.92 336.205 1854.92C336.929 1854.92 336.929 1854.92 337.653 1854.92V1855.64C337.653 1856.36 336.929 1856.36 336.929 1857.08C339.825 1859.24 343.444 1859.96 347.064 1859.96C347.788 1859.96 348.512 1859.96 349.236 1859.24C349.96 1858.52 349.96 1857.08 349.96 1855.64C353.58 1855.64 357.924 1854.19 361.544 1852.75C369.507 1849.87 376.023 1844.1 380.367 1837.61C380.367 1837.61 379.643 1837.61 379.643 1836.89C379.643 1836.17 380.367 1836.17 380.367 1835.45Z" fill="white"/>
<path d="M19.831 1889.53C19.107 1882.32 14.7632 1875.83 8.24752 1872.22L7.52357 1871.5C7.52357 1870.78 7.52355 1869.34 6.79958 1868.62C6.07562 1867.17 4.62768 1865.73 3.17975 1865.73C1.73182 1865.73 1.00785 1865.73 -0.440083 1865.73C-1.16405 1865.73 -1.888 1865.01 -3.33593 1864.29C-5.50783 1863.57 -7.67974 1864.29 -9.85164 1865.01C-11.2996 1865.73 -12.7475 1865.73 -14.9194 1866.45C-17.8153 1867.17 -20.7112 1867.89 -23.607 1869.34C-24.331 1870.06 -25.0549 1870.06 -25.7789 1870.78L-26.5029 1871.5C-27.2268 1871.5 -27.9508 1870.78 -28.6748 1870.78C-28.6748 1870.06 -29.3987 1870.06 -30.1227 1869.34C-30.8467 1868.62 -31.5706 1867.89 -32.2946 1867.89C-35.1905 1865.73 -38.0863 1864.29 -40.9822 1862.85C-41.7062 1862.85 -41.7062 1862.85 -42.4301 1862.85L-43.1541 1863.57C-43.1541 1863.57 -43.1541 1864.29 -42.4301 1864.29C-41.7062 1865.01 -40.9822 1865.73 -40.9822 1867.17C-40.2582 1867.89 -40.2582 1869.34 -40.2582 1870.06C-40.2582 1870.78 -40.9822 1871.5 -42.4301 1872.22C-43.1541 1872.94 -43.8781 1872.94 -45.326 1873.66C-46.05 1873.66 -46.05 1874.38 -46.7739 1874.38C-46.7739 1875.11 -47.4979 1875.11 -46.7739 1875.83C-46.7739 1876.55 -45.326 1876.55 -44.602 1876.55C-40.9822 1876.55 -37.3624 1876.55 -34.4665 1875.11C-33.7425 1875.11 -33.0186 1874.38 -32.2946 1874.38C-31.5706 1874.38 -30.8467 1874.38 -30.1227 1875.11C-28.6748 1875.83 -27.9508 1877.27 -27.2268 1878.71L-26.5029 1879.43C-26.5029 1879.43 -27.2268 1879.43 -27.2268 1880.15C-27.9508 1880.15 -27.9508 1880.87 -28.6748 1880.87C-27.2268 1883.76 -25.0549 1887.36 -22.1591 1888.81C-21.4351 1889.53 -20.7112 1889.53 -19.9872 1889.53C-19.2632 1889.53 -18.5392 1888.08 -17.8153 1886.64C-14.1954 1888.81 -10.5756 1890.25 -6.95577 1890.97C1.00787 1893.13 9.69546 1892.41 16.9351 1888.81V1888.08C19.107 1890.25 19.831 1889.53 19.831 1889.53Z" fill="white"/>
<path d="M74.1288 1927.74C73.4049 1920.53 69.0611 1914.04 62.5454 1910.44L61.8214 1909.72C61.8214 1909 61.8214 1907.55 61.0974 1906.83C60.3735 1905.39 58.9255 1903.95 57.4776 1903.95C56.0297 1903.95 55.3057 1903.95 53.8578 1903.95C53.1338 1903.95 52.4098 1903.23 50.9619 1902.51C48.79 1901.78 46.6181 1902.51 44.4462 1903.23C42.9983 1903.95 41.5503 1903.95 39.3784 1904.67C36.4826 1905.39 33.5867 1906.11 30.6908 1907.55C29.9669 1908.27 29.2429 1908.27 28.5189 1909L27.795 1909.72C27.071 1909.72 26.347 1909 25.6231 1909C25.6231 1908.27 24.8991 1908.27 24.1751 1907.55C23.4512 1906.83 22.7272 1906.11 22.0032 1906.11C19.1074 1903.95 16.2115 1902.51 13.3156 1901.06C12.5917 1901.06 12.5917 1901.06 11.8677 1901.06L11.1437 1901.78C11.1437 1901.78 11.1437 1902.51 11.8677 1902.51C12.5917 1903.23 13.3156 1903.95 13.3156 1905.39C14.0396 1906.11 14.0396 1907.55 14.0396 1908.27C14.0396 1909 13.3156 1909.72 11.8677 1910.44C11.1437 1911.16 10.4198 1911.16 8.97182 1911.88C8.24786 1911.88 8.24788 1912.6 7.52391 1912.6C7.52391 1913.32 6.79994 1913.32 7.52391 1914.04C7.52391 1914.76 8.97184 1914.76 9.69581 1914.76C13.3156 1914.76 16.9355 1914.76 19.8313 1913.32C20.5553 1913.32 21.2793 1912.6 22.0032 1912.6C22.7272 1912.6 23.4512 1912.6 24.1751 1913.32C25.6231 1914.04 26.347 1915.48 27.071 1916.93L27.795 1917.65C27.795 1917.65 27.071 1917.65 27.071 1918.37C26.347 1918.37 26.347 1919.09 25.6231 1919.09C27.071 1921.97 29.2429 1925.58 32.1388 1927.02C32.8627 1927.74 33.5867 1927.74 34.3107 1927.74C35.0346 1927.74 35.7586 1926.3 36.4826 1924.86C40.1024 1927.02 43.7222 1928.46 47.3421 1929.19C55.3057 1931.35 63.9933 1930.63 71.233 1927.02V1926.3C73.4049 1927.74 74.1288 1927.74 74.1288 1927.74Z" fill="white"/>
<path d="M118.291 2004.9C116.843 1997.69 112.499 1991.92 105.983 1988.31C105.983 1988.31 105.259 1988.31 105.259 1987.59C105.259 1986.87 104.535 1986.15 104.535 1984.71C103.811 1983.26 102.363 1981.82 100.915 1981.82C99.4675 1981.82 98.7435 1982.54 97.2956 1981.82C96.5716 1981.82 95.8477 1981.1 94.3998 1980.38C92.2279 1979.66 90.0559 1980.38 87.884 1981.1C86.4361 1981.82 84.9882 1981.82 83.5403 1982.54C80.6444 1983.26 77.7485 1983.99 74.8526 1985.43C74.1287 1986.15 73.4047 1986.87 72.6807 1986.87L71.9568 1987.59C71.2328 1987.59 70.5088 1986.87 69.7849 1986.87C69.0609 1986.15 68.3369 1986.15 68.3369 1985.43C67.613 1984.71 66.889 1984.71 66.165 1983.99C63.2692 1981.82 60.3733 1980.38 56.7535 1979.66C56.0295 1979.66 56.0295 1979.66 55.3055 1979.66C55.3055 1979.66 54.5816 1980.38 55.3055 1980.38C55.3055 1980.38 55.3055 1981.1 56.0295 1981.1C56.7535 1981.82 57.4774 1982.54 57.4774 1983.99C58.2014 1984.71 58.2014 1986.15 58.2014 1986.87C58.2014 1987.59 57.4774 1989.03 56.7535 1989.03C56.0295 1989.75 55.3055 1989.75 53.8576 1990.48C53.1336 1990.48 53.1336 1991.2 52.4097 1991.2C52.4097 1991.92 51.6857 1992.64 52.4097 1992.64C53.1336 1993.36 53.8576 1993.36 54.5816 1993.36C58.2014 1993.36 61.8212 1992.64 64.7171 1991.2C65.4411 1991.2 66.165 1990.48 66.889 1990.48C67.613 1990.48 68.3369 1990.48 69.0609 1991.2C70.5088 1991.92 71.2328 1993.36 72.6807 1994.08L73.4047 1994.8C73.4047 1994.8 72.6807 1994.8 72.6807 1995.52C71.9568 1995.52 71.9568 1996.24 71.2328 1996.24C72.6807 1999.13 75.5766 2002.01 78.4725 2003.45C79.1964 2003.45 79.9204 2004.18 80.6444 2004.18C81.3683 2004.18 82.0923 2002.73 82.8163 2001.29C86.4361 2002.73 90.0559 2004.18 93.6758 2004.9C101.639 2006.34 110.327 2004.9 117.567 2001.29C117.567 2001.29 117.567 2000.57 116.843 2000.57C116.843 2005.62 117.567 2005.62 118.291 2004.9Z" fill="white"/>
<path d="M32.8628 2107.29C32.1388 2101.52 27.795 2095.75 22.7272 2093.59C22.7272 2093.59 22.0033 2093.59 22.0033 2092.87C22.0033 2092.14 21.2793 2091.42 21.2793 2090.7C20.5553 2089.26 19.8314 2088.54 18.3834 2088.54C17.6595 2088.54 16.2115 2088.54 15.4876 2088.54C14.7636 2088.54 14.0396 2087.82 13.3157 2087.82C11.8677 2087.1 9.69583 2087.82 8.24789 2088.54C6.79996 2089.26 5.35204 2089.26 3.90411 2089.98C1.73221 2090.7 -1.16366 2091.42 -3.33556 2092.87C-4.05953 2093.59 -4.78351 2093.59 -5.50748 2094.31L-6.23144 2095.03C-6.9554 2095.03 -7.67937 2094.31 -7.67937 2094.31C-7.67937 2093.59 -8.40335 2093.59 -9.12731 2093.59C-9.85128 2092.87 -10.5752 2092.87 -11.2992 2092.14C-13.4711 2090.7 -16.367 2089.26 -19.2628 2088.54H-19.9868V2089.26C-19.9868 2089.26 -19.9868 2089.98 -19.2628 2089.98C-18.5389 2090.7 -18.5389 2091.42 -17.8149 2092.14C-17.0909 2092.87 -17.0909 2093.59 -17.0909 2094.31C-17.0909 2095.03 -17.8149 2095.75 -18.5389 2096.47C-19.2628 2097.19 -19.9868 2097.19 -20.7108 2097.91C-21.4347 2097.91 -21.4347 2098.63 -22.1587 2098.63C-22.1587 2099.35 -22.8827 2099.35 -22.1587 2100.08C-22.1587 2100.8 -20.7108 2100.8 -19.9868 2100.8C-17.0909 2100.8 -14.1951 2100.08 -11.2992 2099.35C-10.5752 2099.35 -9.85127 2098.63 -9.85127 2098.63C-9.1273 2098.63 -8.40334 2098.63 -7.67937 2099.35C-6.23144 2100.08 -5.50746 2100.8 -4.7835 2102.24L-4.05954 2102.96C-4.05954 2102.96 -4.7835 2102.96 -4.7835 2103.68L-5.50748 2104.4C-4.05955 2107.29 -1.88763 2109.45 0.284273 2110.89C1.00824 2110.89 1.7322 2111.61 2.45617 2111.61C3.18013 2111.61 3.90411 2110.17 3.90411 2109.45C6.79997 2110.89 9.69583 2112.33 13.3157 2112.33C19.8314 2113.78 27.071 2112.33 33.5867 2109.45V2108.73C32.1388 2108.01 32.8628 2107.29 32.8628 2107.29Z" fill="white"/>
<path d="M512.853 1947.93C507.785 1944.33 501.27 1943.61 495.478 1945.77C495.478 1945.77 494.754 1945.77 494.754 1946.49C494.03 1945.77 493.306 1945.77 492.582 1945.77C491.134 1945.77 489.686 1945.77 488.962 1946.49C488.238 1947.21 487.514 1947.93 486.79 1948.65C486.066 1949.37 485.342 1949.37 484.618 1949.37C483.17 1950.1 482.446 1952.26 481.723 1953.7C480.999 1955.14 480.275 1955.86 479.551 1957.31C478.103 1959.47 477.379 1961.63 476.655 1964.52C476.655 1965.24 476.655 1965.96 476.655 1966.68V1967.4C475.931 1968.12 475.207 1968.12 475.207 1968.12C474.483 1968.12 473.759 1968.12 473.759 1968.12C473.035 1968.12 472.311 1968.12 471.587 1968.84C468.691 1969.56 465.795 1970.29 463.623 1971.73L462.899 1972.45C462.899 1972.45 462.899 1973.17 463.623 1973.17H464.347C465.071 1973.17 465.795 1973.17 467.243 1973.89C467.967 1973.89 468.691 1974.61 469.415 1975.33C470.139 1976.05 470.139 1976.78 470.139 1977.5C470.139 1978.22 470.139 1978.94 469.415 1979.66C469.415 1980.38 469.415 1980.38 469.415 1981.1C469.415 1981.82 470.139 1981.82 470.139 1981.82C470.863 1981.82 471.587 1981.1 472.311 1981.1C474.483 1978.94 475.931 1976.05 477.379 1973.89C477.379 1973.17 478.103 1972.45 478.103 1972.45C478.827 1971.73 479.551 1971.73 479.551 1971.01C480.999 1970.29 482.446 1971.01 483.17 1971.01C483.894 1971.01 483.894 1971.01 484.618 1971.01V1971.73C484.618 1972.45 484.618 1972.45 484.618 1973.17C487.514 1973.89 490.41 1973.89 493.306 1973.17C494.03 1973.17 494.754 1972.45 494.754 1972.45C495.478 1971.73 494.754 1971.01 494.03 1969.56C496.926 1968.12 499.822 1966.68 502.718 1965.24C508.509 1960.91 512.129 1955.14 514.301 1948.65H513.577C512.853 1948.65 512.853 1947.93 512.853 1947.93Z" fill="white"/>
</g>
<defs>
<linearGradient id="paint0_linear" x1="359.085" y1="813.145" x2="1121.04" y2="-267.155" gradientUnits="userSpaceOnUse">
<stop stop-color="#253A80"/>
<stop offset="1" stop-color="#1E6DB5"/>
</linearGradient>
<linearGradient id="paint1_linear" x1="359.085" y1="813.145" x2="1121.04" y2="-267.155" gradientUnits="userSpaceOnUse">
<stop stop-color="#253A80"/>
<stop offset="1" stop-color="#1E6DB5"/>
</linearGradient>
<radialGradient id="paint2_radial" cx="0" cy="0" r="1" gradientUnits="userSpaceOnUse" gradientTransform="translate(967 386) rotate(90) scale(332 635)">
<stop stop-color="#B1DCF5"/>
<stop offset="1" stop-color="#B1DCF5" stop-opacity="0"/>
</radialGradient>
<clipPath id="clip0">
<rect width="1920" height="2113" fill="white"/>
</clipPath>
</defs>
</svg>
