<svg width="1920" height="379" viewBox="0 0 1920 379" fill="none" xmlns="http://www.w3.org/2000/svg">
<mask id="mask0" mask-type="alpha" maskUnits="userSpaceOnUse" x="-1" y="0" width="1921" height="380">
<path d="M1920 379.564H-1V36.3191C301.434 63.7155 679.499 -5.19635 983.5 0.315521C1291.96 5.9082 1588.2 88.863 1920 37.0692V379.564Z" fill="#F9F9F9"/>
</mask>
<g mask="url(#mask0)">
<rect y="-528.686" width="1920" height="902" fill="url(#paint0_linear)"/>
<g opacity="0.2">
<path d="M605.688 100.465C609.694 100.465 612.942 97.22 612.942 93.2173C612.942 89.2146 609.694 85.9697 605.688 85.9697C601.681 85.9697 598.433 89.2146 598.433 93.2173C598.433 97.22 601.681 100.465 605.688 100.465Z" fill="#B1DDF6"/>
<path d="M571.052 130.624C571.052 133.429 568.946 135.534 566.138 135.534C563.329 135.534 561.223 133.429 561.223 130.624C561.223 127.818 563.329 125.714 566.138 125.714C568.712 125.714 571.052 127.818 571.052 130.624Z" fill="#B1DDF6"/>
<path d="M605.688 149.094C605.688 150.964 604.05 152.6 602.177 152.6C600.305 152.6 598.667 150.964 598.667 149.094C598.667 147.223 600.305 145.587 602.177 145.587C604.05 145.353 605.688 146.989 605.688 149.094Z" fill="#B1DDF6"/>
<path d="M614.346 175.044C616.414 175.044 618.091 173.37 618.091 171.304C618.091 169.238 616.414 167.563 614.346 167.563C612.278 167.563 610.602 169.238 610.602 171.304C610.602 173.37 612.278 175.044 614.346 175.044Z" fill="#B1DDF6"/>
<path d="M1654.98 27.28C1657.69 27.28 1659.89 25.0818 1659.89 22.3703C1659.89 19.6588 1657.69 17.4607 1654.98 17.4607C1652.26 17.4607 1650.06 19.6588 1650.06 22.3703C1650.06 25.0818 1652.26 27.28 1654.98 27.28Z" fill="#B1DDF6"/>
<path d="M1681.19 4.60221C1681.19 7.6415 1678.61 10.2132 1675.57 10.2132C1672.53 10.2132 1669.96 7.6415 1669.96 4.60221C1669.96 1.56292 1672.53 -1.00879 1675.57 -1.00879C1678.61 -1.00879 1681.19 1.56292 1681.19 4.60221Z" fill="#B1DDF6"/>
<path d="M1347.62 152.327C1347.62 156.769 1343.87 160.51 1339.42 160.51C1334.98 160.51 1331.23 156.769 1331.23 152.327C1331.23 147.885 1334.98 144.145 1339.42 144.145C1343.87 144.145 1347.62 147.885 1347.62 152.327Z" fill="#B1DDF6"/>
<path d="M1375.7 178.746C1375.7 182.019 1373.12 184.59 1369.85 184.59C1366.57 184.59 1364 182.019 1364 178.746C1364 175.473 1366.57 172.901 1369.85 172.901C1373.12 172.901 1375.7 175.706 1375.7 178.746Z" fill="#B1DDF6"/>
<path d="M1342.7 178.746C1342.7 182.019 1340.13 184.59 1336.85 184.59C1333.57 184.59 1331 182.019 1331 178.746C1331 175.473 1333.57 172.901 1336.85 172.901C1340.13 173.135 1342.7 175.706 1342.7 178.746Z" fill="#B1DDF6"/>
</g>
<g opacity="0.3">
<path d="M1283.18 99.024C1283.9 98.3069 1284.26 97.5898 1284.97 97.2312C1285.33 96.8727 1286.05 96.5141 1286.05 95.797C1287.13 94.0042 1284.97 94.0042 1283.9 92.9286C1286.05 92.9286 1287.84 93.2871 1290 93.6457C1291.79 94.0042 1293.58 94.7213 1295.38 94.3628C1296.45 94.3628 1297.89 94.3628 1298.97 94.0042C1299.32 94.0042 1300.04 93.6457 1300.4 93.6457C1300.76 93.6457 1301.12 93.6457 1301.48 93.2871C1300.76 92.9286 1300.04 92.9286 1299.32 92.9286C1298.61 92.9286 1297.53 92.57 1296.81 91.8529C1295.02 90.7773 1294.3 88.6259 1294.3 86.8332C1294.3 85.0404 1294.3 83.2477 1294.66 81.4549C1295.02 80.3792 1295.38 79.6621 1296.1 78.945C1296.81 77.8694 1297.53 77.5108 1298.61 76.7937C1297.17 76.7937 1295.74 77.5108 1294.66 77.8694C1293.58 78.2279 1292.51 78.945 1291.79 79.3036C1290.71 80.0207 1290 80.7378 1289.28 81.4549C1287.13 82.5305 1285.69 84.6819 1283.9 86.1161C1283.54 86.4746 1283.18 86.8332 1282.82 87.1917C1282.1 88.2674 1281.39 88.2674 1280.67 88.2674C1281.03 87.9088 1281.39 87.9088 1281.75 87.5503C1281.75 87.5503 1281.75 87.1917 1282.1 86.8332C1282.1 86.4746 1282.46 86.4746 1282.46 86.1161C1282.82 85.399 1282.1 85.0404 1281.75 84.6819C1281.03 83.9648 1281.03 83.9648 1280.31 83.6062C1279.23 83.2476 1278.52 83.6062 1277.44 83.6062C1276.36 83.6062 1274.93 83.2477 1273.85 83.2477C1272.78 83.2477 1271.7 83.6062 1270.62 83.2477C1269.55 83.2477 1268.47 83.6062 1267.4 83.6062C1266.32 83.6062 1265.24 83.6062 1263.81 83.6062C1262.01 83.9648 1260.22 84.3233 1258.43 84.6819C1255.92 85.399 1253.76 86.1161 1251.61 87.5503C1250.18 88.2674 1248.38 89.343 1247.66 90.7773C1246.59 92.2115 1245.87 93.2871 1245.15 94.7213C1244.79 95.4384 1244.08 96.1555 1244.08 96.8726C1243 99.024 1243 100.458 1243 101.892C1243 102.609 1243 103.327 1243 104.402C1243 105.119 1243 105.836 1243.36 106.195C1243.36 106.554 1243.36 106.912 1243.72 107.271C1242.64 107.629 1243 109.781 1244.44 109.422C1244.79 111.215 1245.87 110.498 1246.95 110.498C1247.31 110.498 1247.31 110.498 1247.66 110.498C1248.02 110.498 1248.02 110.498 1248.74 110.856C1249.46 111.215 1249.82 110.856 1250.18 110.856C1250.89 110.856 1251.61 110.856 1252.33 110.856C1253.05 110.856 1253.76 110.856 1254.84 110.856C1256.27 110.856 1258.07 110.498 1259.5 110.139C1263.09 109.422 1266.68 108.346 1270.27 106.912C1272.06 106.195 1274.21 105.478 1276.01 104.761C1277.8 104.044 1279.59 102.968 1281.03 101.892C1281.39 100.817 1282.46 99.7411 1283.18 99.024Z" fill="#214487"/>
<path d="M1317.62 47.751C1317.98 47.0339 1318.34 46.3168 1318.7 45.9582C1319.06 45.5997 1319.42 45.2411 1319.42 44.524C1319.77 42.7312 1318.34 43.0898 1317.26 42.7312C1319.06 42.3727 1320.49 42.3727 1322.29 42.3727C1323.72 42.3727 1325.51 42.3727 1326.95 42.0141C1328.03 41.6556 1329.1 41.6556 1329.82 40.9385C1330.18 40.5799 1330.54 40.5799 1330.9 40.2214C1331.25 40.2214 1331.61 40.2214 1331.61 39.8628C1331.25 39.5043 1330.18 39.8628 1329.82 39.8628C1329.1 39.8628 1328.38 39.8628 1327.67 39.5043C1326.23 39.1457 1325.16 37.353 1324.8 35.9187C1324.44 34.4845 1324.08 33.0503 1324.08 31.6161C1324.08 30.899 1324.44 30.1819 1324.8 29.4648C1325.51 28.7477 1325.87 28.0306 1326.59 27.3135C1325.51 27.3135 1324.44 28.3891 1323.36 29.1062C1322.64 29.4648 1321.93 30.1819 1321.57 30.899C1320.85 31.6161 1320.49 32.3332 1319.77 33.0503C1318.34 34.4845 1317.62 36.2773 1316.19 37.7115C1315.83 38.0701 1315.83 38.4286 1315.47 38.7872C1315.11 39.5043 1314.39 39.5043 1313.68 39.8628C1314.03 39.5043 1314.39 39.5043 1314.39 39.1457C1314.39 39.1457 1314.39 38.7872 1314.39 38.4286C1314.39 38.0701 1314.39 38.0701 1314.75 38.0701C1314.75 37.353 1314.39 37.353 1314.03 36.9944C1313.32 36.6358 1313.32 36.6358 1312.6 36.6358C1311.88 36.6358 1311.16 36.9944 1310.45 37.353C1309.37 37.7115 1308.29 37.353 1307.58 37.7115C1306.86 38.0701 1305.78 38.4286 1305.06 38.4286C1303.99 38.4286 1303.27 39.1457 1302.55 39.1457C1301.48 39.5043 1300.76 39.5043 1299.68 39.8628C1298.25 40.2214 1296.81 40.9385 1295.38 41.6556C1293.58 42.7312 1291.79 43.8069 1290.36 45.2411C1289.28 45.9582 1288.2 47.3924 1287.49 48.4681C1286.77 49.5437 1286.41 50.978 1286.05 52.0536C1285.69 52.7707 1285.69 53.4878 1285.33 54.2049C1285.33 55.2806 1285.69 56.3562 1286.05 57.4319C1286.05 58.149 1286.41 58.8661 1286.41 59.2247C1286.41 59.5832 1286.77 60.3003 1287.13 60.6589C1287.13 61.0174 1287.13 61.376 1287.49 61.376C1286.77 61.7345 1287.49 63.5273 1288.56 63.1687C1288.92 64.603 1290 63.8858 1290.71 63.5273C1291.07 63.5273 1291.07 63.5273 1291.07 63.5273C1291.43 63.5273 1291.43 63.5273 1291.79 63.5273C1292.15 63.5273 1292.51 63.1687 1292.87 63.1687C1293.58 62.8102 1293.94 62.8102 1294.66 62.8102C1295.38 62.8102 1296.1 62.4516 1296.45 62.4516C1297.89 62.0931 1298.97 61.7345 1300.04 61.0174C1302.91 59.9418 1305.42 58.149 1308.29 56.7148C1309.73 55.9977 1311.16 54.922 1312.24 53.8464C1313.32 52.7707 1314.75 52.0536 1315.83 50.6194C1316.55 49.5437 1317.26 48.4681 1317.62 47.751Z" fill="#214487"/>
<path d="M1340.94 120.537C1341.3 119.82 1341.66 119.103 1342.02 118.744C1342.38 118.386 1342.73 118.027 1342.73 117.31C1343.09 115.517 1341.66 115.876 1340.58 115.517C1342.38 115.159 1343.81 115.159 1345.6 115.159C1347.04 115.159 1348.83 115.159 1350.27 114.8C1351.34 114.442 1352.06 114.442 1353.14 113.725C1353.5 113.366 1353.86 113.366 1354.21 113.008C1354.57 113.008 1354.93 113.008 1354.93 112.649C1354.57 112.29 1353.5 112.649 1353.14 112.649C1352.42 112.649 1351.7 112.649 1350.99 112.29C1349.55 111.932 1348.47 110.139 1348.12 108.705C1347.76 107.271 1347.4 105.836 1347.4 104.402C1347.4 103.685 1347.76 102.968 1348.12 102.251C1348.47 101.175 1349.19 100.817 1349.55 100.1C1348.47 100.1 1347.4 101.175 1346.32 101.892C1345.6 102.251 1344.89 102.968 1344.17 103.685C1343.45 104.402 1343.09 105.119 1342.38 105.836C1340.94 107.271 1340.22 109.063 1338.79 110.498C1338.43 110.856 1338.43 111.215 1338.07 111.573C1337.71 112.29 1336.99 112.29 1336.28 112.649C1336.64 112.29 1336.99 112.29 1336.99 111.932C1336.99 111.932 1336.99 111.573 1336.99 111.215C1336.99 110.856 1336.99 110.856 1337.35 110.856C1337.35 110.139 1336.99 110.139 1336.64 109.781C1335.92 109.422 1335.92 109.422 1335.2 109.422C1334.48 109.422 1333.77 109.781 1333.05 110.139C1331.97 110.498 1330.9 110.139 1330.18 110.498C1329.46 110.856 1328.38 111.215 1327.67 111.215C1326.59 111.215 1325.87 111.932 1325.16 111.932C1324.08 112.29 1323.36 112.29 1322.29 112.649C1320.85 113.008 1319.42 113.725 1317.98 114.442C1316.19 115.517 1314.39 116.593 1312.96 118.027C1311.88 118.744 1310.81 120.179 1310.09 121.254C1309.37 122.33 1309.01 123.764 1308.65 124.84C1308.29 125.557 1308.29 126.274 1307.94 126.991C1307.94 128.067 1308.29 129.142 1308.65 130.218C1308.65 130.935 1309.01 131.652 1309.01 132.011C1309.01 132.369 1309.37 133.086 1309.73 133.445C1309.73 133.804 1309.73 134.162 1310.09 134.162C1309.37 134.521 1310.09 136.313 1311.16 135.955C1311.52 137.389 1312.6 136.672 1313.32 136.313C1313.68 136.313 1313.68 136.313 1313.68 136.313C1314.03 136.313 1314.03 136.313 1314.39 136.313C1314.75 136.313 1315.11 135.955 1315.47 135.955C1316.19 135.596 1316.55 135.596 1317.26 135.596C1317.98 135.596 1318.7 135.238 1319.06 135.238C1320.49 134.879 1321.57 134.521 1322.64 133.804C1325.51 132.728 1328.03 130.935 1330.9 129.501C1332.33 128.784 1333.77 127.708 1334.84 126.633C1335.92 125.557 1337.35 124.84 1338.43 123.406C1339.86 121.971 1340.58 121.254 1340.94 120.537Z" fill="#214487"/>
<path d="M1363.54 36.6357C1363.9 36.2771 1363.9 35.9186 1363.9 35.9186C1363.9 35.56 1364.26 35.56 1364.26 35.2015C1364.62 34.4844 1363.9 34.4844 1363.54 34.4844C1364.26 34.4844 1364.98 34.1258 1366.05 34.4844C1366.77 34.4844 1367.49 34.4844 1368.21 34.4844C1368.56 34.4844 1368.92 34.1258 1369.64 34.1258L1370 33.7673C1370 33.7673 1370.36 33.7673 1370.36 33.4087C1370 33.4087 1369.64 33.4087 1369.64 33.4087C1369.28 33.4087 1368.92 33.4087 1368.56 33.4087C1367.85 33.0502 1367.49 32.3331 1367.13 31.616C1367.13 30.8988 1366.77 30.1817 1366.77 29.8232C1366.77 29.4646 1367.13 29.1061 1367.13 28.7475C1367.13 28.389 1367.49 28.0304 1367.85 27.6719C1367.49 27.6719 1366.77 28.0304 1366.41 28.389C1366.05 28.7475 1365.69 28.7475 1365.34 29.1061C1364.98 29.1061 1364.98 29.4646 1364.62 29.8232C1363.9 30.5403 1363.54 31.2574 1362.82 31.9745L1362.47 32.3331C1362.11 32.6916 1362.11 32.6916 1361.75 32.6916L1362.11 32.3331V31.9745C1362.11 31.9745 1362.11 31.9745 1362.11 31.616C1362.11 31.2574 1362.11 31.2574 1361.75 31.2574H1361.39C1361.03 31.2574 1360.67 31.2574 1360.31 31.616C1359.95 31.616 1359.24 31.616 1358.88 31.9745C1358.52 31.9745 1358.16 32.3331 1357.8 32.3331C1357.44 32.3331 1357.08 32.6916 1356.73 32.6916C1356.37 32.6916 1356.01 32.6916 1355.29 33.0502C1354.57 33.4087 1353.86 33.4087 1353.5 33.7673C1352.78 34.1258 1351.7 34.8429 1350.99 35.2015C1350.63 35.56 1349.91 36.2771 1349.91 36.6357C1349.55 37.3528 1349.55 37.7113 1349.19 38.4285C1349.19 38.787 1348.83 39.1456 1348.83 39.5041C1348.83 39.8627 1348.83 40.5798 1349.19 40.9383C1349.19 41.2969 1349.19 41.6554 1349.55 41.6554C1349.55 42.014 1349.55 42.014 1349.91 42.3725V42.7311C1349.55 43.0896 1349.91 43.8067 1350.27 43.4482C1350.63 44.1653 1350.99 43.8067 1351.34 43.4482C1351.34 43.4482 1351.34 43.4482 1351.7 43.4482C1352.06 43.4482 1352.06 43.4482 1352.06 43.4482C1352.42 43.4482 1352.42 43.4482 1352.42 43.4482C1352.78 43.4482 1353.14 43.4482 1353.14 43.4482C1353.5 43.4482 1353.86 43.4482 1353.86 43.0896C1354.57 43.0896 1354.93 42.7311 1355.65 42.3725C1357.08 41.6554 1358.16 40.9383 1359.24 40.2212C1359.95 39.8627 1360.67 39.5041 1361.03 38.787C1361.39 38.4285 1362.11 38.0699 1362.47 37.3528C1363.18 37.3528 1363.54 36.9942 1363.54 36.6357Z" fill="#214487"/>
</g>
<path opacity="0.8" d="M2033.02 -246.511C2027.8 -260.286 1986.1 -267.584 1971.21 -262.953C1960.91 -259.802 1954.67 -252.838 1942.54 -250.496C1927.36 -247.51 1924.55 -251.99 1911.85 -255.535C1898.84 -258.914 1892.21 -256.742 1878.99 -254.209C1882.64 -240.385 1897.94 -239.439 1909.33 -234.987C1898.22 -229.999 1885.02 -226.68 1874.73 -220.93C1881.14 -219.789 1892.48 -214.312 1891.01 -205.921C1889.13 -195.312 1868.35 -200.499 1860.63 -200.734C1836.85 -201.104 1789.52 -201.773 1775.35 -178.739C1786.22 -168.208 1803.06 -165.499 1815.2 -157.448C1811.88 -155.063 1809.48 -148.768 1806.41 -146.312C1829.05 -139.529 1830.82 -117.695 1809.87 -107.602C1803.44 -117.324 1783.15 -131.975 1777.29 -115.024C1760.92 -117.59 1748.89 -127.692 1753.48 -144.761C1730.27 -152.235 1741.83 -124.089 1734.78 -115.29C1726.44 -104.797 1708.38 -113.847 1711.34 -94.2543C1702.57 -92.7246 1697.42 -96.3454 1698.97 -104.975C1683.88 -111.833 1664.77 -100.93 1684.77 -90.5231C1670.87 -107.417 1647.95 -84.6656 1667.52 -78.0243C1652.34 -80.234 1598.49 -59.9947 1618.63 -39.6712C1625.21 -48.6132 1641.31 -52.1011 1642.79 -44.903C1626.97 -42.3688 1631.36 -35.3389 1622.88 -29.5663C1615.32 -24.2947 1607.32 -23.5758 1598.76 -20.1631C1581.96 -13.5046 1565 -1.95948 1562.77 17.6357C1573.71 20.1334 1574.94 9.07241 1580.71 1.96625C1588.97 -8.28761 1589.88 -6.97702 1600.29 -11.3918C1607.75 -14.6133 1629.45 -28.1154 1637.53 -21.2779C1650.24 -9.93747 1610.99 -6.36719 1604.89 -2.47888C1589.98 6.56242 1585.02 22.2257 1576.93 35.3876C1594.13 36.9051 1599.22 10.372 1617.64 7.83657C1636.06 5.30114 1652.03 17.8796 1632.21 31.1662C1623.73 36.9387 1613.91 35.0364 1604.64 38.235C1595.37 41.4335 1589.08 46.8237 1580.43 52.2864C1561.73 63.5702 1536.4 74.4281 1532.76 99.5779C1556.38 97.04 1570.29 70.5504 1594.47 66.1053C1603.24 64.5756 1626.21 61.5851 1615.95 78.5143C1609.8 88.6241 1584.16 84.0595 1580.07 102.058C1590.22 104.58 1596.6 94.542 1606.87 100.997C1603.23 113.156 1588.96 109.658 1579.4 116.409C1565.61 126.045 1568.76 133.743 1546.66 129.463C1527.5 125.801 1498.93 115.422 1509.6 91.079C1506.69 88.649 1502.16 84.6942 1499.42 82.574C1473.6 105.494 1468.54 110.216 1469.39 142.944C1469.72 151.358 1467.77 164.803 1471.02 175.647C1472.76 181.105 1480.29 180.244 1480.15 185.917C1479.89 198.05 1473.83 193.119 1467.73 199.605C1455.09 213.222 1453.13 213.676 1463.71 225.16C1470.22 232.046 1472.29 222.534 1475.04 237.646C1477.33 250.803 1413.56 254.632 1421.83 267.762C1429.77 280.273 1352.52 287.742 1362.08 299.179C1372.78 311.998 1371.59 324.633 1370.45 338.84C1373.05 338.839 1317.99 328.314 1375.17 336.097C1353.84 328.407 1337.19 334.589 1331.83 357.666C1315.79 353.121 1316 510.681 1298.81 509.95C1291.4 509.548 1282.52 514.94 1275.96 509.079C1270.45 504.052 1272.91 496.733 1274.12 490.081C1275 485.409 1280.57 464.215 1270.52 464.84C1264.39 465.343 1267.73 476.736 1260.84 478.05C1251.77 479.747 1255.24 464.68 1256.12 460.008C1258.05 448.374 1262.29 437.693 1266.6 426.774C1271.36 415.211 1279.29 404.337 1281.5 391.75C1282.58 385.576 1286.12 367.672 1277.11 366.532C1265.58 365.155 1262.87 392.402 1261.54 400.317C1260.35 407.755 1259.83 429.423 1251.13 433.312C1240.96 437.799 1247.29 415.794 1247.72 411.765C1249.43 398.249 1253.05 385.304 1256.98 372.191C1260.55 360.271 1270.89 340.505 1267.05 328.183C1262.94 315.003 1254.3 325.663 1252.18 333.601C1249.8 343.28 1248.92 353.149 1247.25 363.042C1245.49 374.986 1243.42 387.096 1241.19 398.896C1239 409.672 1237.05 430.911 1229.12 439.187C1217.99 451.182 1217.22 423.412 1218.84 417.142C1222.12 403.577 1227.55 390.655 1232.03 377.447C1233.48 373.466 1234.33 349.819 1224.97 357.666C1222.9 359.383 1221.9 370.516 1221.35 373.209C1219.28 385.32 1215.45 396.382 1214.4 408.539C1212.5 428.754 1202.05 447.185 1191.07 463.9C1182.35 477.396 1170.82 491.608 1157.6 501.936C1138.23 517.177 1124.98 521.522 1140.83 545.756C1153.63 565.44 1167.15 569.748 1189.17 579.463C1221.01 593.679 1251.66 610.136 1284.9 621.395C1316.31 631.845 1485.11 469.29 1516 480.622C1554.77 495.096 1587.21 521.183 1623.91 539.973C1705.47 581.554 1862.85 616.234 1925.98 528.627C1949.54 495.935 1963.56 455.191 1981.35 419.212C2014.72 352.047 2045.44 288.507 2054.62 212.796C2062.73 145.858 2059.85 72.25 2046.72 5.96526C2032.29 -67.2078 1996.17 -131.289 1981.49 -204.533" fill="#21458D"/>
<path d="M572.142 366.785C567.869 342.685 575.115 318.77 571.213 294.67C566.197 264.267 553.193 236.645 541.117 208.652C537.03 205.13 532.757 194.378 525.326 201.608C525.883 197.715 524.583 193.08 523.468 189.372C518.638 189.002 505.262 196.232 501.918 193.636C494.858 188.26 505.448 178.62 509.906 176.581C499.503 175.098 506.191 168.98 501.918 164.16C494.301 155.633 490.957 155.447 477.952 153.223C459.189 150.071 449.528 143.026 432.994 138.948C431.322 118 423.519 131.718 414.23 129.493C404.941 127.269 393.795 119.668 388.407 110.77C396.024 103.54 409.028 106.691 418.503 101.686C415.531 99.832 414.602 96.1243 409.214 95.012C428.349 83.7036 439.125 79.6251 419.246 65.5359C410.886 59.6037 399.368 54.5983 395.095 43.846C380.79 50.8906 378.561 29.5715 370.015 27.903C357.939 25.4931 354.224 38.6553 341.776 32.723C330.63 27.5323 325.8 8.06693 338.618 1.39311C348.836 -3.79764 358.497 4.17386 367.786 -7.6907C373.173 -14.5499 374.102 -24.5606 372.987 -32.9029C370.758 -32.5321 367.785 -33.6444 365.556 -33.2737C365.928 -39.3913 365.742 -46.0652 363.513 -51.6267C361.097 -51.9974 358.682 -52.1828 356.267 -51.6267C352.923 -40.8744 332.488 -40.1329 335.46 -52.3682C336.389 -56.0759 348.279 -53.6659 348.279 -61.2666C348.279 -66.8282 338.99 -69.0527 335.646 -70.5358C327.657 -74.4289 310.008 -81.2881 301.462 -82.0296C289.758 -82.9566 286.229 -71.6481 276.197 -74.0581C277.869 -89.445 261.52 -89.2596 265.05 -103.534C269.323 -120.96 248.701 -119.848 238.483 -122.258C243.499 -134.864 222.692 -140.426 213.775 -142.279C217.305 -143.948 219.906 -148.582 222.878 -150.436C216.747 -160.447 202.814 -159.335 192.596 -158.779C170.674 -157.852 -12.2774 -224.589 -33.2704 -219.398C-24.353 -206.607 -32.3415 -182.136 -28.6259 -167.676C-22.681 -144.503 -184.018 -30.8637 -172.5 -7.6907C-161.167 14.7407 11.3804 99.0898 19.3689 123.56C28.6578 152.48 142.998 146.92 149.5 176.581C157.488 213.102 164.734 234.05 148.571 265.751C127.021 308.389 139.84 358.998 162.69 402.378C184.426 443.534 253.346 400.71 298.862 391.255C328.029 385.138 355.524 372.717 385.435 370.678C417.76 368.453 448.971 380.132 481.296 380.318C512.507 380.688 542.975 376.239 574 376.239C573.443 373.088 572.7 369.936 572.142 366.785Z" fill="#214487"/>
<path d="M51.8011 -156.976C84.5874 -162.407 128.302 -162.407 162.868 -163.395C178.88 -163.889 200.737 -164.876 210.141 -155.33C205.312 -153.355 201.5 -148.746 195.654 -146.936C209.633 -145.125 242.419 -139.365 234.54 -126.527C250.552 -124.058 282.83 -125.045 276.222 -107.434C270.885 -92.9504 296.555 -93.115 293.759 -77.3144C309.517 -74.8455 315.108 -86.5314 333.407 -85.5439C346.878 -84.8855 374.581 -77.8082 387.035 -73.858C392.372 -72.2121 406.859 -69.9078 407.113 -64.3118C407.113 -56.5761 388.559 -59.0449 387.035 -55.2593C382.206 -42.7505 414.484 -43.5735 419.821 -54.4364C423.633 -54.9302 427.446 -54.9302 431.258 -54.4364C434.816 -48.8403 435.07 -42.0922 434.562 -35.8378C437.866 -36.1669 442.695 -35.0148 446.253 -35.344C448.032 -26.7853 446.762 -16.5807 438.12 -9.66798C423.379 2.34706 408.13 -5.88243 392.118 -0.450974C372.039 6.29721 379.664 26.2126 397.201 31.4794C417.025 37.4047 422.617 24.0729 441.678 26.5417C455.149 28.3522 458.707 50.0781 481.073 42.8361C487.681 53.8636 505.726 58.9659 518.942 64.8911C550.204 79.375 533.429 83.3252 503.185 95.011C511.572 96.1632 513.097 99.9488 517.926 101.924C503.184 107.191 482.598 103.899 470.652 111.305C479.04 120.358 496.322 127.929 511.063 130.398C525.805 132.702 538.004 118.712 540.546 140.109C566.47 144.223 581.719 151.63 611.201 154.757C631.534 156.897 636.871 157.226 648.817 165.949C655.679 170.887 645.004 177.306 661.524 178.623C654.408 180.762 638.142 190.473 649.071 196.069C654.408 198.703 675.503 191.461 683.128 191.79C684.653 195.575 686.94 200.349 685.924 204.299C700.156 195.082 707.019 214.668 715.406 212.364C737.263 206.768 716.422 199.69 710.069 192.613C703.969 185.535 697.361 178.293 705.494 172.697C720.489 162.164 725.318 174.179 732.18 179.116C736.755 182.408 737.009 197.386 752.513 191.296C768.016 185.042 748.192 176.483 744.888 170.722C739.805 161.999 742.092 170.593 740.059 161.54C738.026 152.488 733.451 146.892 730.147 138.168C726.335 127.799 731.418 116.936 730.401 106.732C729.639 99.3252 721.251 92.9062 720.235 85.8288C719.727 82.7016 720.743 81.7141 717.185 78.9161C714.389 76.6118 710.069 75.4597 709.052 72.3325C707.527 68.2177 713.373 65.5843 712.356 61.7988C720.489 61.305 719.218 72.9909 720.489 75.7889C723.031 82.2079 732.689 83.5246 730.655 90.7665C730.147 92.577 728.368 95.0459 729.893 97.0209C731.418 98.996 735.484 100.642 737.263 102.946C740.059 106.896 740.822 111.34 740.313 115.62C739.551 121.216 736.247 126.318 740.822 131.749C743.363 134.712 745.142 135.7 745.396 139.156C745.396 141.789 742.855 146.069 746.159 148.044C749.717 150.183 752.513 147.221 754.8 151.171C756.579 154.792 754.8 158.907 756.833 162.692C759.121 166.972 758.867 184.418 772.846 175.859C781.741 170.428 768.271 163.186 767.762 157.096C767.254 151.5 767.762 149.69 761.408 145.74C754.8 141.789 755.309 139.814 754.292 134.547C752.259 125.495 752.513 116.443 751.242 107.061C750.48 101.629 744.38 99.819 741.838 95.0459C740.822 93.2354 741.838 91.4249 741.33 89.6144C740.568 86.6518 740.822 87.9685 738.026 85.6643C735.993 83.8538 734.214 83.36 733.705 80.8911C733.451 79.2452 735.484 77.4348 734.976 75.9534C734.214 73.4846 730.401 68.7115 728.114 66.5718C724.81 63.4446 719.981 63.2801 719.981 58.8361C719.981 55.7089 722.776 52.2525 727.351 53.2401C751.5 42.3137 733.197 58.507 735.23 60.482C737.518 62.4571 739.551 63.7738 740.313 66.2427C741.076 68.7115 739.042 71.6741 740.313 73.9784C742.092 77.5993 748.192 78.0931 750.225 81.8787C752.513 86.4872 750.48 89.2852 754.546 93.2354C757.85 96.198 759.121 99.1606 759.883 103.111C760.9 108.871 761.408 109.53 767.254 113.645C776.658 120.064 763.95 126.153 768.525 132.901C770.304 135.535 773.608 136.029 774.37 139.32C775.387 143.271 771.32 148.044 775.641 151.006C776.912 151.829 779.962 151.665 781.487 152.817C783.012 153.969 782.249 155.944 783.52 157.261C785.807 160.059 788.857 163.351 791.907 165.984C793.941 167.959 796.99 169.111 798.261 171.251C800.294 174.543 796.99 178.822 799.532 182.114C801.819 185.076 809.698 173.191 813.256 169.57C815.798 167.101 814.019 178.987 812.24 176.847C811.223 175.695 809.444 175.53 808.682 174.214C807.411 171.909 810.207 168.453 808.682 166.149C805.886 162.198 801.311 162.363 800.04 157.59C798.769 152.817 799.532 145.41 796.228 141.131C792.161 135.864 783.774 137.181 788.095 130.103C792.67 122.368 811.223 98.1731 805.632 89.6144C799.786 80.7266 788.857 72.0033 799.786 62.9509C807.157 64.5968 807.411 67.8886 806.648 72.6617C805.632 78.9161 810.969 79.2453 815.036 84.5121C829.268 102.946 806.14 113.48 805.632 117.43C805.378 121.051 798.515 125.824 802.074 129.445C805.378 132.737 811.477 131.585 813.002 136.522C813.765 138.991 812.24 141.789 812.24 144.423C812.494 148.044 814.019 149.196 816.815 152.323C819.865 155.944 823.931 159.73 825.964 163.515C827.998 167.136 829.777 171.086 832.572 174.214C832.318 177.012 835.114 178.328 839.435 176.353C843.247 174.543 840.451 171.745 839.943 169.44C839.181 165.655 840.451 163.186 841.214 159.565C842.23 153.969 836.893 150.842 834.606 145.74C832.827 141.789 833.843 138.004 834.097 134.054C834.351 127.635 832.318 123.684 836.385 117.595C841.976 109.036 839.435 102.617 839.689 93.7291C839.943 87.9685 855.447 84.6767 857.988 79.4099C860.784 73.9784 857.988 71.345 854.43 66.4073C852.143 63.2801 850.109 59.8237 850.618 56.2027C850.872 54.5568 848.5 51.8137 857.988 47.1503C862.309 47.3149 860.275 54.3922 859.767 56.2027C859.259 58.0132 856.463 61.6342 857.226 63.2801C857.734 64.103 861.038 65.4197 862.055 66.2427C868.917 72.1679 868.409 75.2951 864.342 82.0433C861.038 87.1456 846.551 92.9062 848.839 98.5023C851.634 105.25 853.922 107.225 850.109 114.138C848.584 116.936 848.584 119.57 849.347 122.368C850.872 127.799 850.872 130.597 849.601 136.029C848.839 138.827 848.584 141.131 850.872 143.6C853.413 146.233 857.48 146.562 859.005 149.69C860.784 153.475 860.021 161.046 860.021 164.997C860.021 166.478 858.242 170.922 860.021 172.074C866.375 176.024 868.154 168.124 868.154 165.984C868.409 161.376 866.121 156.932 865.613 152.323C865.105 147.056 868.409 141.625 867.646 136.522C866.884 132.079 862.309 128.622 862.055 124.014C861.546 117.924 865.613 111.505 868.917 105.909C870.188 103.769 870.95 99.819 875.017 99.6544C880.1 105.25 870.696 111.999 871.459 117.924C872.475 125.001 875.779 131.256 875.779 138.004C875.779 144.917 884.166 151.994 882.387 159.071C881.625 162.363 877.812 165.819 879.592 169.44C880.1 170.757 882.896 171.251 883.404 172.403C883.912 173.226 882.641 175.695 883.404 176.189C887.216 179.151 891.283 174.214 892.808 171.909C894.333 176.847 896.112 166.642 892.808 171.909C891.537 167.63 895.603 164.832 897.637 160.717C900.178 155.615 899.416 149.36 899.162 143.929C898.908 139.156 893.824 135.206 897.637 130.926C902.72 125.166 909.328 121.709 911.361 114.797C912.886 109.859 913.395 103.769 908.82 99.3252C905.261 95.7042 901.957 95.0459 901.449 90.2728C892.045 85.4997 891.791 79.4099 896.62 77.7639C901.449 76.2826 901.703 78.5869 901.703 81.0558C901.703 83.8538 908.565 88.2977 910.09 90.9311C911.87 93.5645 916.444 95.5396 918.732 97.8439C925.594 104.427 927.119 114.797 922.29 122.203C917.715 129.281 914.665 133.231 913.903 141.296C913.649 145.081 915.173 147.715 916.444 151.336C918.223 155.779 916.698 157.919 914.411 162.199C913.394 164.009 911.615 166.972 911.87 168.947C912.378 171.415 913.394 158.084 914.665 159.894C917.207 164.174 914.919 166.313 913.14 170.593C911.107 175.201 915.682 180.633 910.853 184.418C908.311 186.229 905.007 170.722 902.974 173.191C900.941 175.495 902.466 176.483 901.703 178.623C900.687 181.585 893.062 187.017 899.416 188.333C905.77 189.65 908.311 183.231 914.411 185.042C918.478 186.358 917.461 191.296 922.036 192.284C924.832 192.942 926.865 191.296 929.406 192.119C931.948 192.777 934.744 196.234 937.539 197.386C939.827 197.057 939.827 194.588 941.86 193.765C943.639 192.942 945.927 193.93 947.452 193.436C951.518 191.79 952.026 189.979 954.06 187.346C957.11 183.231 956.093 184.054 961.43 184.548C966.005 184.877 965.242 186.029 970.326 184.712C970.58 185.7 971.596 186.358 971.596 187.346C974.9 185.535 981.763 180.762 985.067 186.029C983.288 181.585 993.962 178.623 998.029 181.75C995.487 175.989 1006.67 179.61 1009.21 182.244C1008.7 179.939 1009.47 176.318 1013.28 175.825C1011.5 172.039 1009.47 167.431 1018.36 167.76C1010.23 161.012 1028.78 152.947 1026.75 161.835C1028.02 160.353 1029.29 160.189 1031.07 161.176C1032.34 160.353 1033.86 160.518 1035.14 160.189C1035.64 161.835 1036.41 163.48 1036.41 165.291C1041.49 161.176 1046.06 160.518 1051.66 164.303C1052.16 164.139 1052.67 163.645 1052.93 163.48C1054.71 163.974 1055.72 165.456 1055.98 166.772C1055.72 161.999 1064.11 163.645 1067.16 166.114C1071.48 162.987 1078.6 157.884 1080.88 165.291C1084.19 165.291 1086.22 166.772 1085.71 168.912C1090.29 168.912 1098.68 165.62 1101.47 163.81C1110.11 158.214 1117.23 145.869 1132.99 147.515C1133.75 151.136 1130.7 154.922 1128.41 158.049C1133.75 155.251 1141.37 148.667 1149.25 148.667C1149.25 151.136 1147.22 153.605 1145.69 155.745C1150.01 154.428 1155.86 150.478 1160.94 150.642C1167.04 150.807 1165.26 153.605 1165.52 156.897C1178.99 154.263 1192.21 140.602 1207.96 142.413C1227.53 144.717 1188.39 173.356 1184.07 176.812C1188.39 175.495 1196.27 174.014 1196.53 178.787C1200.85 175.331 1209.49 173.191 1214.57 177.635C1215.84 176.812 1219.15 175.002 1221.18 175.166C1227.28 175.825 1223.97 181.421 1226.77 183.725C1229.57 186.029 1229.31 183.89 1234.14 184.548C1236.68 184.877 1237.95 184.548 1238.72 186.523C1245.07 183.231 1245.58 190.473 1249.14 192.119C1250.92 192.942 1253.97 192.119 1256 192.942C1258.54 193.93 1259.81 195.905 1260.07 197.715C1275.06 192.284 1258.54 183.56 1256.51 177.471C1254.73 172.039 1261.08 166.937 1260.07 161.341C1259.3 155.909 1253.2 151.63 1250.66 146.528C1248.63 142.413 1246.85 132.702 1253.2 129.246C1257.78 126.777 1259.56 128.094 1261.34 130.892C1264.89 136.652 1261.08 141.59 1267.18 147.186C1274.55 153.934 1276.59 157.555 1272.01 165.126C1270.23 168.089 1269.21 171.71 1269.72 175.002C1270.23 179.446 1273.54 180.104 1277.35 183.396C1281.41 187.017 1278.87 205.286 1292.34 198.044C1296.92 195.575 1296.92 188.004 1294.38 184.877C1292.09 181.75 1286.5 180.269 1283.7 177.306C1277.6 170.229 1285.99 164.468 1287.26 157.391C1287.77 154.099 1287.77 150.972 1285.48 148.174C1283.45 145.54 1280.14 144.059 1279.38 140.932C1278.62 137.64 1280.4 133.69 1285.73 132.867C1292.34 131.715 1292.34 134.842 1293.11 138.463C1294.38 145.376 1292.09 152.617 1293.61 159.366C1295.14 166.772 1300.73 171.216 1307.34 176.977C1312.68 181.75 1311.66 186.852 1311.66 192.448C1311.66 195.74 1310.9 198.373 1313.95 201.007C1319.03 205.286 1325.13 202.324 1326.91 197.88C1328.94 192.613 1319.79 186.523 1318.52 181.092C1317.76 177.635 1321.32 174.343 1320.3 171.216C1319.28 167.924 1312.68 166.278 1311.66 162.822C1310.64 159.859 1313.69 155.909 1318.52 154.757C1324.88 153.276 1325.13 156.403 1326.4 160.024C1327.93 164.303 1325.89 167.924 1326.91 172.039C1327.67 175.989 1332.5 177.141 1333.77 180.927C1334.79 184.219 1333.52 187.51 1335.04 190.802C1337.07 194.917 1337.58 196.069 1335.3 200.513C1333.52 203.969 1330.97 207.097 1335.04 210.388C1338.85 213.351 1343.68 213.351 1346.73 210.553C1352.32 205.451 1344.19 198.703 1345.46 193.436C1346.22 190.144 1348 186.688 1348.51 183.067C1349.02 180.598 1348.26 174.837 1349.78 172.697C1354.36 166.278 1358.93 174.673 1358.42 178.293C1357.41 185.206 1350.8 187.181 1357.15 193.93C1362.49 199.69 1357.41 205.78 1363.76 211.705C1370.12 217.466 1373.17 219.276 1370.62 226.189C1369.35 229.152 1369.1 231.127 1371.13 233.431C1373.42 235.9 1379.26 236.887 1373.93 241.002C1376.22 240.344 1380.54 238.369 1383.08 237.875C1385.87 237.381 1387.65 238.862 1390.19 237.546C1393.75 235.735 1391.46 231.127 1392.99 228.329C1397.06 229.481 1398.07 227.506 1401.38 226.683C1405.19 225.86 1408.49 226.847 1411.8 226.354C1427.81 223.391 1420.69 222.733 1425.52 216.149C1426.54 214.832 1419.17 209.566 1421.46 206.438C1424.51 201.83 1431.88 202.159 1435.43 198.867C1446.11 189.486 1455.26 183.067 1436.2 171.71C1443.06 170.229 1453.99 164.797 1460.85 164.797C1466.95 164.797 1474.83 173.027 1480.42 171.545C1499.74 166.608 1481.44 151.301 1477.37 145.869C1452.46 112.128 1466.95 72.9561 1455.77 37.2401C1453.73 31.1503 1445.85 27.8585 1448.65 19.9582C1476.86 22.2624 1474.83 69.0059 1477.88 82.5023C1480.42 94.1881 1489.57 105.709 1492.87 117.56C1497.19 134.348 1504.56 134.348 1519.56 147.515C1528.2 116.408 1511.68 100.113 1498.97 75.5895C1491.86 61.7639 1496.69 51.724 1492.36 38.063C1489.57 29.0106 1469.74 19.1352 1482.96 11.5641C1502.53 19.2998 1492.36 32.3024 1497.7 43.6591C1502.53 54.1928 1515.75 64.0682 1521.85 73.9436C1527.18 82.5023 1527.69 94.1881 1532.27 104.393C1537.6 116.408 1550.82 124.473 1550.06 139.286C1587.17 136.488 1557.18 102.088 1554.63 91.5547C1552.35 82.3377 1553.36 75.4249 1549.8 66.537C1547.26 60.2826 1537.86 41.1902 1559.21 52.0532C1565.31 55.1804 1570.39 71.1456 1571.66 75.5895C1574.97 88.0983 1574.71 93.8589 1582.08 104.393C1601.91 132.702 1604.19 107.52 1606.99 90.238C1617.41 87.7691 1629.36 87.9337 1636.22 93.2006C1656.04 85.9586 1630.12 68.3475 1653.25 69.0059C1653.5 67.1954 1652.99 64.8912 1654.01 63.0807C1657.57 65.0558 1666.72 67.5246 1671.04 70.981C1694.17 59.4597 1670.02 54.8512 1660.87 46.7863C1670.53 32.9608 1694.17 40.0381 1708.65 27.0355C1722.38 14.6913 1717.04 10.2474 1740.68 4.9805C1776.26 -2.91982 1798.88 8.76607 1826.84 21.6041C1840.05 27.6939 1880.72 50.7364 1899.78 48.2676C1922.15 45.4696 1913 25.225 1938.16 50.0781C1968.91 80.5272 1956.2 112.128 1940.95 144.388C1917.82 193.6 1967.13 320.17 1940.95 368.559C1925.96 396.21 1905.88 437.852 1854.79 443.283C1824.29 446.575 1792.27 444.929 1761.01 448.385C1707.89 454.31 1612.07 426.824 1559.46 423.368C1510.66 420.24 1464.92 429.787 1416.88 432.585C1361.98 435.876 1306.07 433.078 1251.93 439.333C1150.27 451.348 1056.74 448.385 954.06 448.385C901.449 448.385 842.01 420.946 789.908 418.313C729.164 415.186 670.2 422.098 609.71 421.769C559.133 421.44 510.081 409.59 458.995 411.894C411.722 413.869 371.565 439.922 333.407 411.894C261.989 421.605 36.1865 471.783 2.3836 429.813C-33.4526 385.538 -76.1926 283.721 -42.1355 240.269C-16.974 207.845 5.90023 181.511 -6.55348 144.313C-16.7198 114.029 -216.132 83.4151 -6.55357 26.5417C-19.0073 1.52411 -20.5322 -29.748 -38.3232 -52.7905C-57.385 -77.1498 -6.08696 -84.0626 -15.4908 -107.434C-21.3364 -122.247 -15.4908 -126.527 51.8011 -156.976Z" fill="url(#paint1_linear)"/>
<path d="M51.8011 -156.976C84.5874 -162.407 128.302 -162.407 162.868 -163.395C178.88 -163.889 200.737 -164.876 210.141 -155.33C205.312 -153.355 201.5 -148.746 195.654 -146.936C209.633 -145.125 242.419 -139.365 234.54 -126.527C250.552 -124.058 282.83 -125.045 276.222 -107.434C270.885 -92.9504 296.555 -93.115 293.759 -77.3144C309.517 -74.8455 315.108 -86.5314 333.407 -85.5439C346.878 -84.8855 374.581 -77.8082 387.035 -73.858C392.372 -72.2121 406.859 -69.9078 407.113 -64.3118C407.113 -56.5761 388.559 -59.0449 387.035 -55.2593C382.206 -42.7505 414.484 -43.5735 419.821 -54.4364C423.633 -54.9302 427.446 -54.9302 431.258 -54.4364C434.816 -48.8403 435.07 -42.0922 434.562 -35.8378C437.866 -36.1669 442.695 -35.0148 446.253 -35.344C448.032 -26.7853 446.762 -16.5807 438.12 -9.66798C423.379 2.34706 408.13 -5.88243 392.118 -0.450974C372.039 6.29721 379.664 26.2126 397.201 31.4794C417.025 37.4047 422.617 24.0729 441.678 26.5417C455.149 28.3522 458.707 50.0781 481.073 42.8361C487.681 53.8636 505.726 58.9659 518.942 64.8911C550.204 79.375 533.429 83.3252 503.185 95.011C511.572 96.1632 513.097 99.9488 517.926 101.924C503.184 107.191 482.598 103.899 470.652 111.305C479.04 120.358 496.322 127.929 511.063 130.398C525.805 132.702 538.004 118.712 540.546 140.109C566.47 144.223 581.719 151.63 611.201 154.757C631.534 156.897 636.871 157.226 648.817 165.949C655.679 170.887 645.004 177.306 661.524 178.623C654.408 180.762 638.142 190.473 649.071 196.069C654.408 198.703 675.503 191.461 683.128 191.79C684.653 195.575 686.94 200.349 685.924 204.299C700.156 195.082 707.019 214.668 715.406 212.364C737.263 206.768 716.422 199.69 710.069 192.613C703.969 185.535 697.361 178.293 705.494 172.697C720.489 162.164 725.318 174.179 732.18 179.116C736.755 182.408 737.009 197.386 752.513 191.296C768.016 185.042 748.192 176.483 744.888 170.722C739.805 161.999 742.092 170.593 740.059 161.54C738.026 152.488 733.451 146.892 730.147 138.168C726.335 127.799 731.418 116.936 730.401 106.732C729.639 99.3252 721.251 92.9062 720.235 85.8288C719.727 82.7016 720.743 81.7141 717.185 78.9161C714.389 76.6118 710.069 75.4597 709.052 72.3325C707.527 68.2177 713.373 65.5843 712.356 61.7988C720.489 61.305 719.218 72.9909 720.489 75.7889C723.031 82.2079 732.689 83.5246 730.655 90.7665C730.147 92.577 728.368 95.0459 729.893 97.0209C731.418 98.996 735.484 100.642 737.263 102.946C740.059 106.896 740.822 111.34 740.313 115.62C739.551 121.216 736.247 126.318 740.822 131.749C743.363 134.712 745.142 135.7 745.396 139.156C745.396 141.789 742.855 146.069 746.159 148.044C749.717 150.183 752.513 147.221 754.8 151.171C756.579 154.792 754.8 158.907 756.833 162.692C759.121 166.972 758.867 184.418 772.846 175.859C781.741 170.428 768.271 163.186 767.762 157.096C767.254 151.5 767.762 149.69 761.408 145.74C754.8 141.789 755.309 139.814 754.292 134.547C752.259 125.495 752.513 116.443 751.242 107.061C750.48 101.629 744.38 99.819 741.838 95.0459C740.822 93.2354 741.838 91.4249 741.33 89.6144C740.568 86.6518 740.822 87.9685 738.026 85.6643C735.993 83.8538 734.214 83.36 733.705 80.8911C733.451 79.2452 735.484 77.4348 734.976 75.9534C734.214 73.4846 730.401 68.7115 728.114 66.5718C724.81 63.4446 719.981 63.2801 719.981 58.8361C719.981 55.7089 722.776 52.2525 727.351 53.2401C751.5 42.3137 733.197 58.507 735.23 60.482C737.518 62.4571 739.551 63.7738 740.313 66.2427C741.076 68.7115 739.042 71.6741 740.313 73.9784C742.092 77.5993 748.192 78.0931 750.225 81.8787C752.513 86.4872 750.48 89.2852 754.546 93.2354C757.85 96.198 759.121 99.1606 759.883 103.111C760.9 108.871 761.408 109.53 767.254 113.645C776.658 120.064 763.95 126.153 768.525 132.901C770.304 135.535 773.608 136.029 774.37 139.32C775.387 143.271 771.32 148.044 775.641 151.006C776.912 151.829 779.962 151.665 781.487 152.817C783.012 153.969 782.249 155.944 783.52 157.261C785.807 160.059 788.857 163.351 791.907 165.984C793.941 167.959 796.99 169.111 798.261 171.251C800.294 174.543 796.99 178.822 799.532 182.114C801.819 185.076 809.698 173.191 813.256 169.57C815.798 167.101 814.019 178.987 812.24 176.847C811.223 175.695 809.444 175.53 808.682 174.214C807.411 171.909 810.207 168.453 808.682 166.149C805.886 162.198 801.311 162.363 800.04 157.59C798.769 152.817 799.532 145.41 796.228 141.131C792.161 135.864 783.774 137.181 788.095 130.103C792.67 122.368 811.223 98.1731 805.632 89.6144C799.786 80.7266 788.857 72.0033 799.786 62.9509C807.157 64.5968 807.411 67.8886 806.648 72.6617C805.632 78.9161 810.969 79.2453 815.036 84.5121C829.268 102.946 806.14 113.48 805.632 117.43C805.378 121.051 798.515 125.824 802.074 129.445C805.378 132.737 811.477 131.585 813.002 136.522C813.765 138.991 812.24 141.789 812.24 144.423C812.494 148.044 814.019 149.196 816.815 152.323C819.865 155.944 823.931 159.73 825.964 163.515C827.998 167.136 829.777 171.086 832.572 174.214C832.318 177.012 835.114 178.328 839.435 176.353C843.247 174.543 840.451 171.745 839.943 169.44C839.181 165.655 840.451 163.186 841.214 159.565C842.23 153.969 836.893 150.842 834.606 145.74C832.827 141.789 833.843 138.004 834.097 134.054C834.351 127.635 832.318 123.684 836.385 117.595C841.976 109.036 839.435 102.617 839.689 93.7291C839.943 87.9685 855.447 84.6767 857.988 79.4099C860.784 73.9784 857.988 71.345 854.43 66.4073C852.143 63.2801 850.109 59.8237 850.618 56.2027C850.872 54.5568 848.5 51.8137 857.988 47.1503C862.309 47.3149 860.275 54.3922 859.767 56.2027C859.259 58.0132 856.463 61.6342 857.226 63.2801C857.734 64.103 861.038 65.4197 862.055 66.2427C868.917 72.1679 868.409 75.2951 864.342 82.0433C861.038 87.1456 846.551 92.9062 848.839 98.5023C851.634 105.25 853.922 107.225 850.109 114.138C848.584 116.936 848.584 119.57 849.347 122.368C850.872 127.799 850.872 130.597 849.601 136.029C848.839 138.827 848.584 141.131 850.872 143.6C853.413 146.233 857.48 146.562 859.005 149.69C860.784 153.475 860.021 161.046 860.021 164.997C860.021 166.478 858.242 170.922 860.021 172.074C866.375 176.024 868.154 168.124 868.154 165.984C868.409 161.376 866.121 156.932 865.613 152.323C865.105 147.056 868.409 141.625 867.646 136.522C866.884 132.079 862.309 128.622 862.055 124.014C861.546 117.924 865.613 111.505 868.917 105.909C870.188 103.769 870.95 99.819 875.017 99.6544C880.1 105.25 870.696 111.999 871.459 117.924C872.475 125.001 875.779 131.256 875.779 138.004C875.779 144.917 884.166 151.994 882.387 159.071C881.625 162.363 877.812 165.819 879.592 169.44C880.1 170.757 882.896 171.251 883.404 172.403C883.912 173.226 882.641 175.695 883.404 176.189C887.216 179.151 891.283 174.214 892.808 171.909C894.333 176.847 896.112 166.642 892.808 171.909C891.537 167.63 895.603 164.832 897.637 160.717C900.178 155.615 899.416 149.36 899.162 143.929C898.908 139.156 893.824 135.206 897.637 130.926C902.72 125.166 909.328 121.709 911.361 114.797C912.886 109.859 913.395 103.769 908.82 99.3252C905.261 95.7042 901.957 95.0459 901.449 90.2728C892.045 85.4997 891.791 79.4099 896.62 77.7639C901.449 76.2826 901.703 78.5869 901.703 81.0558C901.703 83.8538 908.565 88.2977 910.09 90.9311C911.87 93.5645 916.444 95.5396 918.732 97.8439C925.594 104.427 927.119 114.797 922.29 122.203C917.715 129.281 914.665 133.231 913.903 141.296C913.649 145.081 915.173 147.715 916.444 151.336C918.223 155.779 916.698 157.919 914.411 162.199C913.394 164.009 911.615 166.972 911.87 168.947C912.378 171.415 913.394 158.084 914.665 159.894C917.207 164.174 914.919 166.313 913.14 170.593C911.107 175.201 915.682 180.633 910.853 184.418C908.311 186.229 905.007 170.722 902.974 173.191C900.941 175.495 902.466 176.483 901.703 178.623C900.687 181.585 893.062 187.017 899.416 188.333C905.77 189.65 908.311 183.231 914.411 185.042C918.478 186.358 917.461 191.296 922.036 192.284C924.832 192.942 926.865 191.296 929.406 192.119C931.948 192.777 934.744 196.234 937.539 197.386C939.827 197.057 939.827 194.588 941.86 193.765C943.639 192.942 945.927 193.93 947.452 193.436C951.518 191.79 952.026 189.979 954.06 187.346C957.11 183.231 956.093 184.054 961.43 184.548C966.005 184.877 965.242 186.029 970.326 184.712C970.58 185.7 971.596 186.358 971.596 187.346C974.9 185.535 981.763 180.762 985.067 186.029C983.288 181.585 993.962 178.623 998.029 181.75C995.487 175.989 1006.67 179.61 1009.21 182.244C1008.7 179.939 1009.47 176.318 1013.28 175.825C1011.5 172.039 1009.47 167.431 1018.36 167.76C1010.23 161.012 1028.78 152.947 1026.75 161.835C1028.02 160.353 1029.29 160.189 1031.07 161.176C1032.34 160.353 1033.86 160.518 1035.14 160.189C1035.64 161.835 1036.41 163.48 1036.41 165.291C1041.49 161.176 1046.06 160.518 1051.66 164.303C1052.16 164.139 1052.67 163.645 1052.93 163.48C1054.71 163.974 1055.72 165.456 1055.98 166.772C1055.72 161.999 1064.11 163.645 1067.16 166.114C1071.48 162.987 1078.6 157.884 1080.88 165.291C1084.19 165.291 1086.22 166.772 1085.71 168.912C1090.29 168.912 1098.68 165.62 1101.47 163.81C1110.11 158.214 1117.23 145.869 1132.99 147.515C1133.75 151.136 1130.7 154.922 1128.41 158.049C1133.75 155.251 1141.37 148.667 1149.25 148.667C1149.25 151.136 1147.22 153.605 1145.69 155.745C1150.01 154.428 1155.86 150.478 1160.94 150.642C1167.04 150.807 1165.26 153.605 1165.52 156.897C1178.99 154.263 1192.21 140.602 1207.96 142.413C1227.53 144.717 1188.39 173.356 1184.07 176.812C1188.39 175.495 1196.27 174.014 1196.53 178.787C1200.85 175.331 1209.49 173.191 1214.57 177.635C1215.84 176.812 1219.15 175.002 1221.18 175.166C1227.28 175.825 1223.97 181.421 1226.77 183.725C1229.57 186.029 1229.31 183.89 1234.14 184.548C1236.68 184.877 1237.95 184.548 1238.72 186.523C1245.07 183.231 1245.58 190.473 1249.14 192.119C1250.92 192.942 1253.97 192.119 1256 192.942C1258.54 193.93 1259.81 195.905 1260.07 197.715C1275.06 192.284 1258.54 183.56 1256.51 177.471C1254.73 172.039 1261.08 166.937 1260.07 161.341C1259.3 155.909 1253.2 151.63 1250.66 146.528C1248.63 142.413 1246.85 132.702 1253.2 129.246C1257.78 126.777 1259.56 128.094 1261.34 130.892C1264.89 136.652 1261.08 141.59 1267.18 147.186C1274.55 153.934 1276.59 157.555 1272.01 165.126C1270.23 168.089 1269.21 171.71 1269.72 175.002C1270.23 179.446 1273.54 180.104 1277.35 183.396C1281.41 187.017 1278.87 205.286 1292.34 198.044C1296.92 195.575 1296.92 188.004 1294.38 184.877C1292.09 181.75 1286.5 180.269 1283.7 177.306C1277.6 170.229 1285.99 164.468 1287.26 157.391C1287.77 154.099 1287.77 150.972 1285.48 148.174C1283.45 145.54 1280.14 144.059 1279.38 140.932C1278.62 137.64 1280.4 133.69 1285.73 132.867C1292.34 131.715 1292.34 134.842 1293.11 138.463C1294.38 145.376 1292.09 152.617 1293.61 159.366C1295.14 166.772 1300.73 171.216 1307.34 176.977C1312.68 181.75 1311.66 186.852 1311.66 192.448C1311.66 195.74 1310.9 198.373 1313.95 201.007C1319.03 205.286 1325.13 202.324 1326.91 197.88C1328.94 192.613 1319.79 186.523 1318.52 181.092C1317.76 177.635 1321.32 174.343 1320.3 171.216C1319.28 167.924 1312.68 166.278 1311.66 162.822C1310.64 159.859 1313.69 155.909 1318.52 154.757C1324.88 153.276 1325.13 156.403 1326.4 160.024C1327.93 164.303 1325.89 167.924 1326.91 172.039C1327.67 175.989 1332.5 177.141 1333.77 180.927C1334.79 184.219 1333.52 187.51 1335.04 190.802C1337.07 194.917 1337.58 196.069 1335.3 200.513C1333.52 203.969 1330.97 207.097 1335.04 210.388C1338.85 213.351 1343.68 213.351 1346.73 210.553C1352.32 205.451 1344.19 198.703 1345.46 193.436C1346.22 190.144 1348 186.688 1348.51 183.067C1349.02 180.598 1348.26 174.837 1349.78 172.697C1354.36 166.278 1358.93 174.673 1358.42 178.293C1357.41 185.206 1350.8 187.181 1357.15 193.93C1362.49 199.69 1357.41 205.78 1363.76 211.705C1370.12 217.466 1373.17 219.276 1370.62 226.189C1369.35 229.152 1369.1 231.127 1371.13 233.431C1373.42 235.9 1379.26 236.887 1373.93 241.002C1376.22 240.344 1380.54 238.369 1383.08 237.875C1385.87 237.381 1387.65 238.862 1390.19 237.546C1393.75 235.735 1391.46 231.127 1392.99 228.329C1397.06 229.481 1398.07 227.506 1401.38 226.683C1405.19 225.86 1408.49 226.847 1411.8 226.354C1427.81 223.391 1420.69 222.733 1425.52 216.149C1426.54 214.832 1419.17 209.566 1421.46 206.438C1424.51 201.83 1431.88 202.159 1435.43 198.867C1446.11 189.486 1455.26 183.067 1436.2 171.71C1443.06 170.229 1453.99 164.797 1460.85 164.797C1466.95 164.797 1474.83 173.027 1480.42 171.545C1499.74 166.608 1481.44 151.301 1477.37 145.869C1452.46 112.128 1466.95 72.9561 1455.77 37.2401C1453.73 31.1503 1445.85 27.8585 1448.65 19.9582C1476.86 22.2624 1474.83 69.0059 1477.88 82.5023C1480.42 94.1881 1489.57 105.709 1492.87 117.56C1497.19 134.348 1504.56 134.348 1519.56 147.515C1528.2 116.408 1511.68 100.113 1498.97 75.5895C1491.86 61.7639 1496.69 51.724 1492.36 38.063C1489.57 29.0106 1469.74 19.1352 1482.96 11.5641C1502.53 19.2998 1492.36 32.3024 1497.7 43.6591C1502.53 54.1928 1515.75 64.0682 1521.85 73.9436C1527.18 82.5023 1527.69 94.1881 1532.27 104.393C1537.6 116.408 1550.82 124.473 1550.06 139.286C1587.17 136.488 1557.18 102.088 1554.63 91.5547C1552.35 82.3377 1553.36 75.4249 1549.8 66.537C1547.26 60.2826 1537.86 41.1902 1559.21 52.0532C1565.31 55.1804 1570.39 71.1456 1571.66 75.5895C1574.97 88.0983 1574.71 93.8589 1582.08 104.393C1601.91 132.702 1604.19 107.52 1606.99 90.238C1617.41 87.7691 1629.36 87.9337 1636.22 93.2006C1656.04 85.9586 1630.12 68.3475 1653.25 69.0059C1653.5 67.1954 1652.99 64.8912 1654.01 63.0807C1657.57 65.0558 1666.72 67.5246 1671.04 70.981C1694.17 59.4597 1670.02 54.8512 1660.87 46.7863C1670.53 32.9608 1694.17 40.0381 1708.65 27.0355C1722.38 14.6913 1717.04 10.2474 1740.68 4.9805C1776.26 -2.91982 1798.88 8.76607 1826.84 21.6041C1840.05 27.6939 1880.72 50.7364 1899.78 48.2676C1922.15 45.4696 1913 25.225 1938.16 50.0781C1968.91 80.5272 1956.2 112.128 1940.95 144.388C1917.82 193.6 1967.13 320.17 1940.95 368.559C1925.96 396.21 1905.88 437.852 1854.79 443.283C1824.29 446.575 1792.27 444.929 1761.01 448.385C1707.89 454.31 1612.07 426.824 1559.46 423.368C1510.66 420.24 1464.92 429.787 1416.88 432.585C1361.98 435.876 1306.07 433.078 1251.93 439.333C1150.27 451.348 1056.74 448.385 954.06 448.385C901.449 448.385 842.01 420.946 789.908 418.313C729.164 415.186 670.2 422.098 609.71 421.769C559.133 421.44 510.081 409.59 458.995 411.894C411.722 413.869 371.565 439.922 333.407 411.894C261.989 421.605 36.1865 471.783 2.3836 429.813C-33.4526 385.538 -76.1926 283.721 -42.1355 240.269C-16.974 207.845 5.90023 181.511 -6.55348 144.313C-16.7198 114.029 -216.132 83.4151 -6.55357 26.5417C-19.0073 1.52411 -20.5322 -29.748 -38.3232 -52.7905C-57.385 -77.1498 -6.08696 -84.0626 -15.4908 -107.434C-21.3364 -122.247 -15.4908 -126.527 51.8011 -156.976Z" fill="#0B3A7A"/>
<path d="M292.5 283.955C227 367.955 73 312.955 -25 333.455V828.314H1095H1915L2043.5 316.955C2026.33 308.288 2056.4 259.214 1958 302.814C1493 393.814 1052.5 329.314 968 325.314C883.5 321.314 821 340.814 721 318.314C647.698 301.821 656.5 199.814 545 179.314C433.5 158.814 358 199.955 292.5 283.955Z" fill="#F9F9F9"/>
</g>
<defs>
<linearGradient id="paint0_linear" x1="359.085" y1="384.71" x2="1243.58" y2="-731.692" gradientUnits="userSpaceOnUse">
<stop stop-color="#253A80"/>
<stop offset="1" stop-color="#1E6DB5"/>
</linearGradient>
<linearGradient id="paint1_linear" x1="1384.14" y1="394.061" x2="1439.49" y2="-31.5337" gradientUnits="userSpaceOnUse">
<stop stop-color="#0B4693"/>
<stop offset="0.987464" stop-color="#05569F"/>
</linearGradient>
</defs>
</svg>
