<svg width="1920" height="855" viewBox="0 0 1920 855" fill="none" xmlns="http://www.w3.org/2000/svg">
<mask id="mask0" mask-type="alpha" maskUnits="userSpaceOnUse" x="0" y="0" width="1920" height="856">
<path d="M983.5 0.196472C1291.65 5.78351 1588.6 88.5774 1920 37.106V855.196L0 854.696V57.4438C293.799 105.716 681.921 -5.27148 983.5 0.196472Z" fill="#F9F9F9"/>
</mask>
<g mask="url(#mask0)">
<rect y="-44.3037" width="1920" height="902" fill="url(#paint0_linear)"/>
<path opacity="0.8" d="M2033.02 76.872C2027.8 63.0966 1986.1 55.7984 1971.21 60.4298C1960.91 63.5811 1954.67 70.5445 1942.54 72.8863C1927.36 75.8731 1924.55 71.393 1911.85 67.8473C1898.84 64.4686 1892.21 66.6409 1878.99 69.1739C1882.64 82.9977 1897.94 83.9439 1909.33 88.3961C1898.22 93.3833 1885.02 96.7029 1874.73 102.452C1881.14 103.594 1892.48 109.071 1891.01 117.462C1889.13 128.071 1868.35 122.884 1860.63 122.649C1836.85 122.279 1789.52 121.61 1775.35 144.643C1786.22 155.174 1803.06 157.884 1815.2 165.935C1811.88 168.32 1809.48 174.614 1806.41 177.071C1829.05 183.854 1830.82 205.688 1809.87 215.781C1803.44 206.058 1783.15 191.408 1777.29 208.359C1760.92 205.792 1748.89 195.691 1753.48 178.622C1730.27 171.148 1741.83 199.294 1734.78 208.093C1726.44 218.585 1708.38 209.536 1711.34 229.128C1702.57 230.658 1697.42 227.037 1698.97 218.408C1683.88 211.55 1664.77 222.452 1684.77 232.86C1670.87 215.966 1647.95 238.717 1667.52 245.358C1652.34 243.149 1598.49 263.388 1618.63 283.711C1625.21 274.769 1641.31 271.282 1642.79 278.48C1626.97 281.014 1631.36 288.044 1622.88 293.816C1615.32 299.088 1607.32 299.807 1598.76 303.22C1581.96 309.878 1565 321.423 1562.77 341.018C1573.71 343.516 1574.94 332.455 1580.71 325.349C1588.97 315.095 1589.88 316.406 1600.29 311.991C1607.75 308.769 1629.45 295.267 1637.53 302.105C1650.24 313.445 1610.99 317.015 1604.89 320.904C1589.98 329.945 1585.02 345.608 1576.93 358.77C1594.13 360.288 1599.22 333.755 1617.64 331.219C1636.06 328.684 1652.03 341.262 1632.21 354.549C1623.73 360.321 1613.91 358.419 1604.64 361.618C1595.37 364.816 1589.08 370.206 1580.43 375.669C1561.73 386.953 1536.4 397.811 1532.76 422.961C1556.38 420.423 1570.29 393.933 1594.47 389.488C1603.24 387.958 1626.21 384.968 1615.95 401.897C1609.8 412.007 1584.16 407.442 1580.07 425.441C1590.22 427.963 1596.6 417.925 1606.87 424.38C1603.23 436.538 1588.96 433.041 1579.4 439.791C1565.61 449.428 1568.76 457.126 1546.66 452.846C1527.5 449.184 1498.93 438.804 1509.6 414.462C1506.69 412.032 1502.16 408.077 1499.42 405.957C1473.6 428.876 1468.54 433.598 1469.39 466.326C1469.72 474.741 1467.77 488.186 1471.02 499.03C1472.76 504.488 1480.29 503.626 1480.15 509.3C1479.89 521.433 1473.83 516.501 1467.73 522.988C1455.09 536.605 1453.13 537.059 1463.71 548.543C1470.22 555.429 1472.29 545.917 1475.04 561.028C1477.33 574.185 1413.56 578.014 1421.83 591.145C1429.77 603.655 1352.52 611.125 1362.08 622.562C1372.78 635.381 1371.59 648.015 1370.45 662.223C1373.05 662.222 1317.99 651.697 1375.17 659.479C1353.84 651.79 1337.19 657.972 1331.83 681.049C1315.79 676.503 1316 834.063 1298.81 833.333C1291.4 832.931 1282.52 838.322 1275.96 832.461C1270.45 827.434 1272.91 820.115 1274.12 813.464C1275 808.792 1280.57 787.598 1270.52 788.222C1264.39 788.726 1267.73 800.118 1260.84 801.433C1251.77 803.129 1255.24 788.063 1256.12 783.39C1258.05 771.757 1262.29 761.076 1266.6 750.156C1271.36 738.593 1279.29 727.72 1281.5 715.133C1282.58 708.958 1286.12 691.055 1277.11 689.915C1265.58 688.538 1262.87 715.785 1261.54 723.7C1260.35 731.137 1259.83 752.805 1251.13 756.695C1240.96 761.181 1247.29 739.177 1247.72 735.148C1249.43 721.632 1253.05 708.686 1256.98 695.574C1260.55 683.654 1270.89 663.888 1267.05 651.566C1262.94 638.386 1254.3 649.045 1252.18 656.984C1249.8 666.663 1248.92 676.532 1247.25 686.425C1245.49 698.368 1243.42 710.479 1241.19 722.279C1239 733.054 1237.05 754.294 1229.12 762.569C1217.99 774.565 1217.22 746.795 1218.84 740.525C1222.12 726.96 1227.55 714.038 1232.03 700.83C1233.48 696.849 1234.33 673.202 1224.97 681.049C1222.9 682.766 1221.9 693.898 1221.35 696.592C1219.28 708.702 1215.45 719.765 1214.4 731.922C1212.5 752.137 1202.05 770.568 1191.07 787.283C1182.35 800.778 1170.82 814.991 1157.6 825.319C1138.23 840.56 1124.98 844.904 1140.83 869.139C1153.63 888.822 1167.15 893.131 1189.17 902.846C1221.01 917.061 1251.66 933.518 1284.9 944.778C1316.31 955.227 1485.11 792.672 1516 804.004C1554.77 818.479 1587.21 844.565 1623.91 863.355C1705.47 904.936 1862.85 939.616 1925.98 852.009C1949.54 819.317 1963.56 778.573 1981.35 742.595C2014.72 675.43 2045.44 611.889 2054.62 536.179C2062.73 469.24 2059.85 395.633 2046.72 329.348C2032.29 256.175 1996.17 192.094 1981.49 118.85" fill="#21458D"/>
<path d="M572.142 619.601C567.869 595.501 575.115 571.586 571.213 547.487C566.197 517.084 553.193 489.461 541.117 461.468C537.03 457.946 532.757 447.194 525.326 454.424C525.883 450.531 524.583 445.896 523.468 442.189C518.638 441.818 505.262 449.048 501.918 446.452C494.858 441.076 505.448 431.436 509.906 429.397C499.503 427.914 506.191 421.796 501.918 416.976C494.301 408.449 490.957 408.263 477.952 406.039C459.189 402.887 449.528 395.843 432.994 391.764C431.322 370.816 423.519 384.534 414.23 382.31C404.941 380.085 393.795 372.484 388.407 363.586C396.024 356.356 409.028 359.507 418.503 354.502C415.531 352.648 414.602 348.94 409.214 347.828C428.349 336.52 439.125 332.441 419.246 318.352C410.886 312.42 399.368 307.414 395.095 296.662C380.79 303.707 378.561 282.388 370.015 280.719C357.939 278.309 354.224 291.471 341.776 285.539C330.63 280.348 325.8 260.883 338.618 254.209C348.836 249.019 358.497 256.99 367.786 245.125C373.173 238.266 374.102 228.256 372.987 219.913C370.758 220.284 367.785 219.172 365.556 219.542C365.928 213.425 365.742 206.751 363.513 201.189C361.097 200.819 358.682 200.633 356.267 201.189C352.923 211.942 332.488 212.683 335.46 200.448C336.389 196.74 348.279 199.15 348.279 191.55C348.279 185.988 338.99 183.763 335.646 182.28C327.657 178.387 310.008 171.528 301.462 170.787C289.758 169.86 286.229 181.168 276.197 178.758C277.869 163.371 261.52 163.557 265.05 149.282C269.323 131.856 248.701 132.968 238.483 130.558C243.499 117.952 222.692 112.391 213.775 110.537C217.305 108.868 219.906 104.234 222.878 102.38C216.747 92.3691 202.814 93.4814 192.596 94.0376C170.674 94.9645 -12.2774 28.227 -33.2704 33.4178C-24.353 46.2092 -32.3415 70.6799 -28.6259 85.1399C-22.681 108.313 -184.018 221.952 -172.5 245.125C-161.167 267.557 11.3804 351.906 19.3689 376.377C28.6578 405.296 142.998 399.736 149.5 429.397C157.488 465.918 164.734 486.866 148.571 518.567C127.021 561.205 139.84 611.815 162.69 655.194C184.426 696.35 253.346 653.526 298.862 644.071C328.029 637.954 355.524 625.533 385.435 623.494C417.76 621.269 448.971 632.948 481.296 633.134C512.507 633.505 542.975 629.055 574 629.055C573.443 625.904 572.7 622.752 572.142 619.601Z" fill="#214487"/>
<path d="M51.8011 299.407C84.5874 293.975 128.302 293.975 162.868 292.988C178.88 292.494 200.737 291.506 210.141 301.053C205.312 303.028 201.5 307.636 195.654 309.447C209.633 311.257 242.419 317.018 234.54 329.856C250.552 332.325 282.83 331.337 276.222 348.948C270.885 363.432 296.555 363.268 293.759 379.068C309.517 381.537 315.108 369.851 333.407 370.839C346.878 371.497 374.581 378.574 387.035 382.525C392.372 384.17 406.859 386.475 407.113 392.071C407.113 399.807 388.559 397.338 387.035 401.123C382.206 413.632 414.484 412.809 419.821 401.946C423.633 401.452 427.446 401.452 431.258 401.946C434.816 407.542 435.07 414.29 434.562 420.545C437.866 420.216 442.695 421.368 446.253 421.039C448.032 429.597 446.762 439.802 438.12 446.715C423.379 458.73 408.13 450.5 392.118 455.932C372.039 462.68 379.664 482.595 397.201 487.862C417.025 493.787 422.617 480.455 441.678 482.924C455.149 484.735 458.707 506.461 481.073 499.219C487.681 510.246 505.726 515.348 518.942 521.274C550.204 535.758 533.429 539.708 503.185 551.394C511.572 552.546 513.097 556.331 517.926 558.306C503.184 563.573 482.598 560.282 470.652 567.688C479.04 576.74 496.322 584.312 511.063 586.78C525.805 589.085 538.004 575.095 540.546 596.491C566.47 600.606 581.719 608.013 611.201 611.14C631.534 613.279 636.871 613.609 648.817 622.332C655.679 627.27 645.004 633.689 661.524 635.005C654.408 637.145 638.142 646.856 649.071 652.452C654.408 655.085 675.503 647.843 683.128 648.172C684.653 651.958 686.94 656.731 685.924 660.681C700.156 651.464 707.019 671.05 715.406 668.746C737.263 663.15 716.422 656.073 710.069 648.995C703.969 641.918 697.361 634.676 705.494 629.08C720.489 618.546 725.318 630.561 732.18 635.499C736.755 638.791 737.009 653.768 752.513 647.679C768.016 641.424 748.192 632.866 744.888 627.105C739.805 618.382 742.092 626.975 740.059 617.923C738.026 608.87 733.451 603.274 730.147 594.551C726.335 584.182 731.418 573.319 730.401 563.114C729.639 555.708 721.251 549.289 720.235 542.211C719.727 539.084 720.743 538.097 717.185 535.299C714.389 532.994 710.069 531.842 709.052 528.715C707.527 524.6 713.373 521.967 712.356 518.181C720.489 517.688 719.218 529.373 720.489 532.171C723.031 538.59 732.689 539.907 730.655 547.149C730.147 548.96 728.368 551.428 729.893 553.404C731.418 555.379 735.484 557.025 737.263 559.329C740.059 563.279 740.822 567.723 740.313 572.002C739.551 577.598 736.247 582.701 740.822 588.132C743.363 591.095 745.142 592.082 745.396 595.538C745.396 598.172 742.855 602.451 746.159 604.426C749.717 606.566 752.513 603.603 754.8 607.554C756.579 611.174 754.8 615.289 756.833 619.075C759.121 623.354 758.867 640.801 772.846 632.242C781.741 626.811 768.271 619.569 767.762 613.479C767.254 607.883 767.762 606.072 761.408 602.122C754.8 598.172 755.309 596.197 754.292 590.93C752.259 581.878 752.513 572.825 751.242 563.443C750.48 558.012 744.38 556.202 741.838 551.428C740.822 549.618 741.838 547.807 741.33 545.997C740.568 543.034 740.822 544.351 738.026 542.047C735.993 540.236 734.214 539.743 733.705 537.274C733.451 535.628 735.484 533.817 734.976 532.336C734.214 529.867 730.401 525.094 728.114 522.954C724.81 519.827 719.981 519.663 719.981 515.219C719.981 512.091 722.776 508.635 727.351 509.623C751.5 498.696 733.197 514.89 735.23 516.865C737.518 518.84 739.551 520.156 740.313 522.625C741.076 525.094 739.042 528.057 740.313 530.361C742.092 533.982 748.192 534.476 750.225 538.261C752.513 542.87 750.48 545.668 754.546 549.618C757.85 552.581 759.121 555.543 759.883 559.493C760.9 565.254 761.408 565.912 767.254 570.027C776.658 576.446 763.95 582.536 768.525 589.284C770.304 591.917 773.608 592.411 774.37 595.703C775.387 599.653 771.32 604.426 775.641 607.389C776.912 608.212 779.962 608.047 781.487 609.199C783.012 610.352 782.249 612.327 783.52 613.643C785.807 616.441 788.857 619.733 791.907 622.367C793.941 624.342 796.99 625.494 798.261 627.633C800.294 630.925 796.99 635.205 799.532 638.496C801.819 641.459 809.698 629.574 813.256 625.953C815.798 623.484 814.019 635.369 812.24 633.23C811.223 632.077 809.444 631.913 808.682 630.596C807.411 628.292 810.207 624.835 808.682 622.531C805.886 618.581 801.311 618.746 800.04 613.973C798.769 609.199 799.532 601.793 796.228 597.514C792.161 592.247 783.774 593.563 788.095 586.486C792.67 578.75 811.223 554.556 805.632 545.997C799.786 537.109 788.857 528.386 799.786 519.333C807.157 520.979 807.411 524.271 806.648 529.044C805.632 535.299 810.969 535.628 815.036 540.895C829.268 559.329 806.14 569.862 805.632 573.813C805.378 577.434 798.515 582.207 802.074 585.828C805.378 589.119 811.477 587.967 813.002 592.905C813.765 595.374 812.24 598.172 812.24 600.805C812.494 604.426 814.019 605.578 816.815 608.706C819.865 612.327 823.931 616.112 825.964 619.898C827.998 623.519 829.777 627.469 832.572 630.596C832.318 633.394 835.114 634.711 839.435 632.736C843.247 630.925 840.451 628.127 839.943 625.823C839.181 622.037 840.451 619.569 841.214 615.948C842.23 610.352 836.893 607.224 834.606 602.122C832.827 598.172 833.843 594.386 834.097 590.436C834.351 584.017 832.318 580.067 836.385 573.977C841.976 565.419 839.435 559 839.689 550.112C839.943 544.351 855.447 541.059 857.988 535.792C860.784 530.361 857.988 527.728 854.43 522.79C852.143 519.663 850.109 516.206 850.618 512.585C850.872 510.939 848.5 508.196 857.988 503.533C862.309 503.697 860.275 510.775 859.767 512.585C859.259 514.396 856.463 518.017 857.226 519.663C857.734 520.486 861.038 521.802 862.055 522.625C868.917 528.55 868.409 531.678 864.342 538.426C861.038 543.528 846.551 549.289 848.839 554.885C851.634 561.633 853.922 563.608 850.109 570.521C848.584 573.319 848.584 575.952 849.347 578.75C850.872 584.182 850.872 586.98 849.601 592.411C848.839 595.209 848.584 597.514 850.872 599.982C853.413 602.616 857.48 602.945 859.005 606.072C860.784 609.858 860.021 617.429 860.021 621.379C860.021 622.86 858.242 627.304 860.021 628.456C866.375 632.407 868.154 624.506 868.154 622.367C868.409 617.758 866.121 613.314 865.613 608.706C865.105 603.439 868.409 598.007 867.646 592.905C866.884 588.461 862.309 585.005 862.055 580.396C861.546 574.306 865.613 567.887 868.917 562.291C870.188 560.152 870.95 556.202 875.017 556.037C880.1 561.633 870.696 568.381 871.459 574.306C872.475 581.384 875.779 587.638 875.779 594.386C875.779 601.299 884.166 608.376 882.387 615.454C881.625 618.746 877.812 622.202 879.592 625.823C880.1 627.14 882.896 627.633 883.404 628.786C883.912 629.609 882.641 632.077 883.404 632.571C887.216 635.534 891.283 630.596 892.808 628.292C894.333 633.23 896.112 623.025 892.808 628.292C891.537 624.013 895.603 621.214 897.637 617.1C900.178 611.997 899.416 605.743 899.162 600.312C898.908 595.538 893.824 591.588 897.637 587.309C902.72 581.548 909.328 578.092 911.361 571.179C912.886 566.242 913.395 560.152 908.82 555.708C905.261 552.087 901.957 551.428 901.449 546.655C892.045 541.882 891.791 535.792 896.62 534.147C901.449 532.665 901.703 534.969 901.703 537.438C901.703 540.236 908.565 544.68 910.09 547.314C911.87 549.947 916.444 551.922 918.732 554.226C925.594 560.81 927.119 571.179 922.29 578.586C917.715 585.663 914.665 589.613 913.903 597.678C913.649 601.464 915.173 604.097 916.444 607.718C918.223 612.162 916.698 614.302 914.411 618.581C913.394 620.392 911.615 623.354 911.87 625.329C912.378 627.798 913.394 614.466 914.665 616.277C917.207 620.556 914.919 622.696 913.14 626.975C911.107 631.584 915.682 637.015 910.853 640.801C908.311 642.611 905.007 627.105 902.974 629.574C900.941 631.878 902.466 632.866 901.703 635.005C900.687 637.968 893.062 643.399 899.416 644.716C905.77 646.033 908.311 639.614 914.411 641.424C918.478 642.741 917.461 647.679 922.036 648.666C924.832 649.325 926.865 647.679 929.406 648.502C931.948 649.16 934.744 652.616 937.539 653.768C939.827 653.439 939.827 650.97 941.86 650.147C943.639 649.325 945.927 650.312 947.452 649.818C951.518 648.172 952.026 646.362 954.06 643.729C957.11 639.614 956.093 640.437 961.43 640.93C966.005 641.26 965.242 642.412 970.326 641.095C970.58 642.083 971.596 642.741 971.596 643.729C974.9 641.918 981.763 637.145 985.067 642.412C983.288 637.968 993.962 635.005 998.029 638.132C995.487 632.372 1006.67 635.993 1009.21 638.626C1008.7 636.322 1009.47 632.701 1013.28 632.207C1011.5 628.422 1009.47 623.813 1018.36 624.142C1010.23 617.394 1028.78 609.329 1026.75 618.217C1028.02 616.736 1029.29 616.571 1031.07 617.559C1032.34 616.736 1033.86 616.9 1035.14 616.571C1035.64 618.217 1036.41 619.863 1036.41 621.673C1041.49 617.559 1046.06 616.9 1051.66 620.686C1052.16 620.521 1052.67 620.028 1052.93 619.863C1054.71 620.357 1055.72 621.838 1055.98 623.155C1055.72 618.382 1064.11 620.028 1067.16 622.496C1071.48 619.369 1078.6 614.267 1080.88 621.673C1084.19 621.673 1086.22 623.155 1085.71 625.294C1090.29 625.294 1098.68 622.003 1101.47 620.192C1110.11 614.596 1117.23 602.252 1132.99 603.898C1133.75 607.519 1130.7 611.304 1128.41 614.432C1133.75 611.633 1141.37 605.05 1149.25 605.05C1149.25 607.519 1147.22 609.988 1145.69 612.127C1150.01 610.811 1155.86 606.86 1160.94 607.025C1167.04 607.19 1165.26 609.988 1165.52 613.279C1178.99 610.646 1192.21 596.985 1207.96 598.796C1227.53 601.1 1188.39 629.738 1184.07 633.195C1188.39 631.878 1196.27 630.397 1196.53 635.17C1200.85 631.713 1209.49 629.574 1214.57 634.018C1215.84 633.195 1219.15 631.384 1221.18 631.549C1227.28 632.207 1223.97 637.803 1226.77 640.108C1229.57 642.412 1229.31 640.272 1234.14 640.93C1236.68 641.26 1237.95 640.93 1238.72 642.906C1245.07 639.614 1245.58 646.856 1249.14 648.502C1250.92 649.325 1253.97 648.502 1256 649.325C1258.54 650.312 1259.81 652.287 1260.07 654.098C1275.06 648.666 1258.54 639.943 1256.51 633.853C1254.73 628.422 1261.08 623.319 1260.07 617.723C1259.3 612.292 1253.2 608.013 1250.66 602.91C1248.63 598.796 1246.85 589.085 1253.2 585.628C1257.78 583.159 1259.56 584.476 1261.34 587.274C1264.89 593.035 1261.08 597.973 1267.18 603.569C1274.55 610.317 1276.59 613.938 1272.01 621.509C1270.23 624.471 1269.21 628.092 1269.72 631.384C1270.23 635.828 1273.54 636.487 1277.35 639.778C1281.41 643.399 1278.87 661.669 1292.34 654.427C1296.92 651.958 1296.92 644.387 1294.38 641.26C1292.09 638.132 1286.5 636.651 1283.7 633.689C1277.6 626.611 1285.99 620.851 1287.26 613.773C1287.77 610.481 1287.77 607.354 1285.48 604.556C1283.45 601.923 1280.14 600.441 1279.38 597.314C1278.62 594.022 1280.4 590.072 1285.73 589.249C1292.34 588.097 1292.34 591.224 1293.11 594.845C1294.38 601.758 1292.09 609 1293.61 615.748C1295.14 623.155 1300.73 627.599 1307.34 633.359C1312.68 638.132 1311.66 643.235 1311.66 648.831C1311.66 652.123 1310.9 654.756 1313.95 657.389C1319.03 661.669 1325.13 658.706 1326.91 654.262C1328.94 648.995 1319.79 642.906 1318.52 637.474C1317.76 634.018 1321.32 630.726 1320.3 627.599C1319.28 624.307 1312.68 622.661 1311.66 619.205C1310.64 616.242 1313.69 612.292 1318.52 611.14C1324.88 609.658 1325.13 612.786 1326.4 616.407C1327.93 620.686 1325.89 624.307 1326.91 628.422C1327.67 632.372 1332.5 633.524 1333.77 637.309C1334.79 640.601 1333.52 643.893 1335.04 647.185C1337.07 651.3 1337.58 652.452 1335.3 656.896C1333.52 660.352 1330.97 663.479 1335.04 666.771C1338.85 669.734 1343.68 669.734 1346.73 666.936C1352.32 661.833 1344.19 655.085 1345.46 649.818C1346.22 646.527 1348 643.07 1348.51 639.449C1349.02 636.98 1348.26 631.22 1349.78 629.08C1354.36 622.661 1358.93 631.055 1358.42 634.676C1357.41 641.589 1350.8 643.564 1357.15 650.312C1362.49 656.073 1357.41 662.163 1363.76 668.088C1370.12 673.848 1373.17 675.659 1370.62 682.572C1369.35 685.534 1369.1 687.509 1371.13 689.814C1373.42 692.282 1379.26 693.27 1373.93 697.385C1376.22 696.726 1380.54 694.751 1383.08 694.258C1385.87 693.764 1387.65 695.245 1390.19 693.928C1393.75 692.118 1391.46 687.509 1392.99 684.711C1397.06 685.863 1398.07 683.888 1401.38 683.065C1405.19 682.242 1408.49 683.23 1411.8 682.736C1427.81 679.774 1420.69 679.115 1425.52 672.532C1426.54 671.215 1419.17 665.948 1421.46 662.821C1424.51 658.212 1431.88 658.542 1435.43 655.25C1446.11 645.868 1455.26 639.449 1436.2 628.092C1443.06 626.611 1453.99 621.18 1460.85 621.18C1466.95 621.18 1474.83 629.409 1480.42 627.928C1499.74 622.99 1481.44 607.683 1477.37 602.252C1452.46 568.511 1466.95 529.339 1455.77 493.623C1453.73 487.533 1445.85 484.241 1448.65 476.341C1476.86 478.645 1474.83 525.388 1477.88 538.885C1480.42 550.571 1489.57 562.092 1492.87 573.942C1497.19 590.731 1504.56 590.731 1519.56 603.898C1528.2 572.79 1511.68 556.496 1498.97 531.972C1491.86 518.147 1496.69 508.107 1492.36 494.446C1489.57 485.393 1469.74 475.518 1482.96 467.947C1502.53 475.682 1492.36 488.685 1497.7 500.042C1502.53 510.575 1515.75 520.451 1521.85 530.326C1527.18 538.885 1527.69 550.571 1532.27 560.775C1537.6 572.79 1550.82 580.855 1550.06 595.668C1587.17 592.87 1557.18 558.471 1554.63 547.937C1552.35 538.72 1553.36 531.807 1549.8 522.92C1547.26 516.665 1537.86 497.573 1559.21 508.436C1565.31 511.563 1570.39 527.528 1571.66 531.972C1574.97 544.481 1574.71 550.241 1582.08 560.775C1601.91 589.085 1604.19 563.902 1606.99 546.621C1617.41 544.152 1629.36 544.316 1636.22 549.583C1656.04 542.341 1630.12 524.73 1653.25 525.388C1653.5 523.578 1652.99 521.274 1654.01 519.463C1657.57 521.438 1666.72 523.907 1671.04 527.364C1694.17 515.842 1670.02 511.234 1660.87 503.169C1670.53 489.343 1694.17 496.421 1708.65 483.418C1722.38 471.074 1717.04 466.63 1740.68 461.363C1776.26 453.463 1798.88 465.149 1826.84 477.987C1840.05 484.076 1880.72 507.119 1899.78 504.65C1922.15 501.852 1913 481.608 1938.16 506.461C1968.91 536.91 1956.2 568.511 1940.95 600.771C1917.82 649.983 1967.13 776.552 1940.95 824.942C1925.96 852.593 1905.88 894.234 1854.79 899.666C1824.29 902.957 1792.27 901.311 1761.01 904.768C1707.89 910.693 1612.07 883.207 1559.46 879.75C1510.66 876.623 1464.92 886.169 1416.88 888.967C1361.98 892.259 1306.07 889.461 1251.93 895.715C1150.27 907.731 1056.74 904.768 954.06 904.768C901.449 904.768 842.01 877.329 789.908 874.695C729.164 871.568 670.2 878.481 609.71 878.152C559.133 877.823 510.081 865.972 458.995 868.276C411.722 870.252 371.565 896.304 333.407 868.276C261.989 877.987 36.1865 928.166 2.3836 886.195C-33.4526 841.921 -76.1926 740.103 -42.1355 696.652C-16.974 664.227 5.90023 637.893 -6.55348 600.696C-16.7198 570.411 -216.132 539.798 -6.55357 482.924C-19.0073 457.907 -20.5322 426.635 -38.3232 403.592C-57.385 379.233 -6.08696 372.32 -15.4908 348.948C-21.3364 334.135 -15.4908 329.856 51.8011 299.407Z" fill="url(#paint1_linear)"/>
<path d="M51.8011 299.407C84.5874 293.975 128.302 293.975 162.868 292.988C178.88 292.494 200.737 291.506 210.141 301.053C205.312 303.028 201.5 307.636 195.654 309.447C209.633 311.257 242.419 317.018 234.54 329.856C250.552 332.325 282.83 331.337 276.222 348.948C270.885 363.432 296.555 363.268 293.759 379.068C309.517 381.537 315.108 369.851 333.407 370.839C346.878 371.497 374.581 378.574 387.035 382.525C392.372 384.17 406.859 386.475 407.113 392.071C407.113 399.807 388.559 397.338 387.035 401.123C382.206 413.632 414.484 412.809 419.821 401.946C423.633 401.452 427.446 401.452 431.258 401.946C434.816 407.542 435.07 414.29 434.562 420.545C437.866 420.216 442.695 421.368 446.253 421.039C448.032 429.597 446.762 439.802 438.12 446.715C423.379 458.73 408.13 450.5 392.118 455.932C372.039 462.68 379.664 482.595 397.201 487.862C417.025 493.787 422.617 480.455 441.678 482.924C455.149 484.735 458.707 506.461 481.073 499.219C487.681 510.246 505.726 515.348 518.942 521.274C550.204 535.758 533.429 539.708 503.185 551.394C511.572 552.546 513.097 556.331 517.926 558.306C503.184 563.573 482.598 560.282 470.652 567.688C479.04 576.74 496.322 584.312 511.063 586.78C525.805 589.085 538.004 575.095 540.546 596.491C566.47 600.606 581.719 608.013 611.201 611.14C631.534 613.279 636.871 613.609 648.817 622.332C655.679 627.27 645.004 633.689 661.524 635.005C654.408 637.145 638.142 646.856 649.071 652.452C654.408 655.085 675.503 647.843 683.128 648.172C684.653 651.958 686.94 656.731 685.924 660.681C700.156 651.464 707.019 671.05 715.406 668.746C737.263 663.15 716.422 656.073 710.069 648.995C703.969 641.918 697.361 634.676 705.494 629.08C720.489 618.546 725.318 630.561 732.18 635.499C736.755 638.791 737.009 653.768 752.513 647.679C768.016 641.424 748.192 632.866 744.888 627.105C739.805 618.382 742.092 626.975 740.059 617.923C738.026 608.87 733.451 603.274 730.147 594.551C726.335 584.182 731.418 573.319 730.401 563.114C729.639 555.708 721.251 549.289 720.235 542.211C719.727 539.084 720.743 538.097 717.185 535.299C714.389 532.994 710.069 531.842 709.052 528.715C707.527 524.6 713.373 521.967 712.356 518.181C720.489 517.688 719.218 529.373 720.489 532.171C723.031 538.59 732.689 539.907 730.655 547.149C730.147 548.96 728.368 551.428 729.893 553.404C731.418 555.379 735.484 557.025 737.263 559.329C740.059 563.279 740.822 567.723 740.313 572.002C739.551 577.598 736.247 582.701 740.822 588.132C743.363 591.095 745.142 592.082 745.396 595.538C745.396 598.172 742.855 602.451 746.159 604.426C749.717 606.566 752.513 603.603 754.8 607.554C756.579 611.174 754.8 615.289 756.833 619.075C759.121 623.354 758.867 640.801 772.846 632.242C781.741 626.811 768.271 619.569 767.762 613.479C767.254 607.883 767.762 606.072 761.408 602.122C754.8 598.172 755.309 596.197 754.292 590.93C752.259 581.878 752.513 572.825 751.242 563.443C750.48 558.012 744.38 556.202 741.838 551.428C740.822 549.618 741.838 547.807 741.33 545.997C740.568 543.034 740.822 544.351 738.026 542.047C735.993 540.236 734.214 539.743 733.705 537.274C733.451 535.628 735.484 533.817 734.976 532.336C734.214 529.867 730.401 525.094 728.114 522.954C724.81 519.827 719.981 519.663 719.981 515.219C719.981 512.091 722.776 508.635 727.351 509.623C751.5 498.696 733.197 514.89 735.23 516.865C737.518 518.84 739.551 520.156 740.313 522.625C741.076 525.094 739.042 528.057 740.313 530.361C742.092 533.982 748.192 534.476 750.225 538.261C752.513 542.87 750.48 545.668 754.546 549.618C757.85 552.581 759.121 555.543 759.883 559.493C760.9 565.254 761.408 565.912 767.254 570.027C776.658 576.446 763.95 582.536 768.525 589.284C770.304 591.917 773.608 592.411 774.37 595.703C775.387 599.653 771.32 604.426 775.641 607.389C776.912 608.212 779.962 608.047 781.487 609.199C783.012 610.352 782.249 612.327 783.52 613.643C785.807 616.441 788.857 619.733 791.907 622.367C793.941 624.342 796.99 625.494 798.261 627.633C800.294 630.925 796.99 635.205 799.532 638.496C801.819 641.459 809.698 629.574 813.256 625.953C815.798 623.484 814.019 635.369 812.24 633.23C811.223 632.077 809.444 631.913 808.682 630.596C807.411 628.292 810.207 624.835 808.682 622.531C805.886 618.581 801.311 618.746 800.04 613.973C798.769 609.199 799.532 601.793 796.228 597.514C792.161 592.247 783.774 593.563 788.095 586.486C792.67 578.75 811.223 554.556 805.632 545.997C799.786 537.109 788.857 528.386 799.786 519.333C807.157 520.979 807.411 524.271 806.648 529.044C805.632 535.299 810.969 535.628 815.036 540.895C829.268 559.329 806.14 569.862 805.632 573.813C805.378 577.434 798.515 582.207 802.074 585.828C805.378 589.119 811.477 587.967 813.002 592.905C813.765 595.374 812.24 598.172 812.24 600.805C812.494 604.426 814.019 605.578 816.815 608.706C819.865 612.327 823.931 616.112 825.964 619.898C827.998 623.519 829.777 627.469 832.572 630.596C832.318 633.394 835.114 634.711 839.435 632.736C843.247 630.925 840.451 628.127 839.943 625.823C839.181 622.037 840.451 619.569 841.214 615.948C842.23 610.352 836.893 607.224 834.606 602.122C832.827 598.172 833.843 594.386 834.097 590.436C834.351 584.017 832.318 580.067 836.385 573.977C841.976 565.419 839.435 559 839.689 550.112C839.943 544.351 855.447 541.059 857.988 535.792C860.784 530.361 857.988 527.728 854.43 522.79C852.143 519.663 850.109 516.206 850.618 512.585C850.872 510.939 848.5 508.196 857.988 503.533C862.309 503.697 860.275 510.775 859.767 512.585C859.259 514.396 856.463 518.017 857.226 519.663C857.734 520.486 861.038 521.802 862.055 522.625C868.917 528.55 868.409 531.678 864.342 538.426C861.038 543.528 846.551 549.289 848.839 554.885C851.634 561.633 853.922 563.608 850.109 570.521C848.584 573.319 848.584 575.952 849.347 578.75C850.872 584.182 850.872 586.98 849.601 592.411C848.839 595.209 848.584 597.514 850.872 599.982C853.413 602.616 857.48 602.945 859.005 606.072C860.784 609.858 860.021 617.429 860.021 621.379C860.021 622.86 858.242 627.304 860.021 628.456C866.375 632.407 868.154 624.506 868.154 622.367C868.409 617.758 866.121 613.314 865.613 608.706C865.105 603.439 868.409 598.007 867.646 592.905C866.884 588.461 862.309 585.005 862.055 580.396C861.546 574.306 865.613 567.887 868.917 562.291C870.188 560.152 870.95 556.202 875.017 556.037C880.1 561.633 870.696 568.381 871.459 574.306C872.475 581.384 875.779 587.638 875.779 594.386C875.779 601.299 884.166 608.376 882.387 615.454C881.625 618.746 877.812 622.202 879.592 625.823C880.1 627.14 882.896 627.633 883.404 628.786C883.912 629.609 882.641 632.077 883.404 632.571C887.216 635.534 891.283 630.596 892.808 628.292C894.333 633.23 896.112 623.025 892.808 628.292C891.537 624.013 895.603 621.214 897.637 617.1C900.178 611.997 899.416 605.743 899.162 600.312C898.908 595.538 893.824 591.588 897.637 587.309C902.72 581.548 909.328 578.092 911.361 571.179C912.886 566.242 913.395 560.152 908.82 555.708C905.261 552.087 901.957 551.428 901.449 546.655C892.045 541.882 891.791 535.792 896.62 534.147C901.449 532.665 901.703 534.969 901.703 537.438C901.703 540.236 908.565 544.68 910.09 547.314C911.87 549.947 916.444 551.922 918.732 554.226C925.594 560.81 927.119 571.179 922.29 578.586C917.715 585.663 914.665 589.613 913.903 597.678C913.649 601.464 915.173 604.097 916.444 607.718C918.223 612.162 916.698 614.302 914.411 618.581C913.394 620.392 911.615 623.354 911.87 625.329C912.378 627.798 913.394 614.466 914.665 616.277C917.207 620.556 914.919 622.696 913.14 626.975C911.107 631.584 915.682 637.015 910.853 640.801C908.311 642.611 905.007 627.105 902.974 629.574C900.941 631.878 902.466 632.866 901.703 635.005C900.687 637.968 893.062 643.399 899.416 644.716C905.77 646.033 908.311 639.614 914.411 641.424C918.478 642.741 917.461 647.679 922.036 648.666C924.832 649.325 926.865 647.679 929.406 648.502C931.948 649.16 934.744 652.616 937.539 653.768C939.827 653.439 939.827 650.97 941.86 650.147C943.639 649.325 945.927 650.312 947.452 649.818C951.518 648.172 952.026 646.362 954.06 643.729C957.11 639.614 956.093 640.437 961.43 640.93C966.005 641.26 965.242 642.412 970.326 641.095C970.58 642.083 971.596 642.741 971.596 643.729C974.9 641.918 981.763 637.145 985.067 642.412C983.288 637.968 993.962 635.005 998.029 638.132C995.487 632.372 1006.67 635.993 1009.21 638.626C1008.7 636.322 1009.47 632.701 1013.28 632.207C1011.5 628.422 1009.47 623.813 1018.36 624.142C1010.23 617.394 1028.78 609.329 1026.75 618.217C1028.02 616.736 1029.29 616.571 1031.07 617.559C1032.34 616.736 1033.86 616.9 1035.14 616.571C1035.64 618.217 1036.41 619.863 1036.41 621.673C1041.49 617.559 1046.06 616.9 1051.66 620.686C1052.16 620.521 1052.67 620.028 1052.93 619.863C1054.71 620.357 1055.72 621.838 1055.98 623.155C1055.72 618.382 1064.11 620.028 1067.16 622.496C1071.48 619.369 1078.6 614.267 1080.88 621.673C1084.19 621.673 1086.22 623.155 1085.71 625.294C1090.29 625.294 1098.68 622.003 1101.47 620.192C1110.11 614.596 1117.23 602.252 1132.99 603.898C1133.75 607.519 1130.7 611.304 1128.41 614.432C1133.75 611.633 1141.37 605.05 1149.25 605.05C1149.25 607.519 1147.22 609.988 1145.69 612.127C1150.01 610.811 1155.86 606.86 1160.94 607.025C1167.04 607.19 1165.26 609.988 1165.52 613.279C1178.99 610.646 1192.21 596.985 1207.96 598.796C1227.53 601.1 1188.39 629.738 1184.07 633.195C1188.39 631.878 1196.27 630.397 1196.53 635.17C1200.85 631.713 1209.49 629.574 1214.57 634.018C1215.84 633.195 1219.15 631.384 1221.18 631.549C1227.28 632.207 1223.97 637.803 1226.77 640.108C1229.57 642.412 1229.31 640.272 1234.14 640.93C1236.68 641.26 1237.95 640.93 1238.72 642.906C1245.07 639.614 1245.58 646.856 1249.14 648.502C1250.92 649.325 1253.97 648.502 1256 649.325C1258.54 650.312 1259.81 652.287 1260.07 654.098C1275.06 648.666 1258.54 639.943 1256.51 633.853C1254.73 628.422 1261.08 623.319 1260.07 617.723C1259.3 612.292 1253.2 608.013 1250.66 602.91C1248.63 598.796 1246.85 589.085 1253.2 585.628C1257.78 583.159 1259.56 584.476 1261.34 587.274C1264.89 593.035 1261.08 597.973 1267.18 603.569C1274.55 610.317 1276.59 613.938 1272.01 621.509C1270.23 624.471 1269.21 628.092 1269.72 631.384C1270.23 635.828 1273.54 636.487 1277.35 639.778C1281.41 643.399 1278.87 661.669 1292.34 654.427C1296.92 651.958 1296.92 644.387 1294.38 641.26C1292.09 638.132 1286.5 636.651 1283.7 633.689C1277.6 626.611 1285.99 620.851 1287.26 613.773C1287.77 610.481 1287.77 607.354 1285.48 604.556C1283.45 601.923 1280.14 600.441 1279.38 597.314C1278.62 594.022 1280.4 590.072 1285.73 589.249C1292.34 588.097 1292.34 591.224 1293.11 594.845C1294.38 601.758 1292.09 609 1293.61 615.748C1295.14 623.155 1300.73 627.599 1307.34 633.359C1312.68 638.132 1311.66 643.235 1311.66 648.831C1311.66 652.123 1310.9 654.756 1313.95 657.389C1319.03 661.669 1325.13 658.706 1326.91 654.262C1328.94 648.995 1319.79 642.906 1318.52 637.474C1317.76 634.018 1321.32 630.726 1320.3 627.599C1319.28 624.307 1312.68 622.661 1311.66 619.205C1310.64 616.242 1313.69 612.292 1318.52 611.14C1324.88 609.658 1325.13 612.786 1326.4 616.407C1327.93 620.686 1325.89 624.307 1326.91 628.422C1327.67 632.372 1332.5 633.524 1333.77 637.309C1334.79 640.601 1333.52 643.893 1335.04 647.185C1337.07 651.3 1337.58 652.452 1335.3 656.896C1333.52 660.352 1330.97 663.479 1335.04 666.771C1338.85 669.734 1343.68 669.734 1346.73 666.936C1352.32 661.833 1344.19 655.085 1345.46 649.818C1346.22 646.527 1348 643.07 1348.51 639.449C1349.02 636.98 1348.26 631.22 1349.78 629.08C1354.36 622.661 1358.93 631.055 1358.42 634.676C1357.41 641.589 1350.8 643.564 1357.15 650.312C1362.49 656.073 1357.41 662.163 1363.76 668.088C1370.12 673.848 1373.17 675.659 1370.62 682.572C1369.35 685.534 1369.1 687.509 1371.13 689.814C1373.42 692.282 1379.26 693.27 1373.93 697.385C1376.22 696.726 1380.54 694.751 1383.08 694.258C1385.87 693.764 1387.65 695.245 1390.19 693.928C1393.75 692.118 1391.46 687.509 1392.99 684.711C1397.06 685.863 1398.07 683.888 1401.38 683.065C1405.19 682.242 1408.49 683.23 1411.8 682.736C1427.81 679.774 1420.69 679.115 1425.52 672.532C1426.54 671.215 1419.17 665.948 1421.46 662.821C1424.51 658.212 1431.88 658.542 1435.43 655.25C1446.11 645.868 1455.26 639.449 1436.2 628.092C1443.06 626.611 1453.99 621.18 1460.85 621.18C1466.95 621.18 1474.83 629.409 1480.42 627.928C1499.74 622.99 1481.44 607.683 1477.37 602.252C1452.46 568.511 1466.95 529.339 1455.77 493.623C1453.73 487.533 1445.85 484.241 1448.65 476.341C1476.86 478.645 1474.83 525.388 1477.88 538.885C1480.42 550.571 1489.57 562.092 1492.87 573.942C1497.19 590.731 1504.56 590.731 1519.56 603.898C1528.2 572.79 1511.68 556.496 1498.97 531.972C1491.86 518.147 1496.69 508.107 1492.36 494.446C1489.57 485.393 1469.74 475.518 1482.96 467.947C1502.53 475.682 1492.36 488.685 1497.7 500.042C1502.53 510.575 1515.75 520.451 1521.85 530.326C1527.18 538.885 1527.69 550.571 1532.27 560.775C1537.6 572.79 1550.82 580.855 1550.06 595.668C1587.17 592.87 1557.18 558.471 1554.63 547.937C1552.35 538.72 1553.36 531.807 1549.8 522.92C1547.26 516.665 1537.86 497.573 1559.21 508.436C1565.31 511.563 1570.39 527.528 1571.66 531.972C1574.97 544.481 1574.71 550.241 1582.08 560.775C1601.91 589.085 1604.19 563.902 1606.99 546.621C1617.41 544.152 1629.36 544.316 1636.22 549.583C1656.04 542.341 1630.12 524.73 1653.25 525.388C1653.5 523.578 1652.99 521.274 1654.01 519.463C1657.57 521.438 1666.72 523.907 1671.04 527.364C1694.17 515.842 1670.02 511.234 1660.87 503.169C1670.53 489.343 1694.17 496.421 1708.65 483.418C1722.38 471.074 1717.04 466.63 1740.68 461.363C1776.26 453.463 1798.88 465.149 1826.84 477.987C1840.05 484.076 1880.72 507.119 1899.78 504.65C1922.15 501.852 1913 481.608 1938.16 506.461C1968.91 536.91 1956.2 568.511 1940.95 600.771C1917.82 649.983 1967.13 776.552 1940.95 824.942C1925.96 852.593 1905.88 894.234 1854.79 899.666C1824.29 902.957 1792.27 901.311 1761.01 904.768C1707.89 910.693 1612.07 883.207 1559.46 879.75C1510.66 876.623 1464.92 886.169 1416.88 888.967C1361.98 892.259 1306.07 889.461 1251.93 895.715C1150.27 907.731 1056.74 904.768 954.06 904.768C901.449 904.768 842.01 877.329 789.908 874.695C729.164 871.568 670.2 878.481 609.71 878.152C559.133 877.823 510.081 865.972 458.995 868.276C411.722 870.252 371.565 896.304 333.407 868.276C261.989 877.987 36.1865 928.166 2.3836 886.195C-33.4526 841.921 -76.1926 740.103 -42.1355 696.652C-16.974 664.227 5.90023 637.893 -6.55348 600.696C-16.7198 570.411 -216.132 539.798 -6.55357 482.924C-19.0073 457.907 -20.5322 426.635 -38.3232 403.592C-57.385 379.233 -6.08696 372.32 -15.4908 348.948C-21.3364 334.135 -15.4908 329.856 51.8011 299.407Z" fill="#0B3A7A"/>
<g opacity="0.2">
<path d="M481.041 311.71C481.041 315.685 477.765 318.724 474.021 318.724C470.042 318.724 467 315.451 467 311.71C467 307.736 470.276 304.696 474.021 304.696C477.765 304.696 481.041 307.969 481.041 311.71Z" fill="#B1DDF6"/>
<path d="M507.486 329.244C507.486 332.517 504.912 335.089 501.635 335.089C498.359 335.089 495.785 332.517 495.785 329.244C495.785 325.971 498.593 323.399 501.635 323.399C504.912 323.399 507.486 325.971 507.486 329.244Z" fill="#B1DDF6"/>
<path d="M493.679 347.948C493.679 350.052 492.041 351.688 489.934 351.688C487.828 351.688 486.19 350.052 486.19 347.948C486.19 345.844 488.062 344.441 490.168 344.441C492.275 344.441 493.679 346.077 493.679 347.948Z" fill="#B1DDF6"/>
<path d="M643.688 500.848C647.694 500.848 650.942 497.603 650.942 493.6C650.942 489.597 647.694 486.353 643.688 486.353C639.681 486.353 636.433 489.597 636.433 493.6C636.433 497.603 639.681 500.848 643.688 500.848Z" fill="#B1DDF6"/>
<path d="M609.052 531.007C609.052 533.812 606.946 535.916 604.138 535.916C601.329 535.916 599.223 533.812 599.223 531.007C599.223 528.201 601.329 526.097 604.138 526.097C606.712 526.097 609.052 528.201 609.052 531.007Z" fill="#B1DDF6"/>
<path d="M643.688 549.476C643.688 551.347 642.05 552.983 640.177 552.983C638.305 552.983 636.667 551.347 636.667 549.476C636.667 547.606 638.305 545.97 640.177 545.97C642.05 545.736 643.688 547.372 643.688 549.476Z" fill="#B1DDF6"/>
<path d="M652.346 575.427C654.414 575.427 656.091 573.752 656.091 571.686C656.091 569.621 654.414 567.946 652.346 567.946C650.278 567.946 648.602 569.621 648.602 571.686C648.602 573.752 650.278 575.427 652.346 575.427Z" fill="#B1DDF6"/>
<path d="M1688.77 382.073C1688.77 385.113 1686.19 387.451 1683.38 387.451C1680.34 387.451 1678 384.879 1678 382.073C1678 379.034 1680.57 376.696 1683.38 376.696C1686.19 376.696 1688.77 379.034 1688.77 382.073Z" fill="#B1DDF6"/>
<path d="M1692.98 427.663C1695.69 427.663 1697.89 425.465 1697.89 422.753C1697.89 420.042 1695.69 417.844 1692.98 417.844C1690.26 417.844 1688.06 420.042 1688.06 422.753C1688.06 425.465 1690.26 427.663 1692.98 427.663Z" fill="#B1DDF6"/>
<path d="M1719.19 404.985C1719.19 408.024 1716.61 410.596 1713.57 410.596C1710.53 410.596 1707.96 408.024 1707.96 404.985C1707.96 401.946 1710.53 399.374 1713.57 399.374C1716.61 399.374 1719.19 401.946 1719.19 404.985Z" fill="#B1DDF6"/>
<path d="M1385.62 552.71C1385.62 557.152 1381.87 560.893 1377.42 560.893C1372.98 560.893 1369.23 557.152 1369.23 552.71C1369.23 548.268 1372.98 544.527 1377.42 544.527C1381.87 544.527 1385.62 548.268 1385.62 552.71Z" fill="#B1DDF6"/>
<path d="M1413.7 579.128C1413.7 582.402 1411.12 584.973 1407.85 584.973C1404.57 584.973 1402 582.402 1402 579.128C1402 575.855 1404.57 573.284 1407.85 573.284C1411.12 573.284 1413.7 576.089 1413.7 579.128Z" fill="#B1DDF6"/>
<path d="M1380.7 579.128C1380.7 582.402 1378.13 584.973 1374.85 584.973C1371.57 584.973 1369 582.402 1369 579.128C1369 575.855 1371.57 573.284 1374.85 573.284C1378.13 573.517 1380.7 576.089 1380.7 579.128Z" fill="#B1DDF6"/>
<path d="M1496.7 318.541C1496.7 321.814 1494.13 324.386 1490.85 324.386C1487.57 324.386 1485 321.814 1485 318.541C1485 315.268 1487.57 312.696 1490.85 312.696C1494.13 312.696 1496.7 315.268 1496.7 318.541Z" fill="#B1DDF6"/>
</g>
<path d="M292.5 768.337C227 852.337 73 797.337 -25 817.837L30.5 1034.84L1118.5 1098.34L1938.5 968.337L2043.5 801.337C2026.33 792.67 2056.4 743.596 1958 787.196C1493 878.196 1052.5 813.696 968 809.696C883.5 805.696 821 825.196 721 802.696C647.698 786.203 656.5 684.196 545 663.696C433.5 643.196 358 684.337 292.5 768.337Z" fill="#F9F9F9"/>
<g opacity="0.3">
<path d="M1321.18 468.407C1321.9 467.69 1322.26 466.973 1322.97 466.614C1323.33 466.255 1324.05 465.897 1324.05 465.18C1325.13 463.387 1322.97 463.387 1321.9 462.311C1324.05 462.311 1325.84 462.67 1328 463.028C1329.79 463.387 1331.58 464.104 1333.38 463.746C1334.45 463.746 1335.89 463.746 1336.97 463.387C1337.32 463.387 1338.04 463.028 1338.4 463.028C1338.76 463.028 1339.12 463.028 1339.48 462.67C1338.76 462.311 1338.04 462.311 1337.32 462.311C1336.61 462.311 1335.53 461.953 1334.81 461.236C1333.02 460.16 1332.3 458.009 1332.3 456.216C1332.3 454.423 1332.3 452.63 1332.66 450.838C1333.02 449.762 1333.38 449.045 1334.1 448.328C1334.81 447.252 1335.53 446.894 1336.61 446.177C1335.17 446.177 1333.74 446.894 1332.66 447.252C1331.58 447.611 1330.51 448.328 1329.79 448.686C1328.71 449.403 1328 450.121 1327.28 450.838C1325.13 451.913 1323.69 454.065 1321.9 455.499C1321.54 455.857 1321.18 456.216 1320.82 456.575C1320.1 457.65 1319.39 457.65 1318.67 457.65C1319.03 457.292 1319.39 457.292 1319.75 456.933C1319.75 456.933 1319.75 456.575 1320.1 456.216C1320.1 455.857 1320.46 455.857 1320.46 455.499C1320.82 454.782 1320.1 454.423 1319.75 454.065C1319.03 453.348 1319.03 453.348 1318.31 452.989C1317.23 452.63 1316.52 452.989 1315.44 452.989C1314.36 452.989 1312.93 452.63 1311.85 452.63C1310.78 452.63 1309.7 452.989 1308.62 452.63C1307.55 452.63 1306.47 452.989 1305.4 452.989C1304.32 452.989 1303.24 452.989 1301.81 452.989C1300.01 453.348 1298.22 453.706 1296.43 454.065C1293.92 454.782 1291.76 455.499 1289.61 456.933C1288.18 457.65 1286.38 458.726 1285.66 460.16C1284.59 461.594 1283.87 462.67 1283.15 464.104C1282.79 464.821 1282.08 465.538 1282.08 466.255C1281 468.407 1281 469.841 1281 471.275C1281 471.992 1281 472.709 1281 473.785C1281 474.502 1281 475.219 1281.36 475.578C1281.36 475.936 1281.36 476.295 1281.72 476.653C1280.64 477.012 1281 479.163 1282.44 478.805C1282.79 480.598 1283.87 479.88 1284.95 479.88C1285.31 479.88 1285.31 479.88 1285.66 479.88C1286.02 479.88 1286.02 479.88 1286.74 480.239C1287.46 480.598 1287.82 480.239 1288.18 480.239C1288.89 480.239 1289.61 480.239 1290.33 480.239C1291.05 480.239 1291.76 480.239 1292.84 480.239C1294.27 480.239 1296.07 479.88 1297.5 479.522C1301.09 478.805 1304.68 477.729 1308.27 476.295C1310.06 475.578 1312.21 474.861 1314.01 474.144C1315.8 473.427 1317.59 472.351 1319.03 471.275C1319.39 470.2 1320.46 469.124 1321.18 468.407Z" fill="#214487"/>
<path d="M1355.62 417.134C1355.98 416.417 1356.34 415.7 1356.7 415.341C1357.06 414.982 1357.42 414.624 1357.42 413.907C1357.77 412.114 1356.34 412.473 1355.26 412.114C1357.06 411.756 1358.49 411.756 1360.29 411.756C1361.72 411.756 1363.51 411.756 1364.95 411.397C1366.03 411.038 1367.1 411.038 1367.82 410.321C1368.18 409.963 1368.54 409.963 1368.9 409.604C1369.25 409.604 1369.61 409.604 1369.61 409.246C1369.25 408.887 1368.18 409.246 1367.82 409.246C1367.1 409.246 1366.38 409.246 1365.67 408.887C1364.23 408.529 1363.16 406.736 1362.8 405.302C1362.44 403.867 1362.08 402.433 1362.08 400.999C1362.08 400.282 1362.44 399.565 1362.8 398.848C1363.51 398.13 1363.87 397.413 1364.59 396.696C1363.51 396.696 1362.44 397.772 1361.36 398.489C1360.64 398.848 1359.93 399.565 1359.57 400.282C1358.85 400.999 1358.49 401.716 1357.77 402.433C1356.34 403.867 1355.62 405.66 1354.19 407.094C1353.83 407.453 1353.83 407.811 1353.47 408.17C1353.11 408.887 1352.39 408.887 1351.68 409.246C1352.03 408.887 1352.39 408.887 1352.39 408.529C1352.39 408.529 1352.39 408.17 1352.39 407.811C1352.39 407.453 1352.39 407.453 1352.75 407.453C1352.75 406.736 1352.39 406.736 1352.03 406.377C1351.32 406.019 1351.32 406.019 1350.6 406.019C1349.88 406.019 1349.16 406.377 1348.45 406.736C1347.37 407.094 1346.29 406.736 1345.58 407.094C1344.86 407.453 1343.78 407.811 1343.06 407.811C1341.99 407.811 1341.27 408.529 1340.55 408.529C1339.48 408.887 1338.76 408.887 1337.68 409.246C1336.25 409.604 1334.81 410.321 1333.38 411.038C1331.58 412.114 1329.79 413.19 1328.36 414.624C1327.28 415.341 1326.2 416.775 1325.49 417.851C1324.77 418.927 1324.41 420.361 1324.05 421.436C1323.69 422.154 1323.69 422.871 1323.33 423.588C1323.33 424.663 1323.69 425.739 1324.05 426.815C1324.05 427.532 1324.41 428.249 1324.41 428.607C1324.41 428.966 1324.77 429.683 1325.13 430.042C1325.13 430.4 1325.13 430.759 1325.49 430.759C1324.77 431.117 1325.49 432.91 1326.56 432.552C1326.92 433.986 1328 433.269 1328.71 432.91C1329.07 432.91 1329.07 432.91 1329.07 432.91C1329.43 432.91 1329.43 432.91 1329.79 432.91C1330.15 432.91 1330.51 432.552 1330.87 432.552C1331.58 432.193 1331.94 432.193 1332.66 432.193C1333.38 432.193 1334.1 431.834 1334.45 431.834C1335.89 431.476 1336.97 431.117 1338.04 430.4C1340.91 429.325 1343.42 427.532 1346.29 426.098C1347.73 425.381 1349.16 424.305 1350.24 423.229C1351.32 422.154 1352.75 421.436 1353.83 420.002C1354.55 418.927 1355.26 417.851 1355.62 417.134Z" fill="#214487"/>
<path d="M1378.94 489.92C1379.3 489.203 1379.66 488.486 1380.02 488.127C1380.38 487.769 1380.73 487.41 1380.73 486.693C1381.09 484.9 1379.66 485.259 1378.58 484.9C1380.38 484.542 1381.81 484.542 1383.6 484.542C1385.04 484.542 1386.83 484.542 1388.27 484.183C1389.34 483.825 1390.06 483.825 1391.14 483.107C1391.5 482.749 1391.86 482.749 1392.21 482.39C1392.57 482.39 1392.93 482.39 1392.93 482.032C1392.57 481.673 1391.5 482.032 1391.14 482.032C1390.42 482.032 1389.7 482.032 1388.99 481.673C1387.55 481.315 1386.47 479.522 1386.12 478.088C1385.76 476.653 1385.4 475.219 1385.4 473.785C1385.4 473.068 1385.76 472.351 1386.12 471.634C1386.47 470.558 1387.19 470.2 1387.55 469.482C1386.47 469.482 1385.4 470.558 1384.32 471.275C1383.6 471.634 1382.89 472.351 1382.17 473.068C1381.45 473.785 1381.09 474.502 1380.38 475.219C1378.94 476.653 1378.22 478.446 1376.79 479.88C1376.43 480.239 1376.43 480.598 1376.07 480.956C1375.71 481.673 1374.99 481.673 1374.28 482.032C1374.64 481.673 1374.99 481.673 1374.99 481.315C1374.99 481.315 1374.99 480.956 1374.99 480.598C1374.99 480.239 1374.99 480.239 1375.35 480.239C1375.35 479.522 1374.99 479.522 1374.64 479.163C1373.92 478.805 1373.92 478.805 1373.2 478.805C1372.48 478.805 1371.77 479.163 1371.05 479.522C1369.97 479.88 1368.9 479.522 1368.18 479.88C1367.46 480.239 1366.38 480.598 1365.67 480.598C1364.59 480.598 1363.87 481.315 1363.16 481.315C1362.08 481.673 1361.36 481.673 1360.29 482.032C1358.85 482.39 1357.42 483.107 1355.98 483.825C1354.19 484.9 1352.39 485.976 1350.96 487.41C1349.88 488.127 1348.81 489.561 1348.09 490.637C1347.37 491.713 1347.01 493.147 1346.65 494.223C1346.29 494.94 1346.29 495.657 1345.94 496.374C1345.94 497.45 1346.29 498.525 1346.65 499.601C1346.65 500.318 1347.01 501.035 1347.01 501.394C1347.01 501.752 1347.37 502.469 1347.73 502.828C1347.73 503.186 1347.73 503.545 1348.09 503.545C1347.37 503.903 1348.09 505.696 1349.16 505.338C1349.52 506.772 1350.6 506.055 1351.32 505.696C1351.68 505.696 1351.68 505.696 1351.68 505.696C1352.03 505.696 1352.03 505.696 1352.39 505.696C1352.75 505.696 1353.11 505.338 1353.47 505.338C1354.19 504.979 1354.55 504.979 1355.26 504.979C1355.98 504.979 1356.7 504.621 1357.06 504.621C1358.49 504.262 1359.57 503.903 1360.64 503.186C1363.51 502.111 1366.03 500.318 1368.9 498.884C1370.33 498.167 1371.77 497.091 1372.84 496.015C1373.92 494.94 1375.35 494.223 1376.43 492.788C1377.86 491.354 1378.58 490.637 1378.94 489.92Z" fill="#214487"/>
<path d="M1401.54 406.019C1401.9 405.66 1401.9 405.301 1401.9 405.301C1401.9 404.943 1402.26 404.943 1402.26 404.584C1402.62 403.867 1401.9 403.867 1401.54 403.867C1402.26 403.867 1402.98 403.509 1404.05 403.867C1404.77 403.867 1405.49 403.867 1406.21 403.867C1406.56 403.867 1406.92 403.509 1407.64 403.509L1408 403.15C1408 403.15 1408.36 403.15 1408.36 402.792C1408 402.792 1407.64 402.792 1407.64 402.792C1407.28 402.792 1406.92 402.792 1406.56 402.792C1405.85 402.433 1405.49 401.716 1405.13 400.999C1405.13 400.282 1404.77 399.565 1404.77 399.206C1404.77 398.847 1405.13 398.489 1405.13 398.13C1405.13 397.772 1405.49 397.413 1405.85 397.055C1405.49 397.055 1404.77 397.413 1404.41 397.772C1404.05 398.13 1403.69 398.13 1403.34 398.489C1402.98 398.489 1402.98 398.847 1402.62 399.206C1401.9 399.923 1401.54 400.64 1400.82 401.357L1400.47 401.716C1400.11 402.074 1400.11 402.074 1399.75 402.074L1400.11 401.716V401.357C1400.11 401.357 1400.11 401.357 1400.11 400.999C1400.11 400.64 1400.11 400.64 1399.75 400.64H1399.39C1399.03 400.64 1398.67 400.64 1398.31 400.999C1397.95 400.999 1397.24 400.999 1396.88 401.357C1396.52 401.357 1396.16 401.716 1395.8 401.716C1395.44 401.716 1395.08 402.074 1394.73 402.074C1394.37 402.074 1394.01 402.074 1393.29 402.433C1392.57 402.792 1391.86 402.792 1391.5 403.15C1390.78 403.509 1389.7 404.226 1388.99 404.584C1388.63 404.943 1387.91 405.66 1387.91 406.019C1387.55 406.736 1387.55 407.094 1387.19 407.811C1387.19 408.17 1386.83 408.528 1386.83 408.887C1386.83 409.245 1386.83 409.963 1387.19 410.321C1387.19 410.68 1387.19 411.038 1387.55 411.038C1387.55 411.397 1387.55 411.397 1387.91 411.755V412.114C1387.55 412.472 1387.91 413.19 1388.27 412.831C1388.63 413.548 1388.99 413.19 1389.34 412.831C1389.34 412.831 1389.34 412.831 1389.7 412.831C1390.06 412.831 1390.06 412.831 1390.06 412.831C1390.42 412.831 1390.42 412.831 1390.42 412.831C1390.78 412.831 1391.14 412.831 1391.14 412.831C1391.5 412.831 1391.86 412.831 1391.86 412.472C1392.57 412.472 1392.93 412.114 1393.65 411.755C1395.08 411.038 1396.16 410.321 1397.24 409.604C1397.95 409.245 1398.67 408.887 1399.03 408.17C1399.39 407.811 1400.11 407.453 1400.47 406.736C1401.18 406.736 1401.54 406.377 1401.54 406.019Z" fill="#214487"/>
</g>
</g>
<defs>
<linearGradient id="paint0_linear" x1="359.085" y1="869.092" x2="1243.58" y2="-247.309" gradientUnits="userSpaceOnUse">
<stop stop-color="#253A80"/>
<stop offset="1" stop-color="#1E6DB5"/>
</linearGradient>
<linearGradient id="paint1_linear" x1="1384.14" y1="850.444" x2="1439.49" y2="424.849" gradientUnits="userSpaceOnUse">
<stop stop-color="#0B4693"/>
<stop offset="0.987464" stop-color="#05569F"/>
</linearGradient>
</defs>
</svg>
