<svg width="1920" height="556" viewBox="0 0 1920 556" fill="none" xmlns="http://www.w3.org/2000/svg">
<mask id="mask0" mask-type="alpha" maskUnits="userSpaceOnUse" x="0" y="0" width="1920" height="556">
<path d="M1920 515.011C1626.74 482.601 1241.04 559.254 941 555.456C631.149 551.533 333.623 493.107 0 530.29V0H1920V515.011Z" fill="#F9F9F9"/>
</mask>
<g mask="url(#mask0)">
<rect width="1920" height="803" fill="url(#paint0_linear)"/>
<mask id="mask1" mask-type="alpha" maskUnits="userSpaceOnUse" x="0" y="0" width="1920" height="803">
<rect width="1920" height="803" fill="url(#paint1_linear)"/>
</mask>
<g mask="url(#mask1)">
<g opacity="0.1">
<path d="M712.061 420.119C712.061 422.855 709.958 424.959 707.224 424.959C704.491 424.959 702.388 422.855 702.388 420.119C702.388 417.384 704.491 415.279 707.224 415.279C709.958 415.279 712.061 417.384 712.061 420.119Z" fill="#B1DDF6"/>
<path d="M734.14 374.667C734.14 376.14 732.878 377.403 731.407 377.403C729.935 377.403 728.673 376.14 728.673 374.667C728.673 373.195 729.935 371.932 731.407 371.932C732.878 371.722 734.14 372.984 734.14 374.667Z" fill="#B1DDF6"/>
<path d="M691.453 388.556C693.195 388.556 694.607 387.142 694.607 385.399C694.607 383.656 693.195 382.243 691.453 382.243C689.711 382.243 688.299 383.656 688.299 385.399C688.299 387.142 689.711 388.556 691.453 388.556Z" fill="#B1DDF6"/>
<path d="M670.635 220.847C670.635 223.793 668.322 226.318 665.168 226.318C662.224 226.318 659.701 224.004 659.701 220.847C659.701 217.901 662.014 215.376 665.168 215.376C668.322 215.376 670.635 217.901 670.635 220.847Z" fill="#B1DDF6"/>
<path d="M686.827 212.641C686.827 214.114 685.565 215.376 684.094 215.376C682.622 215.376 681.36 214.114 681.36 212.641C681.36 211.168 682.622 209.905 684.094 209.905C685.565 209.695 686.827 210.957 686.827 212.641Z" fill="#B1DDF6"/>
<path d="M670.635 187.179C670.635 188.652 669.374 189.915 667.902 189.915C666.43 189.915 665.168 188.652 665.168 187.179C665.168 185.706 666.43 184.444 667.902 184.444C669.374 184.444 670.635 185.706 670.635 187.179Z" fill="#B1DDF6"/>
<path d="M803.112 63.4497C803.112 66.1852 801.01 68.2894 798.276 68.2894C795.542 68.2894 793.439 66.1852 793.439 63.4497C793.439 60.7142 795.542 58.6099 798.276 58.6099C801.01 58.6099 803.112 60.9246 803.112 63.4497Z" fill="#B1DDF6"/>
<path d="M766.103 56.7161C767.38 56.7161 768.416 55.6798 768.416 54.4014C768.416 53.123 767.38 52.0867 766.103 52.0867C764.825 52.0867 763.79 53.123 763.79 54.4014C763.79 55.6798 764.825 56.7161 766.103 56.7161Z" fill="#B1DDF6"/>
<path d="M569.701 163.822C569.701 167.399 566.757 170.556 562.972 170.556C559.187 170.556 556.243 167.61 556.243 163.822C556.243 160.035 559.187 157.089 562.972 157.089C566.757 157.089 569.701 160.035 569.701 163.822Z" fill="#B1DDF6"/>
<path d="M546.57 146.567C547.731 146.567 548.673 145.625 548.673 144.463C548.673 143.301 547.731 142.359 546.57 142.359C545.409 142.359 544.467 143.301 544.467 144.463C544.467 145.625 545.409 146.567 546.57 146.567Z" fill="#B1DDF6"/>
<path d="M580.215 99.6427C580.215 101.326 578.953 102.589 577.271 102.589C575.589 102.589 574.327 101.326 574.327 99.6427C574.327 97.9593 575.589 96.6967 577.271 96.6967C578.953 96.9072 580.215 98.1697 580.215 99.6427Z" fill="#B1DDF6"/>
<path d="M387.388 85.3338C389.363 85.3338 390.963 83.7322 390.963 81.7566C390.963 79.781 389.363 78.1794 387.388 78.1794C385.414 78.1794 383.813 79.781 383.813 81.7566C383.813 83.7322 385.414 85.3338 387.388 85.3338Z" fill="#B1DDF6"/>
<path d="M406.103 94.3821C406.103 95.6446 405.051 96.6967 403.79 96.6967C402.528 96.6967 401.477 95.6446 401.477 94.3821C401.477 93.1195 402.528 92.0674 403.79 92.0674C404.841 92.0674 406.103 93.1195 406.103 94.3821Z" fill="#B1DDF6"/>
<path d="M457.622 19.2605C459.248 19.2605 460.566 17.9416 460.566 16.3146C460.566 14.6876 459.248 13.3687 457.622 13.3687C455.996 13.3687 454.678 14.6876 454.678 16.3146C454.678 17.9416 455.996 19.2605 457.622 19.2605Z" fill="#B1DDF6"/>
<path d="M619.958 341.21C619.958 344.577 617.224 347.312 613.86 347.312C610.495 347.312 607.762 344.577 607.762 341.21C607.762 337.843 610.495 335.108 613.86 335.108C617.224 335.108 619.958 337.843 619.958 341.21Z" fill="#B1DDF6"/>
<path d="M628.579 359.307C629.392 359.307 630.051 358.647 630.051 357.834C630.051 357.02 629.392 356.361 628.579 356.361C627.766 356.361 627.107 357.02 627.107 357.834C627.107 358.647 627.766 359.307 628.579 359.307Z" fill="#B1DDF6"/>
<path d="M632.154 468.938C632.154 471.463 630.051 473.567 627.528 473.567C625.005 473.567 622.902 471.463 622.902 468.938C622.902 466.413 625.005 464.308 627.528 464.308C630.051 464.308 632.154 466.413 632.154 468.938Z" fill="#B1DDF6"/>
<path d="M627.318 494.399C627.318 496.503 625.635 498.187 623.533 498.187C621.43 498.187 619.748 496.503 619.748 494.399C619.748 492.295 621.43 490.611 623.533 490.611C625.635 490.611 627.318 492.505 627.318 494.399Z" fill="#B1DDF6"/>
<path d="M942.318 459.679C942.318 462.625 939.795 465.15 936.851 465.15C933.907 465.15 931.383 462.625 931.383 459.679C931.383 456.733 933.907 454.208 936.851 454.208C939.795 454.208 942.318 456.523 942.318 459.679Z" fill="#B1DDF6"/>
<path d="M959.14 450.42C959.14 452.525 957.458 453.998 955.566 453.998C953.463 453.998 951.991 452.314 951.991 450.42C951.991 448.316 953.673 446.843 955.566 446.843C957.458 446.843 959.14 448.527 959.14 450.42Z" fill="#B1DDF6"/>
<path d="M941.687 440.11C941.687 441.372 940.635 442.635 939.163 442.635C937.902 442.635 936.64 441.583 936.64 440.11C936.64 438.847 937.692 437.584 939.163 437.584C940.635 437.795 941.687 438.847 941.687 440.11Z" fill="#B1DDF6"/>
<path d="M1203.49 371.722C1206.97 371.722 1209.79 368.895 1209.79 365.409C1209.79 361.922 1206.97 359.096 1203.49 359.096C1200 359.096 1197.18 361.922 1197.18 365.409C1197.18 368.895 1200 371.722 1203.49 371.722Z" fill="#B1DDF6"/>
<path d="M1185.82 359.517C1185.82 360.569 1184.98 361.2 1184.14 361.2C1183.09 361.2 1182.46 360.359 1182.46 359.517C1182.46 358.465 1183.3 357.834 1184.14 357.834C1185.19 357.834 1185.82 358.465 1185.82 359.517Z" fill="#B1DDF6"/>
<path d="M1200.33 347.523C1202.07 347.523 1203.49 346.11 1203.49 344.366C1203.49 342.623 1202.07 341.21 1200.33 341.21C1198.59 341.21 1197.18 342.623 1197.18 344.366C1197.18 346.11 1198.59 347.523 1200.33 347.523Z" fill="#B1DDF6"/>
<path d="M1212.11 330.689C1212.11 333.214 1210.21 335.108 1207.69 335.108C1205.17 335.108 1203.28 333.214 1203.28 330.689C1203.28 328.164 1205.17 326.27 1207.69 326.27C1210.21 326.48 1212.11 328.374 1212.11 330.689Z" fill="#B1DDF6"/>
<path d="M1306.52 383.716C1310.01 383.716 1312.83 380.89 1312.83 377.403C1312.83 373.917 1310.01 371.09 1306.52 371.09C1303.04 371.09 1300.21 373.917 1300.21 377.403C1300.21 380.89 1303.04 383.716 1306.52 383.716Z" fill="#B1DDF6"/>
<path d="M1241.97 536.273C1243.83 536.273 1245.33 534.766 1245.33 532.907C1245.33 531.047 1243.83 529.54 1241.97 529.54C1240.11 529.54 1238.6 531.047 1238.6 532.907C1238.6 534.766 1240.11 536.273 1241.97 536.273Z" fill="#B1DDF6"/>
<path d="M1174.47 549.53C1176.79 549.53 1178.67 547.646 1178.67 545.322C1178.67 542.997 1176.79 541.113 1174.47 541.113C1172.14 541.113 1170.26 542.997 1170.26 545.322C1170.26 547.646 1172.14 549.53 1174.47 549.53Z" fill="#B1DDF6"/>
<path d="M1178.67 523.648C1178.25 525.963 1176.15 527.646 1173.84 527.225C1171.52 526.805 1169.84 524.7 1170.26 522.386C1170.68 520.071 1172.78 518.388 1175.1 518.808C1177.41 519.229 1179.09 521.333 1178.67 523.648Z" fill="#B1DDF6"/>
<path d="M1190.87 541.745C1193.31 541.745 1195.28 539.766 1195.28 537.326C1195.28 534.885 1193.31 532.907 1190.87 532.907C1188.43 532.907 1186.45 534.885 1186.45 537.326C1186.45 539.766 1188.43 541.745 1190.87 541.745Z" fill="#B1DDF6"/>
<path d="M1122.74 555.843C1124.48 555.843 1125.89 554.43 1125.89 552.687C1125.89 550.943 1124.48 549.53 1122.74 549.53C1121 549.53 1119.58 550.943 1119.58 552.687C1119.58 554.43 1121 555.843 1122.74 555.843Z" fill="#B1DDF6"/>
<path d="M1334.07 209.695C1335.81 209.695 1337.22 208.282 1337.22 206.538C1337.22 204.795 1335.81 203.382 1334.07 203.382C1332.33 203.382 1330.92 204.795 1330.92 206.538C1330.92 208.282 1332.33 209.695 1334.07 209.695Z" fill="#B1DDF6"/>
<path d="M1306.52 201.699C1306.52 202.961 1305.47 204.224 1304 204.224C1302.74 204.224 1301.48 203.172 1301.48 201.699C1301.48 200.436 1302.53 199.173 1304 199.173C1305.26 199.173 1306.52 200.436 1306.52 201.699Z" fill="#B1DDF6"/>
<path d="M1326.29 220.847C1326.29 223.793 1323.98 226.318 1320.82 226.318C1317.88 226.318 1315.35 224.004 1315.35 220.847C1315.35 217.901 1317.67 215.376 1320.82 215.376C1323.98 215.376 1326.29 217.901 1326.29 220.847Z" fill="#B1DDF6"/>
<path d="M1363.72 87.2276C1363.72 90.384 1360.99 93.1195 1357.83 93.1195C1354.68 93.1195 1351.94 90.384 1351.94 87.2276C1351.94 84.0713 1354.68 81.3358 1357.83 81.3358C1361.2 81.3358 1363.72 84.0713 1363.72 87.2276Z" fill="#B1DDF6"/>
<path d="M1339.33 101.116C1340.49 101.116 1341.43 100.174 1341.43 99.0114C1341.43 97.8493 1340.49 96.9072 1339.33 96.9072C1338.17 96.9072 1337.22 97.8493 1337.22 99.0114C1337.22 100.174 1338.17 101.116 1339.33 101.116Z" fill="#B1DDF6"/>
<path d="M1570.64 12.7373C1570.64 15.2624 1568.53 17.3667 1566.01 17.3667C1563.49 17.3667 1561.38 15.2624 1561.38 12.7373C1561.38 10.2122 1563.49 8.10797 1566.01 8.10797C1568.53 8.3184 1570.64 10.2122 1570.64 12.7373Z" fill="#B1DDF6"/>
<path d="M1267.2 107.428C1271.15 107.428 1274.35 104.225 1274.35 100.274C1274.35 96.3227 1271.15 93.1195 1267.2 93.1195C1263.25 93.1195 1260.05 96.3227 1260.05 100.274C1260.05 104.225 1263.25 107.428 1267.2 107.428Z" fill="#B1DDF6"/>
<path d="M1281.5 122.158C1283.24 122.158 1284.65 120.745 1284.65 119.002C1284.65 117.258 1283.24 115.845 1281.5 115.845C1279.76 115.845 1278.35 117.258 1278.35 119.002C1278.35 120.745 1279.76 122.158 1281.5 122.158Z" fill="#B1DDF6"/>
<path d="M1267.83 137.94C1267.83 140.044 1266.15 141.728 1264.05 141.728C1261.94 141.728 1260.26 140.044 1260.26 137.94C1260.26 135.836 1261.94 134.152 1264.05 134.152C1266.15 134.152 1267.83 135.836 1267.83 137.94Z" fill="#B1DDF6"/>
<path d="M1130.1 4.74123C1130.1 7.0559 1128.21 8.73929 1126.1 8.73929C1123.79 8.73929 1122.11 6.84547 1122.11 4.74123C1122.11 2.63699 1124 0.743164 1126.1 0.743164C1128.42 0.743164 1130.1 2.63699 1130.1 4.74123Z" fill="#B1DDF6"/>
<path d="M1174.05 8.31842C1174.05 10.2122 1172.36 11.8956 1170.47 11.8956C1168.58 11.8956 1166.9 10.2122 1166.9 8.31842C1166.9 6.4246 1168.58 4.74121 1170.47 4.74121C1172.58 4.74121 1174.05 6.4246 1174.05 8.31842Z" fill="#B1DDF6"/>
<path d="M1151.34 15.4729C1151.34 17.3667 1149.86 18.8397 1147.97 18.8397C1146.08 18.8397 1144.61 17.3667 1144.61 15.4729C1144.61 13.5791 1146.08 12.1061 1147.97 12.1061C1149.86 11.8957 1151.34 13.5791 1151.34 15.4729Z" fill="#B1DDF6"/>
<path d="M974.28 105.324C974.28 106.797 973.019 108.06 971.547 108.06C970.075 108.06 968.813 106.797 968.813 105.324C968.813 103.851 970.075 102.589 971.547 102.589C973.019 102.589 974.28 103.851 974.28 105.324Z" fill="#B1DDF6"/>
<path d="M992.785 122.158C994.527 122.158 995.939 120.745 995.939 119.002C995.939 117.258 994.527 115.845 992.785 115.845C991.043 115.845 989.631 117.258 989.631 119.002C989.631 120.745 991.043 122.158 992.785 122.158Z" fill="#B1DDF6"/>
<path d="M968.603 126.787C968.603 129.313 966.5 131.627 963.766 131.627C961.032 131.627 958.93 129.523 958.93 126.787C958.93 124.052 961.032 121.948 963.766 121.948C966.5 121.948 968.603 124.262 968.603 126.787Z" fill="#B1DDF6"/>
<path d="M981.43 143.832C983.056 143.832 984.374 142.513 984.374 140.886C984.374 139.259 983.056 137.94 981.43 137.94C979.804 137.94 978.486 139.259 978.486 140.886C978.486 142.513 979.804 143.832 981.43 143.832Z" fill="#B1DDF6"/>
</g>
<g style="mix-blend-mode:multiply" opacity="0.1">
<path d="M0 198.377C124.416 195.932 250.112 197.514 373.248 200.821C715.776 210.024 1063.68 230.156 1399.55 203.41C1584.64 188.742 1757.7 160.27 1920 123.744V49.256C1677.82 97.1414 1439.23 147.903 1170.69 146.177C861.184 144.308 591.616 72.4078 300.544 32H0V198.377Z" fill="#264892"/>
<path d="M1920 539.183C1611.26 470.446 1239.81 441.542 883.712 459.661C554.752 476.486 241.664 533.287 0 618.56V751H126.976C180.224 737.195 226.56 718.214 271.104 700.239C473.088 619.279 728.064 543.353 1024 542.634C1256.96 542.059 1471.74 588.506 1661.18 639.267C1747.46 662.419 1832.45 687.009 1920 709.442V539.183Z" fill="#264892"/>
<path d="M1127.42 404.298C1409.02 413.933 1658.88 469.727 1920 512.292V205.567C1802.5 224.261 1681.41 239.791 1556.74 250.864C1244.67 278.761 920.064 279.336 601.856 294.435C396.032 304.07 187.136 321.038 0 353.249V540.045C359.168 471.74 728.576 390.637 1127.42 404.298Z" fill="#264892"/>
<path d="M1920 309.822C1603.07 321.038 1279.74 312.41 959.744 312.41C634.368 312.41 295.936 323.339 0 370.361V433.921C157.184 409.763 310.016 381.434 471.808 361.877C865.024 314.567 1291.52 322.907 1697.54 350.805C1771.01 355.838 1845.76 361.446 1920 361.302V309.822Z" fill="#264892"/>
</g>
<ellipse opacity="0.25" cx="967" cy="386" rx="635" ry="332" fill="url(#paint2_radial)"/>
</g>
</g>
<defs>
<linearGradient id="paint0_linear" x1="359.085" y1="813.145" x2="1121.04" y2="-267.155" gradientUnits="userSpaceOnUse">
<stop stop-color="#253A80"/>
<stop offset="1" stop-color="#1E6DB5"/>
</linearGradient>
<linearGradient id="paint1_linear" x1="359.085" y1="813.145" x2="1121.04" y2="-267.155" gradientUnits="userSpaceOnUse">
<stop stop-color="#253A80"/>
<stop offset="1" stop-color="#1E6DB5"/>
</linearGradient>
<radialGradient id="paint2_radial" cx="0" cy="0" r="1" gradientUnits="userSpaceOnUse" gradientTransform="translate(967 386) rotate(90) scale(332 635)">
<stop stop-color="#B1DCF5"/>
<stop offset="1" stop-color="#B1DCF5" stop-opacity="0"/>
</radialGradient>
</defs>
</svg>
