<svg width="1920" height="4377" viewBox="0 0 1920 4377" fill="none" xmlns="http://www.w3.org/2000/svg">
<g clip-path="url(#clip0)">
<rect width="1920" height="4377" fill="#F9F9F9"/>
<path d="M3.62843 3422.38C5.07636 3410.12 0.00860596 3397.14 -9.40296 3389.21C-10.1269 3388.49 -10.1269 3388.49 -10.8509 3387.77C-10.8509 3386.33 -10.8509 3384.16 -10.8509 3382.72C-11.5749 3379.84 -13.0228 3377.67 -15.9187 3376.23C-18.0906 3375.51 -20.2625 3375.51 -22.4344 3374.79C-23.8823 3374.07 -25.3302 3372.63 -26.7782 3371.91C-29.674 3369.74 -34.0178 3370.46 -38.3616 3370.46C-41.2575 3370.46 -44.1534 3370.46 -47.0492 3370.46C-52.117 3370.46 -57.9087 3370.46 -62.9765 3371.91C-64.4244 3372.63 -66.5963 3373.35 -68.0443 3374.07C-68.7682 3374.07 -68.7682 3374.79 -69.4922 3374.79C-70.9401 3374.07 -71.6641 3373.35 -72.3881 3372.63C-73.112 3371.91 -73.836 3370.46 -74.56 3369.74C-75.2839 3368.3 -76.7319 3367.58 -77.4558 3366.14C-81.0757 3361.81 -86.1434 3357.48 -91.2112 3354.6C-91.9352 3353.88 -92.6591 3353.88 -93.3831 3353.88C-94.1071 3353.88 -94.1071 3354.6 -94.1071 3355.32C-94.1071 3356.04 -94.1071 3356.76 -94.1071 3357.48C-93.3831 3358.93 -92.6591 3361.09 -92.6591 3362.53C-91.9351 3363.97 -91.9352 3366.14 -93.3831 3367.58C-94.1071 3369.02 -95.555 3370.46 -97.0029 3371.18C-98.4509 3371.91 -100.623 3371.91 -102.071 3372.63C-102.795 3372.63 -104.243 3373.35 -104.967 3374.07C-104.967 3374.07 -104.967 3374.79 -104.967 3376.23C-104.967 3377.67 -102.795 3378.4 -101.347 3378.4C-95.555 3379.84 -89.0393 3380.56 -83.2476 3380.56C-81.7996 3380.56 -80.3517 3380.56 -79.6277 3379.84C-78.1798 3379.84 -76.7319 3381.28 -76.0079 3382C-73.836 3384.16 -73.112 3386.33 -71.6641 3389.21C-71.6641 3389.93 -70.9401 3390.65 -70.2162 3391.37C-70.9401 3391.37 -70.9401 3392.1 -71.6641 3392.1C-72.3881 3392.1 -73.112 3392.82 -74.56 3392.82C-73.112 3398.59 -70.2162 3405.07 -65.8724 3408.68C-65.1484 3409.4 -63.7005 3410.12 -62.2525 3410.84C-60.8046 3411.56 -59.3567 3408.68 -57.1848 3407.24C-52.117 3411.56 -46.3253 3415.89 -40.5335 3418.77C-27.5021 3425.26 -13.0228 3426.71 1.45654 3424.54C1.45654 3423.82 1.45654 3423.82 1.45654 3423.1C1.45654 3422.38 2.1805 3422.38 3.62843 3422.38Z" fill="white"/>
<path d="M257.017 3489.44C253.397 3477.18 243.985 3467.81 232.402 3463.48C231.678 3463.48 230.954 3462.76 230.23 3462.76C229.506 3461.32 228.782 3459.88 228.058 3458.43C226.61 3456.27 223.714 3454.11 221.542 3454.83C219.37 3454.83 217.198 3456.27 215.027 3455.55C213.579 3455.55 211.407 3454.83 209.959 3454.11C206.339 3453.39 202.719 3455.55 199.099 3456.99C196.203 3458.43 194.032 3459.15 191.136 3460.6C186.068 3462.76 181 3464.92 176.656 3467.81C175.208 3468.53 173.761 3469.97 173.037 3471.41C172.313 3472.13 172.313 3472.13 171.589 3472.85C170.141 3472.85 168.693 3472.13 167.969 3472.13C167.245 3471.41 165.797 3470.69 165.073 3470.69C163.625 3469.97 162.177 3469.25 160.729 3468.53C155.661 3465.64 149.87 3464.2 143.354 3462.76C142.63 3462.76 141.906 3462.76 141.182 3462.76C141.182 3463.48 141.182 3464.2 141.182 3464.92C141.182 3465.64 141.906 3466.36 141.906 3466.36C143.354 3467.81 144.078 3469.25 145.526 3470.69C146.25 3472.13 146.974 3473.58 146.974 3475.74C146.974 3477.18 145.526 3479.34 144.802 3480.06C143.354 3481.51 141.906 3482.23 140.458 3483.67C139.734 3484.39 139.01 3485.11 138.286 3485.83C137.562 3486.55 137.562 3488 138.286 3488.72C139.01 3490.16 141.182 3490.16 142.63 3489.44C148.422 3488.72 154.213 3486.55 160.005 3484.39C161.453 3483.67 162.177 3482.95 163.625 3482.23C165.073 3482.23 166.521 3482.23 167.969 3482.95C170.141 3483.67 172.313 3485.83 174.484 3487.28C175.208 3488 175.932 3488 175.932 3488.72L175.208 3489.44C174.484 3490.16 173.761 3490.88 173.037 3490.88C176.656 3495.93 181.724 3500.25 186.792 3502.42C188.24 3503.14 189.688 3503.14 190.412 3503.14C191.86 3503.14 192.584 3500.25 193.308 3498.09C199.823 3500.25 206.339 3501.7 212.855 3502.42C227.334 3503.14 241.813 3499.53 253.397 3491.6C253.397 3490.88 252.673 3490.88 252.673 3490.16C255.569 3490.16 256.293 3489.44 257.017 3489.44Z" fill="white"/>
<path d="M314.934 3373.35C306.97 3363.25 294.663 3358.21 282.355 3358.21C281.631 3358.21 280.907 3358.21 280.183 3358.21C279.459 3356.76 278.012 3356.04 276.564 3354.6C274.392 3353.16 271.496 3352.44 268.6 3353.16C266.428 3353.88 264.98 3356.04 262.808 3356.76C261.36 3357.48 259.188 3356.76 257.74 3357.48C254.121 3358.21 251.225 3361.81 249.053 3364.7C246.881 3366.86 245.433 3369.02 243.261 3370.46C239.641 3374.07 235.298 3377.67 233.126 3382.72C232.402 3384.16 231.678 3385.61 230.954 3387.77C230.954 3388.49 230.23 3389.21 230.23 3389.21C228.782 3389.93 227.334 3389.93 226.61 3389.93C225.886 3389.93 224.438 3389.93 222.99 3389.21C221.542 3389.21 220.094 3388.49 218.646 3388.49C212.855 3387.77 206.339 3388.49 200.547 3389.93C199.823 3389.93 199.099 3390.65 198.375 3390.65C198.375 3391.37 198.375 3392.1 198.375 3392.1C199.099 3392.82 199.099 3392.82 199.823 3393.54C201.271 3394.26 203.443 3394.98 204.891 3395.7C206.339 3396.42 207.787 3397.86 208.511 3400.03C209.235 3401.47 208.511 3403.63 207.787 3405.07C207.063 3406.52 206.339 3407.96 204.891 3409.4C204.167 3410.12 204.167 3410.84 203.443 3412.29C203.443 3413.01 203.443 3414.45 204.167 3415.17C205.615 3415.89 207.063 3415.17 208.511 3414.45C213.579 3411.56 218.646 3407.24 222.99 3402.91C223.714 3402.19 225.162 3400.75 225.886 3400.03C227.334 3399.31 228.782 3399.31 230.23 3399.31C233.126 3399.31 235.298 3400.03 238.193 3401.47C238.917 3401.47 239.641 3402.19 240.365 3402.19C240.365 3402.91 239.641 3402.91 239.641 3403.63C238.917 3404.35 238.917 3405.07 238.193 3405.8C243.261 3409.4 249.777 3411.56 255.569 3411.56C257.017 3411.56 258.464 3411.56 259.188 3410.84C260.636 3410.12 259.912 3407.24 259.912 3405.07C266.428 3405.07 273.668 3403.63 280.183 3401.47C293.939 3397.14 305.522 3387.77 314.21 3376.23C313.486 3376.23 313.486 3375.51 312.762 3375.51C314.21 3374.79 314.934 3374.07 314.934 3373.35Z" fill="white"/>
<path d="M451.04 3356.04C440.904 3348.83 427.149 3347.39 415.565 3352.44C414.841 3352.44 414.117 3353.16 413.393 3353.16C411.945 3352.44 410.497 3351.72 409.049 3351C406.154 3350.27 403.258 3350.27 401.086 3352.44C399.638 3353.88 398.914 3356.04 396.742 3357.49C395.294 3358.21 393.846 3358.93 392.398 3359.65C388.778 3361.81 387.331 3365.42 385.883 3369.02C384.435 3371.91 383.711 3374.07 382.263 3376.95C380.091 3382 377.195 3386.33 376.471 3392.1C376.471 3393.54 375.747 3395.7 375.747 3397.14C375.747 3397.86 375.747 3398.59 375.747 3398.59C375.023 3399.31 373.575 3400.03 372.127 3400.03C371.403 3400.03 369.955 3400.75 368.507 3400.75C367.059 3400.75 365.612 3401.47 364.164 3401.47C358.372 3402.91 352.58 3405.08 347.512 3407.96C346.788 3407.96 346.064 3408.68 346.064 3409.4C346.064 3410.12 346.064 3410.84 346.788 3410.84C347.512 3410.84 348.236 3411.56 348.236 3411.56C349.684 3411.56 351.856 3411.56 353.304 3412.29C354.752 3413.01 356.924 3413.73 357.648 3415.17C358.372 3416.61 359.096 3418.78 359.096 3420.22C359.096 3421.66 358.372 3423.82 358.372 3425.26C358.372 3425.99 357.648 3427.43 358.372 3428.15C358.372 3428.87 359.096 3430.31 359.82 3430.31C361.268 3431.03 362.716 3429.59 363.44 3428.15C367.059 3423.82 370.679 3418.05 373.575 3413.01C374.299 3411.56 375.023 3410.84 375.023 3409.4C375.747 3407.96 377.195 3407.24 378.643 3407.24C381.539 3406.52 383.711 3406.52 386.607 3406.52C387.331 3406.52 388.054 3406.52 388.778 3406.52C388.778 3407.24 388.778 3407.24 388.778 3407.96C388.778 3408.68 388.778 3409.4 388.054 3410.84C393.846 3412.29 400.362 3412.29 406.154 3410.84C407.602 3410.12 408.326 3410.12 409.773 3408.68C410.497 3407.96 409.773 3405.08 409.049 3402.91C415.565 3400.75 421.357 3397.14 427.149 3393.54C438.732 3384.89 447.42 3372.63 451.04 3358.93C450.316 3358.93 450.316 3358.93 449.592 3358.21C450.316 3357.49 451.04 3356.76 451.04 3356.04Z" fill="white"/>
<path d="M79.6447 3500.25C78.9208 3489.44 73.129 3478.62 63.7175 3472.85C62.9935 3472.85 62.9935 3472.13 62.2695 3472.13C62.2695 3470.69 61.5456 3469.25 61.5456 3467.81C60.8216 3465.64 58.6497 3463.48 56.4778 3462.76C54.3059 3462.04 52.858 3462.76 50.6861 3462.04C49.2381 3461.32 47.7902 3460.6 46.3423 3459.88C43.4464 3458.43 39.8266 3459.15 36.2067 3460.6C34.0348 3461.32 31.139 3461.32 28.9671 3462.04C23.8993 3462.76 19.5555 3463.48 15.2117 3465.64C13.7637 3466.36 12.3158 3467.09 10.8679 3467.81C10.1439 3467.81 10.1439 3468.53 9.41995 3468.53C7.97201 3468.53 7.24806 3467.81 6.5241 3467.09C5.80013 3466.36 5.07614 3465.64 4.35217 3464.92C3.62821 3464.2 2.18029 3462.76 1.45633 3462.04C-2.88748 3458.43 -7.23129 3455.55 -12.2991 3453.39C-13.023 3453.39 -13.747 3452.66 -14.4709 3453.39C-15.1949 3453.39 -15.1949 3454.11 -15.1949 3454.83C-15.1949 3455.55 -15.1949 3456.27 -14.4709 3456.27C-13.747 3457.71 -13.023 3459.15 -12.2991 3460.6C-11.5751 3462.04 -11.5751 3463.48 -12.2991 3464.92C-13.023 3466.36 -13.747 3467.81 -15.1949 3468.53C-16.6428 3469.25 -18.0908 3469.97 -19.5387 3470.69C-20.2627 3470.69 -20.9866 3471.41 -21.7106 3472.13C-22.4346 3472.85 -22.4346 3473.58 -22.4346 3474.3C-21.7106 3475.74 -20.2627 3475.74 -18.8147 3475.74C-13.747 3476.46 -7.95526 3475.74 -2.88749 3475.02C-1.43956 3475.02 -0.715591 3474.3 0.732342 3474.3C2.18027 3474.3 3.62821 3475.02 4.35217 3475.74C6.52407 3477.18 7.97201 3479.34 9.41995 3481.51C10.1439 3482.23 10.1439 3482.23 10.8679 3482.95C10.1439 3482.95 10.1439 3483.67 9.41995 3483.67C8.69598 3484.39 7.97202 3484.39 7.24805 3484.39C9.41995 3489.44 12.3158 3494.49 16.6596 3497.37C17.3836 3498.09 18.8315 3498.81 19.5555 3498.81C21.0034 3498.81 22.4514 3496.65 23.1753 3495.21C28.2431 3498.81 33.3109 3500.98 39.1026 3503.14C51.41 3506.74 64.4414 3506.74 76.7488 3502.42C76.7488 3501.7 76.7489 3501.7 76.0249 3500.98C78.1968 3500.25 78.9208 3500.25 79.6447 3500.25Z" fill="white"/>
<path d="M250.5 3341.62C246.88 3331.53 237.469 3322.87 226.609 3320.71C225.885 3320.71 225.161 3320.71 225.161 3319.99C224.437 3318.55 223.713 3317.11 222.989 3316.38C221.542 3314.22 219.37 3313.5 216.474 3313.5C214.302 3313.5 212.854 3314.94 210.682 3314.94C209.234 3314.94 207.786 3314.22 206.338 3314.22C202.718 3313.5 199.823 3315.66 196.927 3317.83C194.755 3319.27 192.583 3319.99 190.411 3321.43C186.067 3323.6 181.723 3325.76 178.104 3328.64C176.656 3329.36 175.932 3330.81 175.208 3332.25C175.208 3332.97 174.484 3332.97 174.484 3333.69C173.036 3333.69 172.312 3333.69 170.864 3332.97C170.14 3332.25 168.692 3332.25 167.968 3331.53C166.52 3330.81 165.796 3330.08 164.348 3330.08C159.28 3327.92 154.213 3326.48 149.145 3326.48C148.421 3326.48 147.697 3326.48 146.973 3327.2C146.249 3327.92 146.249 3327.92 146.973 3328.64C146.973 3329.36 147.697 3329.36 147.697 3330.08C149.145 3331.53 149.869 3332.25 151.317 3333.69C152.041 3335.13 152.765 3336.57 152.765 3338.02C152.765 3339.46 152.041 3340.9 151.317 3342.34C150.593 3343.78 149.145 3344.51 147.697 3345.23C146.973 3345.95 146.249 3346.67 146.249 3347.39C146.249 3348.11 145.525 3348.83 146.249 3349.55C146.973 3350.27 148.421 3350.27 149.869 3350.27C154.937 3348.83 160.004 3346.67 165.072 3344.51C165.796 3343.78 167.244 3343.06 167.968 3342.34C169.416 3341.62 170.864 3342.34 171.588 3342.34C173.76 3343.06 175.932 3344.51 178.104 3345.95C178.827 3346.67 179.551 3346.67 179.551 3347.39L178.828 3348.11C178.828 3348.11 178.104 3348.11 177.38 3348.83C180.999 3353.16 185.343 3356.76 190.411 3358.21C191.859 3358.21 192.583 3358.93 194.031 3358.93C195.479 3358.93 195.479 3356.04 196.203 3353.88C201.994 3355.32 207.786 3356.04 214.302 3356.04C227.333 3356.04 239.641 3351.72 249.776 3343.78C249.776 3343.06 249.052 3343.06 249.052 3342.34C249.776 3342.34 249.776 3341.62 250.5 3341.62Z" fill="white"/>
<path d="M139.01 3404.35C136.838 3397.14 131.77 3392.1 124.53 3389.21C123.806 3389.21 123.806 3389.21 123.082 3389.21C123.082 3388.49 122.358 3387.77 121.634 3387.05C120.91 3385.61 119.462 3384.16 118.014 3384.16C116.567 3384.16 115.843 3384.89 114.395 3384.89C113.671 3384.89 112.223 3384.16 111.499 3384.16C109.327 3383.44 107.155 3384.89 104.983 3385.61C103.535 3386.33 102.087 3387.05 100.639 3387.77C97.7435 3389.21 94.8476 3389.93 92.6757 3392.1C91.9517 3392.82 91.2277 3393.54 90.5038 3394.26L89.7798 3394.98C89.0559 3394.98 88.3319 3394.98 87.6079 3394.26C86.8839 3393.54 86.16 3393.54 86.16 3393.54C85.436 3392.82 84.712 3392.82 83.9881 3392.1C81.0922 3390.65 77.4724 3389.21 74.5765 3389.21C73.8525 3389.21 73.8525 3389.21 73.1286 3389.21V3389.93C73.1286 3389.93 73.1286 3390.65 73.8526 3390.65C74.5765 3391.37 75.3005 3392.1 76.0245 3392.82C76.7484 3393.54 76.7484 3394.98 76.7484 3395.7C76.7484 3396.42 76.0245 3397.86 75.3005 3398.59C74.5765 3399.31 73.8525 3400.03 73.1286 3400.75C72.4046 3400.75 72.4046 3401.47 71.6807 3402.19C71.6807 3402.91 71.6807 3403.63 71.6807 3403.63C72.4046 3404.35 73.1286 3404.35 73.8526 3404.35C77.4724 3403.63 80.3682 3402.91 83.9881 3401.47C84.712 3401.47 85.436 3400.75 86.16 3400.75C86.884 3400.75 87.6079 3400.75 88.3319 3400.75C89.7798 3401.47 91.2278 3402.19 91.9517 3403.63L92.6757 3404.35L91.9517 3405.07C91.2278 3405.07 91.2277 3405.8 90.5038 3405.8C92.6757 3408.68 95.5715 3410.84 98.4674 3412.29C99.1914 3412.29 99.9154 3413.01 100.639 3413.01C101.363 3413.01 102.087 3411.56 102.087 3410.12C105.707 3411.56 109.327 3412.29 113.671 3412.29C121.634 3413.01 130.322 3410.84 136.838 3405.8C136.838 3405.8 136.838 3405.07 136.114 3405.07C137.562 3405.07 138.286 3404.35 139.01 3404.35Z" fill="white"/>
<path d="M318.553 3428.15C314.933 3421.66 308.418 3418.05 301.178 3417.33C300.454 3417.33 300.454 3417.33 299.73 3417.33C299.006 3416.61 298.282 3415.89 298.282 3415.17C296.834 3414.45 295.386 3413.73 293.938 3413.73C292.49 3413.73 291.766 3415.17 290.318 3415.17C289.594 3415.17 288.146 3415.17 287.423 3415.17C285.251 3415.17 283.803 3417.33 281.631 3418.77C280.183 3419.5 278.735 3420.94 278.011 3421.66C275.839 3423.82 272.943 3425.26 271.495 3427.43C270.771 3428.15 270.047 3428.87 270.047 3429.59C270.047 3429.59 270.047 3430.31 269.323 3430.31C268.599 3430.31 267.875 3430.31 267.151 3430.31C266.428 3430.31 265.704 3429.59 264.98 3429.59C264.256 3429.59 263.532 3428.87 262.084 3428.87C258.464 3428.15 255.568 3428.15 251.948 3428.15C251.224 3428.15 251.224 3428.15 250.5 3428.87V3429.59L251.224 3430.31C251.948 3431.03 252.672 3431.03 254.12 3431.75C254.844 3432.48 255.568 3433.2 255.568 3434.64C255.568 3435.36 255.568 3436.8 254.844 3437.52C254.12 3438.24 253.396 3438.96 252.672 3439.69C252.672 3440.41 251.948 3440.41 251.948 3441.13C251.948 3441.85 251.948 3442.57 252.672 3442.57C253.396 3443.29 254.12 3442.57 254.844 3442.57C257.74 3441.13 261.36 3439.69 263.532 3437.52C264.256 3436.8 264.98 3436.8 264.98 3436.08C265.704 3435.36 266.428 3435.36 267.151 3436.08C268.599 3436.08 270.047 3436.8 271.495 3437.52C272.219 3437.52 272.219 3437.52 272.943 3438.24C272.943 3438.24 272.943 3438.96 272.219 3438.96C272.219 3439.69 271.495 3439.69 271.495 3440.41C274.391 3442.57 277.287 3444.73 280.907 3444.73C281.631 3444.73 282.355 3444.73 283.079 3444.73C283.803 3444.73 283.803 3442.57 283.803 3441.13C287.423 3441.85 291.766 3441.13 295.386 3440.41C303.35 3438.96 310.589 3434.64 316.381 3428.87L315.657 3428.15C317.829 3428.87 318.553 3428.87 318.553 3428.15Z" fill="white"/>
<path d="M486.514 3250.77C480.722 3247.16 472.758 3246.44 466.243 3249.33C466.243 3249.33 465.519 3249.33 465.519 3250.05C464.795 3249.33 464.071 3249.33 462.623 3249.33C461.175 3249.33 459.727 3249.33 458.279 3250.05C457.555 3250.77 456.831 3252.21 456.107 3252.93C455.383 3253.65 454.659 3253.65 453.211 3254.37C451.039 3255.82 450.316 3257.98 449.592 3260.14C448.868 3261.58 448.144 3263.03 447.42 3264.47C445.972 3267.35 444.524 3270.24 444.524 3273.12C444.524 3273.84 444.524 3275.28 444.524 3276.01V3276.73C443.8 3277.45 443.076 3277.45 442.352 3277.45C441.628 3277.45 440.904 3277.45 440.18 3278.17C439.456 3278.17 438.732 3278.89 438.008 3278.89C434.388 3279.61 431.492 3281.05 428.597 3283.22L427.873 3283.94C427.873 3283.94 427.873 3284.66 428.597 3284.66H429.321C430.044 3284.66 431.492 3284.66 432.216 3284.66C432.94 3284.66 434.388 3285.38 435.112 3286.1C435.836 3286.82 435.836 3288.26 435.836 3288.98C435.836 3289.71 435.836 3291.15 435.112 3291.87C435.112 3292.59 435.112 3293.31 435.112 3293.31C435.112 3294.03 435.836 3294.03 435.836 3294.75C436.56 3294.75 437.284 3294.03 438.008 3293.31C440.18 3290.43 441.628 3287.54 443.076 3284.66C443.076 3283.94 443.8 3283.22 443.8 3282.49C444.524 3281.77 445.248 3281.05 445.972 3281.05C447.42 3280.33 448.868 3280.33 450.316 3280.33C451.039 3280.33 451.04 3280.33 451.763 3280.33V3281.05C451.763 3281.77 451.763 3281.77 451.763 3282.49C455.383 3283.22 459.003 3283.22 461.899 3281.77C462.623 3281.77 463.347 3281.05 464.071 3280.33C464.795 3279.61 464.071 3278.17 463.347 3276.73C466.967 3275.28 470.587 3273.12 473.482 3270.96C479.998 3265.91 484.342 3258.7 486.514 3250.77H485.79C485.79 3251.49 486.514 3250.77 486.514 3250.77Z" fill="white"/>
<path d="M379.367 3277.45C375.023 3271.68 367.059 3269.52 360.544 3270.24C359.82 3270.24 359.82 3270.24 359.096 3270.24C358.372 3269.52 357.648 3268.79 356.924 3268.07C355.476 3267.35 354.028 3266.63 352.58 3267.35C351.132 3268.79 350.408 3269.52 349.684 3270.24C348.96 3270.24 347.512 3270.24 346.788 3270.96C344.616 3271.68 343.168 3273.12 341.72 3275.28C340.996 3276.73 339.548 3277.45 338.101 3278.89C335.929 3281.05 333.757 3283.22 332.309 3286.1C331.585 3286.82 331.585 3288.26 330.861 3288.98V3289.71C330.137 3289.71 329.413 3290.43 328.689 3290.43C327.965 3290.43 327.241 3290.43 326.517 3290.43C325.793 3290.43 325.069 3290.43 323.621 3290.43C320.001 3290.43 317.106 3290.43 313.486 3291.87C312.762 3291.87 312.762 3291.87 312.762 3292.59V3293.31L313.486 3294.03C314.21 3294.75 315.658 3294.75 316.382 3295.47C317.106 3296.19 317.83 3296.92 318.553 3297.64C318.553 3298.36 318.553 3299.8 318.553 3300.52C318.553 3301.24 317.83 3301.96 317.106 3303.41C317.106 3304.13 316.382 3304.13 316.382 3304.85C316.382 3305.57 316.382 3306.29 317.106 3306.29C317.83 3307.01 318.553 3306.29 319.277 3305.57C322.173 3303.41 325.069 3301.24 327.241 3298.36C327.965 3297.64 327.965 3296.92 328.689 3296.92C329.413 3296.19 330.137 3296.19 330.861 3296.19C332.309 3296.19 333.757 3296.92 335.205 3296.92C335.929 3296.92 335.929 3296.92 336.653 3296.92V3297.64C336.653 3298.36 335.929 3298.36 335.929 3299.08C338.825 3301.24 342.444 3301.96 346.064 3301.96C346.788 3301.96 347.512 3301.96 348.236 3301.24C348.96 3300.52 348.96 3299.08 348.96 3297.64C352.58 3297.64 356.924 3296.19 360.544 3294.75C368.507 3291.87 375.023 3286.1 379.367 3279.61C379.367 3279.61 378.643 3279.61 378.643 3278.89C378.643 3278.17 379.367 3278.17 379.367 3277.45Z" fill="white"/>
<path d="M18.8315 3331.53C18.1075 3324.32 13.7637 3317.83 7.24801 3314.22L6.52406 3313.5C6.52406 3312.78 6.52404 3311.34 5.80007 3310.62C5.0761 3309.17 3.62817 3307.73 2.18024 3307.73C0.732304 3307.73 0.00833893 3307.73 -1.43959 3307.73C-2.16356 3307.73 -2.88751 3307.01 -4.33545 3306.29C-6.50734 3305.57 -8.67925 3306.29 -10.8512 3307.01C-12.2991 3307.73 -13.747 3307.73 -15.9189 3308.45C-18.8148 3309.17 -21.7107 3309.89 -24.6065 3311.34C-25.3305 3312.06 -26.0545 3312.06 -26.7784 3312.78L-27.5024 3313.5C-28.2263 3313.5 -28.9503 3312.78 -29.6743 3312.78C-29.6743 3312.06 -30.3982 3312.06 -31.1222 3311.34C-31.8462 3310.62 -32.5702 3309.89 -33.2941 3309.89C-36.19 3307.73 -39.0858 3306.29 -41.9817 3304.85C-42.7057 3304.85 -42.7057 3304.85 -43.4296 3304.85L-44.1536 3305.57C-44.1536 3305.57 -44.1536 3306.29 -43.4296 3306.29C-42.7057 3307.01 -41.9817 3307.73 -41.9817 3309.17C-41.2577 3309.89 -41.2578 3311.34 -41.2578 3312.06C-41.2578 3312.78 -41.9817 3313.5 -43.4296 3314.22C-44.1536 3314.94 -44.8776 3314.94 -46.3255 3315.66C-47.0495 3315.66 -47.0495 3316.38 -47.7735 3316.38C-47.7735 3317.11 -48.4974 3317.11 -47.7735 3317.83C-47.7735 3318.55 -46.3255 3318.55 -45.6015 3318.55C-41.9817 3318.55 -38.3619 3318.55 -35.466 3317.11C-34.742 3317.11 -34.0181 3316.38 -33.2941 3316.38C-32.5702 3316.38 -31.8462 3316.38 -31.1222 3317.11C-29.6743 3317.83 -28.9503 3319.27 -28.2263 3320.71L-27.5024 3321.43C-27.5024 3321.43 -28.2263 3321.43 -28.2263 3322.15C-28.9503 3322.15 -28.9503 3322.87 -29.6743 3322.87C-28.2264 3325.76 -26.0545 3329.36 -23.1586 3330.81C-22.4346 3331.53 -21.7107 3331.53 -20.9867 3331.53C-20.2627 3331.53 -19.5387 3330.08 -18.8148 3328.64C-15.1949 3330.81 -11.5751 3332.25 -7.95528 3332.97C0.00835419 3335.13 8.69595 3334.41 15.9356 3330.81V3330.08C18.1075 3332.25 18.8315 3331.53 18.8315 3331.53Z" fill="white"/>
<path d="M73.1286 3369.74C72.4046 3362.53 68.0608 3356.04 61.5451 3352.44L60.8212 3351.72C60.8212 3351 60.8212 3349.55 60.0972 3348.83C59.3732 3347.39 57.9253 3345.95 56.4774 3345.95C55.0294 3345.95 54.3055 3345.95 52.8575 3345.95C52.1336 3345.95 51.4096 3345.23 49.9617 3344.51C47.7898 3343.78 45.6179 3344.51 43.446 3345.23C41.998 3345.95 40.5501 3345.95 38.3782 3346.67C35.4823 3347.39 32.5864 3348.11 29.6906 3349.55C28.9666 3350.27 28.2427 3350.27 27.5187 3351L26.7947 3351.72C26.0708 3351.72 25.3468 3351 24.6228 3351C24.6228 3350.27 23.8989 3350.27 23.1749 3349.55C22.4509 3348.83 21.727 3348.11 21.003 3348.11C18.1071 3345.95 15.2113 3344.51 12.3154 3343.06C11.5914 3343.06 11.5914 3343.06 10.8675 3343.06L10.1435 3343.78C10.1435 3343.78 10.1435 3344.51 10.8675 3344.51C11.5914 3345.23 12.3154 3345.95 12.3154 3347.39C13.0394 3348.11 13.0394 3349.55 13.0394 3350.27C13.0394 3351 12.3154 3351.72 10.8675 3352.44C10.1435 3353.16 9.41951 3353.16 7.97158 3353.88C7.24761 3353.88 7.24763 3354.6 6.52367 3354.6C6.52367 3355.32 5.7997 3355.32 6.52367 3356.04C6.52367 3356.76 7.9716 3356.76 8.69556 3356.76C12.3154 3356.76 15.9352 3356.76 18.8311 3355.32C19.555 3355.32 20.279 3354.6 21.003 3354.6C21.727 3354.6 22.4509 3354.6 23.1749 3355.32C24.6228 3356.04 25.3468 3357.48 26.0707 3358.93L26.7947 3359.65C26.7947 3359.65 26.0707 3359.65 26.0707 3360.37C25.3468 3360.37 25.3468 3361.09 24.6228 3361.09C26.0708 3363.97 28.2427 3367.58 31.1385 3369.02C31.8625 3369.74 32.5864 3369.74 33.3104 3369.74C34.0344 3369.74 34.7584 3368.3 35.4823 3366.86C39.1022 3369.02 42.722 3370.46 46.3418 3371.19C54.3055 3373.35 62.9931 3372.63 70.2327 3369.02V3368.3C72.4046 3369.74 73.1286 3369.74 73.1286 3369.74Z" fill="white"/>
<path d="M117.291 3446.9C115.843 3439.69 111.499 3433.92 104.984 3430.31C104.984 3430.31 104.26 3430.31 104.26 3429.59C104.26 3428.87 103.536 3428.15 103.536 3426.71C102.812 3425.26 101.364 3423.82 99.9159 3423.82C98.468 3423.82 97.744 3424.54 96.2961 3423.82C95.5721 3423.82 94.8482 3423.1 93.4002 3422.38C91.2283 3421.66 89.0564 3422.38 86.8845 3423.1C85.4366 3423.82 83.9887 3423.82 82.5407 3424.54C79.6449 3425.26 76.749 3425.99 73.8531 3427.43C73.1292 3428.15 72.4052 3428.87 71.6812 3428.87L70.9573 3429.59C70.2333 3429.59 69.5093 3428.87 68.7854 3428.87C68.0614 3428.15 67.3374 3428.15 67.3374 3427.43C66.6135 3426.71 65.8895 3426.71 65.1655 3425.99C62.2697 3423.82 59.3738 3422.38 55.754 3421.66C55.03 3421.66 55.03 3421.66 54.306 3421.66C54.306 3421.66 53.5821 3422.38 54.306 3422.38C54.306 3422.38 54.306 3423.1 55.03 3423.1C55.7539 3423.82 56.4779 3424.54 56.4779 3425.99C57.2019 3426.71 57.2019 3428.15 57.2019 3428.87C57.2019 3429.59 56.4779 3431.03 55.754 3431.03C55.03 3431.75 54.306 3431.75 52.8581 3432.48C52.1341 3432.48 52.1341 3433.2 51.4101 3433.2C51.4101 3433.92 50.6862 3434.64 51.4101 3434.64C52.1341 3435.36 52.8581 3435.36 53.5821 3435.36C57.2019 3435.36 60.8217 3434.64 63.7176 3433.2C64.4416 3433.2 65.1655 3432.48 65.8895 3432.48C66.6134 3432.48 67.3374 3432.48 68.0614 3433.2C69.5093 3433.92 70.2333 3435.36 71.6812 3436.08L72.4052 3436.8C72.4052 3436.8 71.6812 3436.8 71.6812 3437.52C70.9573 3437.52 70.9573 3438.24 70.2333 3438.24C71.6812 3441.13 74.5771 3444.01 77.473 3445.45C78.1969 3445.45 78.9209 3446.18 79.6449 3446.18C80.3688 3446.18 81.0928 3444.73 81.8168 3443.29C85.4366 3444.73 89.0564 3446.18 92.6763 3446.9C100.64 3448.34 109.327 3446.9 116.567 3443.29C116.567 3443.29 116.567 3442.57 115.843 3442.57C115.843 3447.62 116.567 3447.62 117.291 3446.9Z" fill="white"/>
<path d="M31.8625 3549.29C31.1386 3543.52 26.7947 3537.75 21.727 3535.59C21.727 3535.59 21.003 3535.59 21.003 3534.87C21.003 3534.14 20.279 3533.42 20.279 3532.7C19.5551 3531.26 18.8311 3530.54 17.3832 3530.54C16.6592 3530.54 15.2113 3530.54 14.4873 3530.54C13.7633 3530.54 13.0394 3529.82 12.3154 3529.82C10.8675 3529.1 8.69558 3529.82 7.24765 3530.54C5.79972 3531.26 4.3518 3531.26 2.90386 3531.98C0.731962 3532.7 -2.1639 3533.42 -4.3358 3534.87C-5.05977 3535.59 -5.78376 3535.59 -6.50772 3536.31L-7.23168 3537.03C-7.95565 3537.03 -8.67962 3536.31 -8.67962 3536.31C-8.67962 3535.59 -9.40359 3535.59 -10.1276 3535.59C-10.8515 3534.87 -11.5755 3534.87 -12.2995 3534.14C-14.4714 3532.7 -17.3672 3531.26 -20.2631 3530.54H-20.9871V3531.26C-20.9871 3531.26 -20.987 3531.98 -20.2631 3531.98C-19.5391 3532.7 -19.5391 3533.42 -18.8151 3534.14C-18.0912 3534.87 -18.0912 3535.59 -18.0912 3536.31C-18.0912 3537.03 -18.8152 3537.75 -19.5391 3538.47C-20.2631 3539.19 -20.987 3539.19 -21.711 3539.91C-22.435 3539.91 -22.435 3540.63 -23.159 3540.63C-23.159 3541.35 -23.8829 3541.35 -23.159 3542.08C-23.159 3542.8 -21.711 3542.8 -20.9871 3542.8C-18.0912 3542.8 -15.1953 3542.08 -12.2995 3541.35C-11.5755 3541.35 -10.8515 3540.63 -10.8515 3540.63C-10.1275 3540.63 -9.40359 3540.63 -8.67962 3541.35C-7.23169 3542.08 -6.50771 3542.8 -5.78374 3544.24L-5.05979 3544.96C-5.05979 3544.96 -5.78374 3544.96 -5.78374 3545.68L-6.50772 3546.4C-5.05979 3549.29 -2.88787 3551.45 -0.715971 3552.89C0.00799561 3552.89 0.731956 3553.61 1.45592 3553.61C2.17989 3553.61 2.90386 3552.17 2.90386 3551.45C5.79973 3552.89 8.69559 3554.33 12.3154 3554.33C18.8311 3555.78 26.0708 3554.33 32.5865 3551.45V3550.73C31.1385 3550.01 31.8625 3549.29 31.8625 3549.29Z" fill="white"/>
<path d="M511.853 3389.93C506.785 3386.33 500.269 3385.61 494.478 3387.77C494.478 3387.77 493.754 3387.77 493.754 3388.49C493.03 3387.77 492.306 3387.77 491.582 3387.77C490.134 3387.77 488.686 3387.77 487.962 3388.49C487.238 3389.21 486.514 3389.93 485.79 3390.65C485.066 3391.37 484.342 3391.37 483.618 3391.37C482.17 3392.1 481.446 3394.26 480.722 3395.7C479.998 3397.14 479.274 3397.86 478.55 3399.31C477.102 3401.47 476.378 3403.63 475.654 3406.52C475.654 3407.24 475.654 3407.96 475.654 3408.68V3409.4C474.931 3410.12 474.207 3410.12 474.207 3410.12C473.483 3410.12 472.759 3410.12 472.759 3410.12C472.035 3410.12 471.311 3410.12 470.587 3410.84C467.691 3411.56 464.795 3412.29 462.623 3413.73L461.899 3414.45C461.899 3414.45 461.899 3415.17 462.623 3415.17H463.347C464.071 3415.17 464.795 3415.17 466.243 3415.89C466.967 3415.89 467.691 3416.61 468.415 3417.33C469.139 3418.05 469.139 3418.78 469.139 3419.5C469.139 3420.22 469.139 3420.94 468.415 3421.66C468.415 3422.38 468.415 3422.38 468.415 3423.1C468.415 3423.82 469.139 3423.82 469.139 3423.82C469.863 3423.82 470.587 3423.1 471.311 3423.1C473.483 3420.94 474.931 3418.05 476.379 3415.89C476.379 3415.17 477.102 3414.45 477.102 3414.45C477.826 3413.73 478.55 3413.73 478.55 3413.01C479.998 3412.29 481.446 3413.01 482.17 3413.01C482.894 3413.01 482.894 3413.01 483.618 3413.01V3413.73C483.618 3414.45 483.618 3414.45 483.618 3415.17C486.514 3415.89 489.41 3415.89 492.306 3415.17C493.03 3415.17 493.754 3414.45 493.754 3414.45C494.478 3413.73 493.754 3413.01 493.03 3411.56C495.926 3410.12 498.821 3408.68 501.717 3407.24C507.509 3402.91 511.129 3397.14 513.301 3390.65H512.577C511.853 3390.65 511.853 3389.93 511.853 3389.93Z" fill="white"/>
</g>
<defs>
<clipPath id="clip0">
<rect width="1920" height="4377" fill="white"/>
</clipPath>
</defs>
</svg>
