<svg width="191" height="143" viewBox="0 0 191 143" fill="none" xmlns="http://www.w3.org/2000/svg">
<g filter="url(#filter0_d)">
<path d="M137.334 98.7989C139.067 100.779 139.562 103.75 138.324 106.225C137.87 106.907 137.624 107.38 137.013 107.644C136.899 107.693 136.786 107.742 136.674 107.794C134.364 108.864 129.365 107.15 127.432 104.492L120.996 95.0858C120.254 94.0957 118.768 93.6006 117.531 94.3432C116.293 95.0858 116.045 96.5711 116.788 97.8088L122.481 105.978C123.967 107.958 124.462 110.433 123.472 112.909C122.977 113.899 122.481 114.641 121.739 114.889C119.115 115.764 116.232 114.305 114.346 112.935C113.679 112.45 113.131 111.825 112.655 111.151L105.154 100.532C104.411 99.294 102.926 99.0465 101.688 99.7891C100.698 100.532 100.203 102.017 100.945 103.255L107.134 112.166C108.372 113.899 108.372 116.374 107.134 117.86C105.154 120.582 98.7176 117.612 96.9849 115.384L90.0537 105.235C89.3111 103.997 87.8259 103.75 86.5882 104.492C85.3505 105.235 85.1029 106.72 85.8456 107.958L92.912 118.087C93.1462 118.422 93.2776 118.822 93.2555 119.231C93.1841 120.549 92.8527 121.923 91.7865 122.563C90.3504 123.281 87.7572 122.61 86.4683 121.894C86.3839 121.847 86.2896 121.82 86.1931 121.82C86.127 121.82 86.0688 121.811 86.0076 121.786C81.4269 119.92 63.6218 106.265 52.5437 97.4065C52.4652 97.3437 52.3938 97.2765 52.3247 97.2036C49.8099 94.5481 45.9492 92.9218 43.0403 92.0373C42.1622 91.7704 41.5359 90.9765 41.5359 90.0587V45.6112C41.5359 44.6206 42.5064 43.921 43.4463 44.2343C44.3542 44.5369 44.7152 45.6206 44.3405 46.5012C43.956 47.4048 43.7638 48.2721 43.7638 49.0434C43.5296 54.664 49.4991 59.6199 50.7725 60.7669C50.8891 60.872 51.0134 60.9693 51.148 61.0501C69.6611 72.1663 90.3058 52.5053 91.539 51.5188C92.5241 50.5337 93.4002 50.202 94.0953 50.0903C94.6675 49.9983 95.2227 50.2849 95.6026 50.7225L137.334 98.7989Z" fill="#F9F9F9"/>
<path d="M171 33.9435V104.74C171 106.473 169.762 107.71 168.029 107.71H155.919C154.815 107.71 153.919 106.815 153.919 105.71V32.7254C153.919 31.6209 154.815 30.7254 155.919 30.7254H168.029C169.762 30.7254 171 32.2107 171 33.9435Z" fill="#F9F9F9"/>
<path d="M22.9705 30.7254H35.0803C36.1848 30.7254 37.0803 31.6209 37.0803 32.7254V105.71C37.0803 106.815 36.1848 107.71 35.0803 107.71H22.9705C21.2377 107.71 20 106.473 20 104.74V33.9435C20 32.2107 21.2377 30.7254 22.9705 30.7254Z" fill="#F9F9F9"/>
<path d="M113.892 26.428C114.011 26.4891 114.112 26.5561 114.218 26.6386C120.39 31.4566 139.299 36.6673 147.395 38.5422C148.313 38.7549 148.968 39.568 148.968 40.5111V88.44C148.968 89.6161 147.958 90.5263 146.782 90.5141C144.497 90.4905 141.973 90.8072 140.12 92.0712C140.078 92.1003 140.052 92.1215 140.014 92.1562C139.545 92.5825 138.61 92.5733 138.198 92.092L98.965 46.3204C98.7175 46.0729 98.4699 45.8254 97.9748 45.5778C96.2421 44.8352 91.7863 44.0926 88.3208 48.0532C88.0732 48.3008 69.2602 66.1236 54.1603 56.7171C52.9226 55.727 48.9619 52.0139 48.9619 49.0434C48.9619 48.5493 48.9619 47.3156 51.4224 45.8343C51.4321 45.8285 51.4413 45.8213 51.4493 45.8134L51.5323 45.7304C51.5886 45.6741 51.7691 45.5778 51.8487 45.5778C51.8693 45.5778 51.9411 45.5707 51.9571 45.5577L80.152 22.5566C88.7421 16.4208 107.066 22.9388 113.892 26.428Z" fill="#F9F9F9"/>
</g>
<defs>
<filter id="filter0_d" x="0" y="0.0272827" width="191" height="142.843" filterUnits="userSpaceOnUse" color-interpolation-filters="sRGB">
<feFlood flood-opacity="0" result="BackgroundImageFix"/>
<feColorMatrix in="SourceAlpha" type="matrix" values="0 0 0 0 0 0 0 0 0 0 0 0 0 0 0 0 0 0 127 0"/>
<feOffset/>
<feGaussianBlur stdDeviation="10"/>
<feColorMatrix type="matrix" values="0 0 0 0 0.694118 0 0 0 0 0.866667 0 0 0 0 0.964706 0 0 0 0.3 0"/>
<feBlend mode="normal" in2="BackgroundImageFix" result="effect1_dropShadow"/>
<feBlend mode="normal" in="SourceGraphic" in2="effect1_dropShadow" result="shape"/>
</filter>
</defs>
</svg>
