<svg width="212" height="212" viewBox="0 0 212 212" fill="none" xmlns="http://www.w3.org/2000/svg">
<mask id="mask0" mask-type="alpha" maskUnits="userSpaceOnUse" x="0" y="0" width="212" height="212">
<circle cx="105.954" cy="105.954" r="105.954" fill="#B1DDF6"/>
</mask>
<g mask="url(#mask0)">
<circle cx="105.954" cy="105.954" r="105.954" fill="#B1DDF6"/>
<path opacity="0.1" d="M-53.5355 135.85C-48.656 129.083 -42.15 123.129 -36.9994 116.633C-33.7464 112.573 -30.4934 108.243 -26.6982 104.453C-20.1922 97.4161 -12.6018 93.6269 -4.74041 88.4843C8.81377 80.0939 24.2655 70.6207 39.9884 67.3728C51.9161 65.2075 64.1149 64.1249 76.0425 63.0423C79.5666 62.7716 83.6329 62.5009 86.8859 64.1249C89.0546 65.2075 90.41 68.7261 92.8497 68.1848C95.5606 67.6435 95.0184 69.5381 97.4581 69.8088C99.3557 70.0794 100.711 68.7261 102.338 68.1848C105.862 67.1022 107.488 66.2902 110.47 64.3956C113.994 61.9596 117.789 61.1476 121.856 60.877C124.838 60.877 126.464 59.7943 129.175 59.253C133.512 58.1704 140.018 60.6063 144.085 62.2303C146.795 63.3129 147.338 64.1249 148.422 66.8315C148.964 68.1848 149.235 71.9741 150.319 71.4327C149.777 72.2447 148.693 73.598 148.151 74.6807C148.964 74.6807 149.777 74.9513 150.591 74.6807C145.982 78.4699 140.56 82.2591 135.139 84.9657C128.904 87.943 120.5 88.4843 115.35 92.5442C112.639 94.7095 102.067 100.664 108.844 104.453C112.097 106.348 117.518 104.995 121.042 105.807C125.922 106.889 129.175 108.784 132.157 112.573C135.41 116.633 135.681 120.693 137.579 125.294C138.663 128.001 139.747 129.354 139.747 132.061C140.018 135.309 140.018 138.556 140.018 141.804C140.018 149.112 140.018 155.608 138.121 162.645C136.765 167.788 135.41 172.93 133.512 178.073C131.344 184.569 128.091 191.065 124.567 196.748C123.482 198.643 121.856 200.538 119.958 201.891C119.145 202.703 115.892 206.492 115.079 206.763C111.012 208.116 111.283 201.891 111.012 199.726C110.47 197.831 109.386 196.748 109.115 194.583C108.844 191.606 109.928 188.087 110.199 185.11C110.47 180.509 110.47 176.449 110.199 172.118C109.928 168.058 111.555 163.999 110.47 160.209C109.928 158.856 108.844 158.585 109.115 156.42C109.115 154.255 110.199 153.984 109.386 151.819C108.844 150.466 107.217 149.654 107.217 148.03C106.946 145.864 109.115 144.24 109.115 141.804C108.03 141.804 106.946 141.534 105.862 141.804C105.862 139.91 106.946 138.827 106.675 136.933C106.675 135.85 105.32 135.85 105.048 135.038C104.777 133.955 105.591 132.873 105.32 132.061C104.777 130.437 103.422 122.858 101.253 123.4C99.8979 123.67 98.8136 126.918 98.0003 127.73C94.4762 132.602 90.1389 135.309 84.7172 138.015C80.651 140.18 77.669 142.346 73.8739 144.511C70.0787 146.676 65.1992 148.3 61.9462 151.007C54.6269 157.503 44.3257 162.375 35.38 166.434C29.1451 169.141 21.5547 170.765 15.0487 171.306C8.00053 172.118 1.22343 173.742 -5.82475 174.013C-11.2464 174.284 -16.9392 172.389 -22.0898 172.93C-28.8669 171.848 -26.6982 172.93 -29.6801 177.802C-32.1199 181.862 -34.8307 185.922 -37.5415 189.711C-41.0656 194.313 -44.3186 198.914 -48.3849 203.244C-51.6379 206.763 -54.8909 211.635 -60.0415 211.635C-63.0234 211.635 -68.174 211.635 -70.0716 209.469C-72.2402 206.763 -72.2402 200.538 -71.9692 197.29C-71.1559 186.463 -64.921 177.532 -58.6861 168.87C-57.6017 167.246 -52.1801 159.668 -51.3668 160.48C-54.3487 159.939 -53.8066 154.796 -55.9752 152.901C-58.415 150.736 -60.0415 151.548 -61.3969 148.3C-62.7523 144.782 -61.3969 144.782 -58.9571 142.346C-57.3306 141.263 -54.8909 138.015 -53.5355 135.85Z" fill="#1E6DB5"/>
</g>
</svg>
