<svg width="193" height="61" viewBox="0 0 193 61" fill="none" xmlns="http://www.w3.org/2000/svg">
<path d="M60.8593 30.5506C60.8593 31.7848 60.7712 33.0189 60.6244 34.2237C60.4776 35.3403 60.2721 36.4275 60.0373 37.4853C59.8905 38.073 59.7437 38.6607 59.5675 39.219C59.4501 39.6304 59.3033 40.0417 59.1565 40.4531C58.8336 41.3346 58.4813 42.1868 58.0996 43.0095C57.6886 43.9205 57.2189 44.802 56.6904 45.6541C56.0152 46.8001 55.2519 47.8873 54.4299 48.9158C53.9014 49.5622 53.373 50.1793 52.8152 50.7964C52.4335 51.1784 52.0812 51.5604 51.6702 51.9423C51.1711 52.4419 50.6427 52.912 50.0849 53.3528C49.4684 53.8523 48.8225 54.3519 48.1766 54.822C47.5014 55.2921 46.8261 55.7329 46.0922 56.1737C41.5123 58.877 36.1692 60.4344 30.4443 60.4344C24.1911 60.4344 18.4075 58.5832 13.5634 55.4391C12.7708 54.9395 12.0368 54.3812 11.3029 53.7936C10.7451 53.3528 10.1873 52.8826 9.65881 52.3831C9.01293 51.7954 8.39641 51.1784 7.80925 50.5319C7.39824 50.0911 7.01658 49.621 6.63493 49.1802C6.10648 48.5338 5.57803 47.8286 5.10831 47.1233C4.72665 46.5944 4.40371 46.0361 4.05141 45.4778C3.61104 44.7432 3.20003 43.9792 2.84773 43.1859C2.64223 42.7451 2.43672 42.3043 2.26057 41.8636C1.90827 41.0408 1.61469 40.218 1.35047 39.3953C0.469729 36.6038 0 33.636 0 30.58C0 14.0661 13.6221 0.696289 30.4443 0.696289C41.8646 0.696289 51.817 6.86697 57.0134 16.0055C57.8061 17.3865 58.4813 18.797 59.0391 20.2956C60.2134 23.4984 60.8593 26.9658 60.8593 30.5506Z" fill="url(#paint0_linear)"/>
<path d="M60.0373 37.5145C59.8905 38.1022 59.7437 38.6899 59.5676 39.2482C59.4502 39.6595 59.3034 40.0709 59.1566 40.4823C56.8373 41.3932 53.784 42.4217 51.5235 42.4217C46.151 42.4217 43.8023 37.9846 38.5178 37.9846C33.4976 37.9846 30.4444 42.4217 25.0719 42.4217C19.2002 42.4217 17.1452 37.9846 11.7139 37.9846C8.54325 37.9846 4.84414 40.1003 2.28998 41.8634C1.93769 41.0406 1.64411 40.2178 1.37988 39.3951C3.55238 37.9259 7.22214 36.0453 11.7433 36.0453C18.3489 36.0453 20.1691 40.5704 24.8076 40.2766C30.7967 39.8946 31.5306 36.2216 38.4591 36.0453C45.3583 35.869 47.2078 40.9231 51.729 40.4823C53.9308 40.2766 56.1621 39.4538 58.041 38.5723C58.7456 38.2197 59.4208 37.8671 60.0373 37.5145Z" fill="url(#paint1_linear)"/>
<path d="M58.0996 43.0388C57.6885 43.9497 57.2188 44.8312 56.6904 45.6833C55.3693 46.0653 54.0188 46.3004 52.8738 46.3004C47.5013 46.3004 45.1526 41.8634 39.8682 41.8634C34.848 41.8634 31.7947 46.3004 26.4222 46.3004C20.5506 46.3004 18.4955 41.8634 13.0643 41.8634C10.0697 41.8634 6.60549 43.744 4.05134 45.4483C3.61097 44.7137 3.19995 43.9497 2.84766 43.1563C5.04951 41.6871 8.6312 39.8946 13.0936 39.8946C19.6992 39.8946 21.5194 44.4198 26.158 44.126C32.147 43.744 32.881 40.071 39.8095 39.8946C46.7086 39.7183 48.5582 44.7724 53.0793 44.3317C54.7821 44.2141 56.5142 43.6852 58.0996 43.0388Z" fill="url(#paint2_linear)"/>
<path d="M54.4299 48.9451C53.9015 49.5916 53.373 50.2086 52.8152 50.8257C48.2941 50.2086 45.9161 46.4768 41.072 46.4768C36.0517 46.4768 32.9985 50.9138 27.626 50.9138C21.7544 50.9138 19.6993 46.4768 14.2681 46.4768C11.802 46.4768 9.01296 47.7697 6.66432 49.1802C6.13587 48.5337 5.60742 47.8285 5.1377 47.1233C7.33955 45.8304 10.5102 44.5375 14.2974 44.5375C20.903 44.5375 22.7232 49.0626 27.3618 48.7688C33.3508 48.3868 34.0848 44.7138 41.0133 44.5375C47.9124 44.3612 49.762 49.4152 54.2831 48.9745C54.2831 48.9745 54.3418 48.9745 54.4299 48.9451Z" fill="url(#paint3_linear)"/>
<path d="M51.6703 51.9717C51.1712 52.4712 50.6428 52.9414 50.085 53.3821C47.7657 52.1186 45.6813 50.5613 42.5399 50.5613C37.5197 50.5613 34.4665 54.9983 29.0939 54.9983C23.2223 54.9983 21.1673 50.5613 15.736 50.5613C13.7984 50.5613 11.6259 51.3546 9.65889 52.3831C9.01301 51.7954 8.39649 51.1783 7.80933 50.5319C9.89375 49.5034 12.6241 48.5925 15.736 48.5925C22.3416 48.5925 24.1618 53.1177 28.8004 52.8238C34.7894 52.4418 35.5234 48.7688 42.4519 48.5925C46.973 48.5044 49.3217 50.62 51.6703 51.9717Z" fill="url(#paint4_linear)"/>
<path d="M48.1765 54.8513C47.5012 55.3215 46.826 55.7622 46.0921 56.203C44.8884 55.6741 43.5966 55.2921 42.0406 55.2921C37.0204 55.2921 33.9672 59.7291 28.5946 59.7291C22.723 59.7291 20.668 55.2921 15.2367 55.2921C14.7083 55.2921 14.1505 55.3509 13.5633 55.4684C12.7706 54.9689 12.0367 54.4106 11.3027 53.8229C12.5358 53.529 13.8569 53.3527 15.2661 53.3527C21.8716 53.3527 23.6918 57.8779 28.3304 57.5841C34.3195 57.2021 35.0534 53.529 41.9819 53.3527C44.6535 53.2352 46.5618 53.9698 48.1765 54.8513Z" fill="url(#paint5_linear)"/>
<path d="M97.5861 36.7802H95.5604V38.9253H94.6797V33.8418H97.9091V34.547H95.5604V36.0456H97.5861V36.7802Z" fill="#2F3282"/>
<path d="M99.4945 38.9253H98.6138V33.8418H99.4945V38.9253Z" fill="#2F3282"/>
<path d="M103.223 37.6321C103.223 37.397 103.135 37.2501 102.988 37.1031C102.841 36.9856 102.548 36.8681 102.137 36.7505C101.726 36.633 101.403 36.4861 101.168 36.3391C100.698 36.0453 100.463 35.6633 100.463 35.1932C100.463 34.7818 100.639 34.4586 100.962 34.1941C101.285 33.9296 101.726 33.7827 102.254 33.7827C102.606 33.7827 102.929 33.8415 103.194 33.9884C103.458 34.1353 103.693 34.3116 103.839 34.5467C103.986 34.7818 104.074 35.0462 104.074 35.3401H103.194C103.194 35.0756 103.105 34.8699 102.959 34.723C102.782 34.5761 102.548 34.4879 102.254 34.4879C101.96 34.4879 101.755 34.5467 101.579 34.6642C101.432 34.7818 101.344 34.9581 101.344 35.1932C101.344 35.3695 101.432 35.5458 101.608 35.6633C101.784 35.7808 102.049 35.8984 102.46 36.0159C102.871 36.1335 103.164 36.2804 103.399 36.4273C103.634 36.5742 103.81 36.7505 103.927 36.9562C104.045 37.1619 104.104 37.3676 104.104 37.6321C104.104 38.0434 103.927 38.396 103.605 38.6311C103.282 38.8662 102.841 39.0131 102.283 39.0131C101.931 39.0131 101.579 38.9543 101.285 38.8074C100.992 38.6605 100.727 38.4842 100.581 38.2491C100.404 38.0141 100.316 37.7202 100.316 37.4264H101.197C101.197 37.7202 101.285 37.9259 101.491 38.1022C101.667 38.2491 101.96 38.3373 102.313 38.3373C102.606 38.3373 102.841 38.2785 103.017 38.161C103.164 37.9847 103.223 37.8377 103.223 37.6321Z" fill="#2F3282"/>
<path d="M108.918 38.9253H108.038V36.6627H105.777V38.9253H104.896V33.8418H105.777V35.9575H108.038V33.8418H108.918V38.9253Z" fill="#2F3282"/>
<path d="M112.911 36.6627H110.827V38.22H113.263V38.9253H109.946V33.8418H113.234V34.547H110.827V35.9575H112.911V36.6627Z" fill="#2F3282"/>
<path d="M115.847 36.9859H114.878V38.9253H113.997V33.8418H115.788C116.375 33.8418 116.816 33.9593 117.139 34.2238C117.462 34.4882 117.608 34.8702 117.608 35.3698C117.608 35.7224 117.52 35.9868 117.373 36.2219C117.197 36.457 116.992 36.6333 116.698 36.7508L117.843 38.8665V38.9253H116.904L115.847 36.9859ZM114.849 36.2807H115.759C116.052 36.2807 116.287 36.1925 116.463 36.0456C116.64 35.8987 116.728 35.693 116.728 35.4285C116.728 35.1641 116.64 34.9584 116.493 34.8115C116.346 34.6646 116.111 34.5764 115.788 34.5764H114.849V36.2807Z" fill="#2F3282"/>
<path d="M119.928 36.2513L121.102 33.8418H122.071L120.368 37.0447V38.9253H119.487V37.0447L117.784 33.8418H118.753L119.928 36.2513Z" fill="#2F3282"/>
<path d="M124.302 36.8682C124.302 36.3392 124.361 35.8103 124.508 35.3402C124.654 34.87 124.86 34.4293 125.153 34.0473C125.418 33.6653 125.741 33.4008 126.034 33.2539L126.21 33.7534C125.887 33.9885 125.623 34.3705 125.418 34.8994C125.212 35.399 125.095 35.9866 125.095 36.6625V36.9563C125.095 37.6615 125.183 38.2786 125.388 38.8369C125.594 39.3952 125.858 39.8066 126.21 40.1004L126.034 40.5706C125.711 40.4237 125.418 40.1592 125.153 39.7772C124.86 39.3952 124.654 38.9544 124.508 38.4843C124.39 37.9554 124.302 37.4265 124.302 36.8682Z" fill="#2F3282"/>
<path d="M130.526 34.5763H128.941V38.9252H128.06V34.5763H126.504V33.8711H130.526V34.5763Z" fill="#2F3282"/>
<path d="M135.223 38.9253H134.342V36.6627H132.082V38.9253H131.201V33.8418H132.082V35.9575H134.342V33.8418H135.223V38.9253Z" fill="#2F3282"/>
<path d="M139.157 37.7499H137.19L136.779 38.9253H135.869L137.777 33.8418H138.57L140.478 38.9253H139.568L139.157 37.7499ZM137.454 37.0447H138.922L138.188 34.929L137.454 37.0447Z" fill="#2F3282"/>
<path d="M142.005 38.9253H141.124V33.8418H142.005V38.9253Z" fill="#2F3282"/>
<path d="M143.972 38.22H146.262V38.9253H143.091V33.8418H143.972V38.22Z" fill="#2F3282"/>
<path d="M149.844 37.7499H147.877L147.466 38.9253H146.555L148.464 33.8418H149.256L151.165 38.9253H150.255L149.844 37.7499ZM148.141 37.0447H149.609L148.875 34.929L148.141 37.0447Z" fill="#2F3282"/>
<path d="M155.774 38.9253H154.893L152.632 35.3404V38.9253H151.752V33.8418H152.632L154.893 37.4561V33.8418H155.774V38.9253Z" fill="#2F3282"/>
<path d="M156.801 38.9253V33.8418H158.299C158.739 33.8418 159.15 33.9299 159.502 34.1356C159.855 34.3413 160.119 34.6058 160.295 34.9878C160.471 35.3698 160.588 35.7812 160.588 36.2513V36.5158C160.588 36.9859 160.5 37.4267 160.295 37.7793C160.089 38.1319 159.825 38.4257 159.473 38.6314C159.121 38.8371 158.71 38.9253 158.269 38.9253H156.801ZM157.682 34.5764V38.2494H158.269C158.739 38.2494 159.091 38.1025 159.326 37.8087C159.561 37.5148 159.708 37.1034 159.708 36.5745V36.2807C159.708 35.7224 159.59 35.311 159.355 35.0172C159.121 34.7233 158.768 34.5764 158.328 34.5764H157.682Z" fill="#2F3282"/>
<path d="M163.025 36.9268C163.025 37.4558 162.967 37.9259 162.82 38.4254C162.673 38.8956 162.468 39.3364 162.174 39.7477C161.88 40.1297 161.587 40.4236 161.264 40.5705L161.088 40.1003C161.44 39.8359 161.704 39.4245 161.91 38.8662C162.115 38.3079 162.203 37.6908 162.203 36.9562V36.8681C162.203 36.2216 162.115 35.6339 161.939 35.105C161.763 34.5761 161.499 34.1353 161.176 33.8415L161.058 33.7534L161.235 33.2832C161.528 33.4301 161.822 33.6946 162.086 34.0472C162.35 34.3998 162.585 34.8112 162.732 35.2813C162.879 35.7221 162.967 36.1922 162.996 36.6918L163.025 36.9268Z" fill="#2F3282"/>
<path d="M169.631 37.2795C169.572 37.8084 169.367 38.2492 169.044 38.543C168.691 38.8369 168.222 38.9838 167.664 38.9838C167.253 38.9838 166.901 38.8957 166.607 38.69C166.313 38.4843 166.049 38.2198 165.902 37.8672C165.726 37.5146 165.638 37.1032 165.638 36.6331V36.1629C165.638 35.6928 165.726 35.252 165.902 34.8994C166.079 34.5468 166.313 34.2529 166.636 34.0473C166.959 33.8416 167.312 33.7534 167.723 33.7534C168.28 33.7534 168.721 33.9003 169.073 34.1942C169.425 34.488 169.602 34.9288 169.66 35.4871H168.779C168.75 35.1345 168.633 34.87 168.457 34.6937C168.28 34.5468 168.046 34.4586 167.693 34.4586C167.312 34.4586 167.018 34.6056 166.813 34.87C166.607 35.1345 166.49 35.5752 166.49 36.1042V36.5449C166.49 37.1032 166.578 37.5146 166.783 37.8084C166.989 38.1023 167.253 38.2492 167.635 38.2492C167.987 38.2492 168.251 38.1611 168.427 38.0141C168.603 37.8672 168.721 37.6028 168.75 37.2501H169.631V37.2795Z" fill="#2F3282"/>
<path d="M174.446 36.5155C174.446 37.0151 174.357 37.4558 174.181 37.8378C174.005 38.2198 173.77 38.5137 173.447 38.69C173.124 38.8957 172.772 38.9838 172.332 38.9838C171.921 38.9838 171.568 38.8957 171.245 38.69C170.923 38.4843 170.688 38.1904 170.512 37.8378C170.335 37.4558 170.247 37.0445 170.247 36.5449V36.2511C170.247 35.7515 170.335 35.3108 170.512 34.9288C170.688 34.5468 170.923 34.2529 171.245 34.0473C171.568 33.8416 171.921 33.7534 172.332 33.7534C172.743 33.7534 173.124 33.8416 173.418 34.0473C173.741 34.2529 173.976 34.5174 174.152 34.8994C174.328 35.2814 174.416 35.6928 174.416 36.1923V36.5155H174.446ZM173.565 36.2511C173.565 35.6928 173.447 35.252 173.242 34.9582C173.036 34.6643 172.743 34.5174 172.332 34.5174C171.95 34.5174 171.656 34.6643 171.451 34.9582C171.245 35.252 171.128 35.6928 171.128 36.2217V36.5155C171.128 37.0738 171.245 37.5146 171.451 37.8084C171.656 38.1023 171.979 38.2786 172.361 38.2786C172.743 38.2786 173.036 38.1317 173.271 37.8378C173.477 37.544 173.594 37.1032 173.594 36.5449V36.2511H173.565Z" fill="#2F3282"/>
<path d="M175.356 38.0435C175.503 38.0435 175.649 38.1022 175.708 38.1904C175.796 38.2785 175.826 38.3961 175.826 38.5136C175.826 38.6605 175.796 38.7487 175.708 38.8368C175.62 38.925 175.503 38.9544 175.356 38.9544C175.209 38.9544 175.092 38.925 175.003 38.8368C174.915 38.7487 174.857 38.6311 174.857 38.5136C174.857 38.3667 174.886 38.2785 174.974 38.1904C175.092 38.0728 175.209 38.0435 175.356 38.0435Z" fill="#2F3282"/>
<path d="M176.941 40.0712L176.471 39.8067C176.618 39.601 176.706 39.4247 176.735 39.2484C176.794 39.1015 176.823 38.9252 176.823 38.7783V38.1318H177.587V38.7489C177.587 38.984 177.528 39.2484 177.411 39.4835C177.293 39.7186 177.146 39.9243 176.941 40.0712Z" fill="#2F3282"/>
<path d="M181.139 38.22H183.429V38.9253H180.258V33.8418H181.139V38.22Z" fill="#2F3282"/>
<path d="M187.04 34.5763H185.455V38.9252H184.574V34.5763H183.018V33.8711H187.04V34.5763Z" fill="#2F3282"/>
<path d="M187.715 38.9253V33.8418H189.213C189.653 33.8418 190.064 33.9299 190.416 34.1356C190.769 34.3413 191.033 34.6058 191.209 34.9878C191.385 35.3698 191.502 35.7812 191.502 36.2513V36.5158C191.502 36.9859 191.414 37.4267 191.209 37.7793C191.003 38.1319 190.739 38.4257 190.387 38.6314C190.035 38.8371 189.624 38.9253 189.183 38.9253H187.715ZM188.596 34.5764V38.2494H189.183C189.653 38.2494 190.005 38.1025 190.24 37.8087C190.475 37.5148 190.622 37.1034 190.622 36.5745V36.2807C190.622 35.7224 190.504 35.311 190.269 35.0172C190.035 34.7233 189.682 34.5764 189.242 34.5764H188.596Z" fill="#2F3282"/>
<path d="M192.383 38.0435C192.53 38.0435 192.677 38.1022 192.736 38.1904C192.824 38.2785 192.853 38.3961 192.853 38.5136C192.853 38.6605 192.824 38.7487 192.736 38.8368C192.648 38.925 192.53 38.9544 192.383 38.9544C192.237 38.9544 192.119 38.925 192.031 38.8368C191.943 38.7487 191.884 38.6311 191.884 38.5136C191.884 38.3667 191.914 38.2785 192.002 38.1904C192.119 38.0728 192.237 38.0435 192.383 38.0435Z" fill="#2F3282"/>
<path d="M97.2926 50.8258H95.4431V52.7652H94.6504V48.1519H97.5862V48.7983H95.4724V50.1794H97.3219V50.8258H97.2926Z" fill="#2F3282"/>
<path d="M99.0542 52.7652H98.2615V48.1519H99.0542V52.7652Z" fill="#2F3282"/>
<path d="M102.46 51.5899C102.46 51.3842 102.401 51.2373 102.254 51.1198C102.107 51.0022 101.843 50.8847 101.491 50.7965C101.109 50.679 100.816 50.5614 100.61 50.4145C100.199 50.1501 99.9936 49.7975 99.9936 49.3861C99.9936 49.0041 100.14 48.7102 100.434 48.4752C100.728 48.2401 101.139 48.1226 101.608 48.1226C101.931 48.1226 102.225 48.1813 102.46 48.2989C102.724 48.4164 102.9 48.5927 103.047 48.7984C103.194 49.0041 103.252 49.2685 103.252 49.533H102.46C102.46 49.2979 102.372 49.0922 102.225 48.9747C102.078 48.8278 101.873 48.769 101.579 48.769C101.315 48.769 101.109 48.8278 100.962 48.9453C100.816 49.0629 100.757 49.2098 100.757 49.4155C100.757 49.5918 100.845 49.7387 100.992 49.8268C101.139 49.9444 101.403 50.0619 101.755 50.1501C102.107 50.2676 102.401 50.3851 102.606 50.5027C102.812 50.6496 102.988 50.7965 103.076 50.9728C103.164 51.1491 103.223 51.3548 103.223 51.5899C103.223 51.9719 103.076 52.2657 102.783 52.5008C102.489 52.7359 102.078 52.8534 101.579 52.8534C101.256 52.8534 100.933 52.7946 100.669 52.6771C100.375 52.5596 100.17 52.3833 100.023 52.1776C99.8762 51.9719 99.7881 51.7074 99.7881 51.4136H100.581C100.581 51.6781 100.669 51.8837 100.845 52.0307C101.021 52.1776 101.256 52.2363 101.579 52.2363C101.843 52.2363 102.078 52.1776 102.195 52.06C102.372 51.9131 102.46 51.7662 102.46 51.5899Z" fill="#2F3282"/>
<path d="M107.597 52.7652H106.805V50.7083H104.75V52.7652H103.957V48.1519H104.75V50.0618H106.805V48.1519H107.597V52.7652Z" fill="#2F3282"/>
<path d="M111.238 50.7083H109.359V52.1187H111.561V52.7652H108.537V48.1519H111.531V48.7983H109.33V50.0618H111.208V50.7083H111.238Z" fill="#2F3282"/>
<path d="M113.909 51.0021H113.029V52.7652H112.236V48.1519H113.851C114.379 48.1519 114.79 48.2694 115.084 48.5045C115.377 48.7395 115.524 49.0922 115.524 49.5329C115.524 49.8268 115.436 50.0912 115.289 50.2969C115.142 50.5026 114.937 50.6789 114.673 50.7671L115.7 52.677V52.7064H114.849L113.909 51.0021ZM113.029 50.3557H113.851C114.115 50.3557 114.32 50.2969 114.496 50.15C114.643 50.0031 114.731 49.8268 114.731 49.5917C114.731 49.3566 114.673 49.1509 114.526 49.004C114.379 48.8571 114.173 48.7983 113.909 48.7983H113.029V50.3557Z" fill="#2F3282"/>
<path d="M117.608 50.3263L118.665 48.1519H119.546L117.99 51.0609V52.7652H117.197V51.0609L115.641 48.1519H116.522L117.608 50.3263Z" fill="#2F3282"/>
<path d="M121.601 50.8848C121.601 50.3852 121.66 49.9445 121.807 49.5037C121.924 49.063 122.13 48.681 122.394 48.3284C122.658 47.9757 122.922 47.7407 123.186 47.5938L123.333 48.0345C123.04 48.2696 122.805 48.5928 122.599 49.063C122.423 49.5331 122.306 50.062 122.306 50.6497V50.9142C122.306 51.5606 122.394 52.1189 122.57 52.6184C122.746 53.118 123.01 53.5 123.333 53.7644L123.186 54.2052C122.893 54.0583 122.629 53.8232 122.394 53.4706C122.13 53.118 121.953 52.736 121.807 52.2952C121.66 51.8838 121.601 51.4137 121.601 50.8848Z" fill="#2F3282"/>
<path d="M127.267 48.7983H125.829V52.7652H125.036V48.7983H123.597V48.1519H127.238V48.7983H127.267Z" fill="#2F3282"/>
<path d="M131.524 52.7654H130.731V50.7085H128.676V52.7654H127.884V48.1521H128.676V50.0621H130.731V48.1521H131.524V52.7654Z" fill="#2F3282"/>
<path d="M135.106 51.678H133.315L132.933 52.7652H132.111L133.843 48.1519H134.548L136.28 52.7652H135.458L135.106 51.678ZM133.55 51.0315H134.871L134.196 49.1215L133.55 51.0315Z" fill="#2F3282"/>
<path d="M137.689 52.7652H136.897V48.1519H137.689V52.7652Z" fill="#2F3282"/>
<path d="M141.065 51.0611V52.7654H140.273V48.1521H142.034C142.563 48.1521 142.944 48.299 143.267 48.5635C143.561 48.8279 143.708 49.1805 143.708 49.6213C143.708 50.0621 143.561 50.4147 143.267 50.6791C142.974 50.9436 142.563 51.0611 142.034 51.0611H141.065ZM141.065 50.4147H142.034C142.328 50.4147 142.533 50.3559 142.68 50.209C142.827 50.0621 142.915 49.8858 142.915 49.6213C142.915 49.3862 142.827 49.1805 142.68 49.0336C142.533 48.8867 142.328 48.7986 142.064 48.7986H141.065V50.4147Z" fill="#2F3282"/>
<path d="M146.438 51.6782H144.647L144.265 52.7654H143.443L145.175 48.1521H145.88L147.612 52.7654H146.79L146.438 51.6782ZM144.882 51.0318H146.203L145.528 49.1218L144.882 51.0318Z" fill="#2F3282"/>
<path d="M149.491 50.7671L148.963 51.3254V52.7652H148.17V48.1519H148.963V50.3263L149.403 49.768L150.754 48.1519H151.722L150.02 50.2088L151.84 52.7652H150.9L149.491 50.7671Z" fill="#2F3282"/>
<path d="M153.66 50.9435C153.66 51.4137 153.601 51.8545 153.455 52.2952C153.337 52.736 153.132 53.118 152.867 53.5C152.603 53.8526 152.339 54.117 152.045 54.2346L151.899 53.7938C152.222 53.5587 152.456 53.1767 152.662 52.6772C152.838 52.1777 152.926 51.59 152.926 50.9435V50.8848C152.926 50.2971 152.838 49.7682 152.691 49.2686C152.545 48.7985 152.31 48.3871 152.016 48.1227L151.928 48.0345L152.075 47.5938C152.339 47.7113 152.603 47.9464 152.867 48.299C153.132 48.6222 153.308 49.0042 153.455 49.4156C153.601 49.8269 153.66 50.2677 153.69 50.6791L153.66 50.9435Z" fill="#2F3282"/>
<path d="M158.827 50.7083H156.948V52.1187H159.15V52.7652H156.126V48.1519H159.121V48.7983H156.919V50.0618H158.798V50.7083H158.827Z" fill="#2F3282"/>
<path d="M163.466 52.7652H162.673L160.618 49.5035V52.7652H159.825V48.1519H160.618L162.673 51.4429V48.1519H163.466V52.7652Z" fill="#2F3282"/>
<path d="M167.635 48.7983H166.196V52.7652H165.403V48.7983H163.994V48.1519H167.635V48.7983Z" fill="#2F3282"/>
<path d="M170.952 50.7083H169.073V52.1187H171.275V52.7652H168.251V48.1519H171.245V48.7983H169.044V50.0618H170.923V50.7083H170.952Z" fill="#2F3282"/>
<path d="M173.594 51.0021H172.714V52.7652H171.921V48.1519H173.536C174.064 48.1519 174.475 48.2694 174.769 48.5045C175.062 48.7395 175.209 49.0922 175.209 49.5329C175.209 49.8268 175.121 50.0912 174.974 50.2969C174.827 50.5026 174.622 50.6789 174.358 50.7671L175.385 52.677V52.7064H174.534L173.594 51.0021ZM172.714 50.3557H173.536C173.8 50.3557 174.005 50.2969 174.181 50.15C174.328 50.0031 174.416 49.8268 174.416 49.5917C174.416 49.3566 174.358 49.1509 174.211 49.004C174.064 48.8571 173.859 48.7983 173.594 48.7983H172.743V50.3557H172.714Z" fill="#2F3282"/>
<path d="M176.765 51.0609V52.7652H175.972V48.1519H177.734C178.262 48.1519 178.644 48.2988 178.967 48.5632C179.26 48.8277 179.407 49.1803 179.407 49.6211C179.407 50.0618 179.26 50.4144 178.967 50.6789C178.673 50.9434 178.262 51.0609 177.734 51.0609H176.765ZM176.765 50.4144H177.734C178.027 50.4144 178.233 50.3557 178.38 50.2088C178.526 50.0618 178.614 49.8855 178.614 49.6211C178.614 49.386 178.526 49.1803 178.38 49.0334C178.233 48.8865 178.027 48.7983 177.763 48.7983H176.765V50.4144Z" fill="#2F3282"/>
<path d="M181.785 51.0024H180.904V52.7654H180.112V48.1521H181.726C182.255 48.1521 182.666 48.2696 182.959 48.5047C183.253 48.7398 183.4 49.0924 183.4 49.5332C183.4 49.827 183.312 50.0915 183.165 50.2972C183.018 50.5028 182.813 50.6791 182.548 50.7673L183.576 52.6773V52.7067H182.724L181.785 51.0024ZM180.904 50.3559H181.726C181.99 50.3559 182.196 50.2972 182.372 50.1502C182.519 50.0033 182.607 49.827 182.607 49.5919C182.607 49.3569 182.548 49.1512 182.402 49.0042C182.255 48.8573 182.049 48.7986 181.785 48.7986H180.934V50.3559H180.904Z" fill="#2F3282"/>
<path d="M184.985 52.7654H184.192V48.1521H184.985V52.7654Z" fill="#2F3282"/>
<path d="M188.361 51.5899C188.361 51.3842 188.303 51.2373 188.156 51.1198C188.009 51.0022 187.745 50.8847 187.392 50.7965C187.011 50.679 186.717 50.5614 186.512 50.4145C186.101 50.1501 185.895 49.7975 185.895 49.3861C185.895 49.0041 186.042 48.7102 186.336 48.4752C186.629 48.2401 187.04 48.1226 187.51 48.1226C187.833 48.1226 188.126 48.1813 188.361 48.2989C188.626 48.4164 188.802 48.5927 188.948 48.7984C189.095 49.0041 189.154 49.2685 189.154 49.533H188.361C188.361 49.2979 188.273 49.0922 188.126 48.9747C187.98 48.8278 187.774 48.769 187.481 48.769C187.216 48.769 187.011 48.8278 186.864 48.9453C186.717 49.0629 186.659 49.2098 186.659 49.4155C186.659 49.5918 186.747 49.7387 186.893 49.8268C187.04 49.9444 187.304 50.0619 187.657 50.1501C188.009 50.2676 188.303 50.3851 188.508 50.5027C188.714 50.6496 188.89 50.7965 188.978 50.9728C189.066 51.1491 189.125 51.3548 189.125 51.5899C189.125 51.9719 188.978 52.2657 188.684 52.5008C188.391 52.7359 187.98 52.8534 187.481 52.8534C187.158 52.8534 186.835 52.7946 186.57 52.6771C186.277 52.5596 186.071 52.3833 185.925 52.1776C185.778 51.9719 185.69 51.7074 185.69 51.4136H186.482C186.482 51.6781 186.57 51.8837 186.747 52.0307C186.923 52.1776 187.158 52.2363 187.481 52.2363C187.745 52.2363 187.98 52.1776 188.097 52.06C188.303 51.9131 188.361 51.7662 188.361 51.5899Z" fill="#2F3282"/>
<path d="M192.56 50.7083H190.681V52.1187H192.883V52.7652H189.859V48.1519H192.853V48.7983H190.651V50.0618H192.53V50.7083H192.56Z" fill="#2F3282"/>
<path d="M98.3789 24.9978C99.5533 25.6149 100.874 25.9381 102.342 25.9381C103.81 25.9381 105.131 25.6149 106.306 24.9978C107.48 24.3808 108.39 23.4698 109.065 22.3239C109.741 21.1485 110.063 19.7968 110.063 18.2101C110.063 16.6233 109.741 15.2423 109.065 14.0669C108.39 12.8915 107.48 12.01 106.306 11.3929C105.131 10.7759 103.81 10.4526 102.342 10.4526C100.874 10.4526 99.5533 10.7759 98.3789 11.3929C97.2046 12.01 96.2945 12.8915 95.6193 14.0669C94.944 15.2423 94.6211 16.6233 94.6211 18.2101C94.6211 19.7968 94.944 21.1485 95.6193 22.3239C96.2945 23.4698 97.2046 24.3514 98.3789 24.9978ZM99.612 14.919C100.346 14.155 101.256 13.8024 102.342 13.8024C103.399 13.8024 104.309 14.1844 105.073 14.919C105.807 15.683 106.188 16.7702 106.188 18.2101C106.188 19.6499 105.807 20.7371 105.073 21.5011C104.339 22.2651 103.429 22.6177 102.342 22.6177C101.285 22.6177 100.375 22.2357 99.612 21.5011C98.878 20.7371 98.4964 19.6499 98.4964 18.2101C98.4964 16.7409 98.878 15.6536 99.612 14.919Z" fill="#2F3282"/>
<path d="M118.988 24.9969C120.133 25.614 121.425 25.9372 122.922 25.9372C124.86 25.9372 126.475 25.4083 127.796 24.3505C129.087 23.2926 129.909 21.8528 130.232 20.031H126.181C126.005 20.8244 125.653 21.4708 125.065 21.9116C124.478 22.3817 123.744 22.6168 122.864 22.6168C121.836 22.6168 120.985 22.2348 120.309 21.5002C119.634 20.7362 119.282 19.649 119.282 18.1798C119.282 16.74 119.634 15.6234 120.309 14.8594C120.985 14.0954 121.836 13.7428 122.864 13.7428C123.744 13.7428 124.478 13.9779 125.065 14.448C125.653 14.9181 126.005 15.5352 126.181 16.3286H130.232C129.909 14.5068 129.087 13.0669 127.796 12.0091C126.504 10.9513 124.889 10.4224 122.922 10.4224C121.454 10.4224 120.133 10.7456 118.988 11.3627C117.843 11.9797 116.963 12.8613 116.317 14.0366C115.671 15.212 115.377 16.593 115.377 18.1798C115.377 19.7665 115.7 21.1182 116.317 22.2936C116.963 23.4689 117.843 24.3505 118.988 24.9969Z" fill="#2F3282"/>
<path d="M139.157 24.9969C140.302 25.614 141.594 25.9372 143.091 25.9372C144.354 25.9372 145.469 25.7021 146.497 25.232C147.524 24.7619 148.376 24.1154 149.022 23.2633C149.668 22.4405 150.108 21.4708 150.313 20.4424H146.262C146.086 21.177 145.734 21.7647 145.146 22.2054C144.559 22.6462 143.825 22.8519 142.915 22.8519C141.917 22.8519 141.095 22.5287 140.42 21.9116C139.744 21.2651 139.392 20.2955 139.333 18.9438H150.401C150.49 18.4443 150.548 18.0035 150.548 17.6215C150.548 16.2404 150.255 15.0063 149.638 13.9191C149.022 12.8319 148.17 11.9797 147.055 11.3627C145.939 10.7456 144.647 10.4224 143.15 10.4224C141.682 10.4224 140.361 10.7456 139.216 11.3627C138.071 11.9797 137.19 12.8613 136.544 14.0366C135.899 15.212 135.605 16.593 135.605 18.1798C135.605 19.7665 135.928 21.1182 136.544 22.2936C137.102 23.4689 138.012 24.3505 139.157 24.9969ZM140.449 14.4186C141.154 13.7722 142.034 13.4783 143.062 13.4783C144.089 13.4783 144.941 13.8015 145.645 14.4186C146.35 15.0651 146.673 15.976 146.614 17.2395H139.304C139.363 16.0054 139.744 15.0651 140.449 14.4186Z" fill="#206EB4"/>
<path d="M159.033 24.9969C160.06 25.614 161.205 25.9372 162.468 25.9372C163.73 25.9372 164.816 25.6434 165.726 25.0263C166.636 24.4092 167.282 23.6159 167.664 22.5874V25.7609H171.48V10.6281H167.664V13.7722C167.282 12.7437 166.636 11.9503 165.726 11.3333C164.816 10.7456 163.73 10.4224 162.468 10.4224C161.205 10.4224 160.06 10.7456 159.033 11.3627C158.005 11.9797 157.212 12.8613 156.655 14.0366C156.097 15.212 155.803 16.593 155.803 18.1798C155.803 19.7665 156.097 21.1476 156.655 22.323C157.212 23.4983 158.005 24.3799 159.033 24.9969ZM160.765 14.9769C161.499 14.1835 162.468 13.8015 163.642 13.8015C164.816 13.8015 165.756 14.1835 166.519 14.9769C167.282 15.7703 167.635 16.8281 167.635 18.1798C167.635 19.5021 167.253 20.5599 166.519 21.3533C165.756 22.1467 164.816 22.5287 163.642 22.5287C162.438 22.5287 161.469 22.1467 160.765 21.3827C160.031 20.6187 159.678 19.5315 159.678 18.1798C159.678 16.8281 160.031 15.7409 160.765 14.9769Z" fill="#2F3282"/>
<path d="M182.137 17.7394C182.137 16.4171 182.46 15.3887 183.106 14.6835C183.752 13.9783 184.633 13.6256 185.719 13.6256C186.776 13.6256 187.627 13.9489 188.244 14.6247C188.86 15.3005 189.183 16.2115 189.183 17.4162V25.7613H193V16.9754C193 14.9185 192.471 13.3024 191.444 12.1564C190.416 11.0104 189.007 10.4521 187.275 10.4521C186.071 10.4521 185.015 10.746 184.104 11.3043C183.194 11.8626 182.519 12.6853 182.137 13.6844V10.6285H178.292V25.7319H182.137V17.7394Z" fill="#2F3282"/>
<path d="M140.948 43.2739H94.5623V43.6559H140.948C140.948 43.5972 140.948 43.5384 140.948 43.4796C140.948 43.4209 140.948 43.3621 140.948 43.2739Z" fill="#2F3282"/>
<path d="M146.497 43.274C146.497 43.3328 146.497 43.3916 146.497 43.4503C146.497 43.5091 146.497 43.5679 146.497 43.6266H192.883V43.2446H146.497V43.274Z" fill="#2F3282"/>
<path d="M144.765 44.4492C144.911 44.2436 145.029 43.9791 145.058 43.6559C145.058 43.5677 145.088 43.4796 145.088 43.3914H144.589C144.589 43.4796 144.589 43.5677 144.559 43.6559C144.53 43.7734 144.5 43.9203 144.442 44.0379L144.119 43.6559L143.796 43.2739L143.737 43.2151L143.972 43.0388C144.148 42.9213 144.266 42.8037 144.324 42.6862C144.412 42.5687 144.442 42.4217 144.442 42.2748C144.442 42.0397 144.354 41.8634 144.207 41.7165C144.031 41.5696 143.825 41.4814 143.59 41.4814C143.297 41.4814 143.091 41.5696 142.915 41.7165C142.739 41.8634 142.68 42.0985 142.68 42.363C142.68 42.4805 142.71 42.598 142.768 42.7156C142.827 42.8331 142.915 42.98 143.062 43.1563C143.003 43.1857 142.974 43.2151 142.915 43.2445C142.739 43.3914 142.592 43.509 142.533 43.6265C142.445 43.7734 142.416 43.9203 142.416 44.0673C142.416 44.3611 142.533 44.5962 142.739 44.7725C142.944 44.9488 143.209 45.0369 143.561 45.0369C143.913 45.0369 144.207 44.9488 144.442 44.7431L144.647 44.9782H145.322L144.765 44.4492ZM143.297 42.0985C143.355 42.0104 143.444 41.981 143.561 41.981C143.678 41.981 143.766 42.0104 143.825 42.0691C143.884 42.1279 143.943 42.2161 143.943 42.3042C143.943 42.4511 143.884 42.5687 143.796 42.6568L143.708 42.7156L143.444 42.8919C143.267 42.6862 143.209 42.5099 143.209 42.3924C143.209 42.2748 143.238 42.1573 143.297 42.0985ZM143.532 44.6256C143.355 44.6256 143.209 44.5668 143.121 44.4786C143.003 44.3905 142.974 44.2436 142.974 44.0966C142.974 43.9497 143.033 43.8028 143.179 43.6559C143.209 43.6265 143.238 43.5971 143.267 43.5971L143.355 43.5383L143.473 43.6559L144.119 44.4199C143.913 44.5668 143.708 44.6256 143.532 44.6256Z" fill="#2F3282"/>
<path d="M69.7841 37.0153C68.5217 37.6323 67.0832 38.2788 65.3804 38.8959C64.9694 39.0428 64.5878 39.1603 64.1767 39.2191C64.0299 39.2485 63.8538 39.2779 63.707 39.2779C62.7675 39.366 61.8281 39.3072 60.8593 39.0722C60.6538 39.0134 60.4483 38.984 60.2721 38.9252C59.9785 38.8371 59.685 38.7489 59.3914 38.6314C58.8629 38.4257 58.3638 38.22 57.8354 37.9556C53.7546 35.9281 49.6738 31.9612 46.5032 28.3176C50.0261 25.2322 54.5766 21.6767 58.8629 19.6786C59.1565 19.5611 59.4207 19.4141 59.7143 19.2966C61.2996 18.6208 62.8263 18.2094 64.2648 18.1212C66.2612 18.0037 67.9933 18.5326 69.4905 19.4141C71.8392 24.7914 72.4264 31.3147 69.7841 37.0153Z" fill="#B1DCF5"/>
<path d="M40.3674 20.354C40.3674 20.354 42.8629 24.1446 46.5033 28.3465C42.8629 31.52 40.3674 34.194 40.3674 34.194C40.3674 34.194 41.6005 25.2318 40.3674 20.354Z" fill="#B1DCF5"/>
<path d="M77.1531 30.8737C77.1531 30.8737 76.2136 33.8709 69.7842 37.0444C72.4264 31.3145 71.8392 24.7912 69.4319 19.4727C74.8925 22.7049 77.1531 30.8737 77.1531 30.8737Z" fill="white"/>
<path d="M77.3293 30.8152C77.2999 30.7271 75.01 22.5877 69.5787 19.326C67.6704 15.1535 64.6759 11.7449 61.3291 10.0112L61.153 10.3345C64.2943 11.98 67.142 15.1241 69.0209 19.0322C67.4943 18.2388 65.8796 17.9156 64.2062 18.0037C62.8264 18.0919 61.2997 18.4739 59.597 19.1791C59.3034 19.2966 59.0392 19.4142 58.7456 19.5611C54.3712 21.5886 49.6739 25.291 46.5033 28.1119C42.9803 24.0275 40.5436 20.3251 40.5142 20.2957L39.8977 19.3554L40.1619 20.4426C41.395 25.2322 40.1619 34.1063 40.1619 34.1944L40.0739 34.7821L40.4849 34.3414C40.5142 34.312 42.9803 31.6968 46.4446 28.6408C50.496 33.2835 54.2832 36.4864 57.7181 38.1907C58.2171 38.4258 58.7456 38.6608 59.3034 38.8665C59.597 38.9841 59.8906 39.0722 60.1841 39.1604C60.3896 39.2191 60.5951 39.2779 60.8007 39.3073C61.5053 39.4836 62.1805 39.5424 62.8557 39.5424C63.1493 39.5424 63.4135 39.513 63.7071 39.4836C63.8539 39.4542 64.03 39.4542 64.2062 39.4248C64.6466 39.3367 65.0576 39.2485 65.4686 39.1016C66.8778 38.6021 68.1989 38.0438 69.4319 37.4561C67.7292 40.894 64.9695 43.7443 61.1823 45.8893L61.153 45.9187H61.1236L61.2704 46.0656L61.3585 46.2126L61.3878 46.1832C65.3512 43.8912 68.2282 40.8646 69.9604 37.1622C76.3017 33.9887 77.3293 31.0503 77.3586 30.9034L77.388 30.8446L77.3293 30.8152ZM40.6023 33.6655C40.8372 31.7555 41.483 25.4967 40.7197 21.2654C41.6298 22.5877 43.6262 25.3498 46.2097 28.347C43.5381 30.6977 41.4537 32.784 40.6023 33.6655ZM65.2924 38.7196C64.9108 38.8665 64.5291 38.9547 64.1181 39.0428C63.9713 39.0722 63.7952 39.1016 63.6484 39.1016C62.7676 39.1897 61.8282 39.131 60.8887 38.8959C60.6832 38.8371 60.5071 38.8078 60.3016 38.749C60.008 38.6608 59.7438 38.5727 59.4502 38.4845C58.9217 38.2788 58.3933 38.0731 57.9236 37.8087C54.5474 36.1338 50.7896 32.9603 46.7675 28.347C49.9382 25.5555 54.5767 21.8824 58.9217 19.8549C59.186 19.7374 59.4795 19.5905 59.7438 19.4729C61.3878 18.7677 62.8851 18.3857 64.2062 18.327C65.9677 18.2388 67.6704 18.6502 69.2558 19.5611C69.3439 19.7668 69.4319 19.9431 69.52 20.1488C69.5787 20.2957 69.6668 20.472 69.7255 20.6189C69.8136 20.8246 69.8723 21.0303 69.9604 21.236C70.0191 21.4123 70.0778 21.5592 70.1365 21.7355C70.1952 21.9412 70.254 22.1469 70.3127 22.3526C70.3714 22.5289 70.4301 22.6758 70.4595 22.8521C70.5182 23.0578 70.5769 23.2635 70.6063 23.4692C70.6356 23.6455 70.6943 23.8218 70.7237 23.9687C70.7824 24.1744 70.8118 24.3801 70.8411 24.5564C70.8705 24.7327 70.9292 24.909 70.9585 25.0853C70.9879 25.291 71.0173 25.4673 71.0466 25.673C71.076 25.8493 71.1053 26.0256 71.1347 26.2019C71.1641 26.3782 71.1641 26.5545 71.1934 26.7602C71.2228 27.201 71.2815 27.6124 71.2815 28.0531C71.2815 28.1707 71.3108 28.3176 71.3108 28.4351C71.3108 28.6408 71.3108 28.8465 71.3108 29.0522C71.3108 29.2285 71.3108 29.3754 71.3108 29.5517C71.3108 29.7574 71.2815 29.9337 71.2815 30.1394C71.2815 30.3157 71.2521 30.492 71.2521 30.6389C71.2228 30.8152 71.2228 31.0209 71.1934 31.1972C71.1641 31.3735 71.1641 31.5499 71.1347 31.7262C71.1053 31.9025 71.076 32.0788 71.0466 32.2551C71.0173 32.4314 70.9879 32.6077 70.9585 32.784C70.9292 32.9603 70.8705 33.1366 70.8411 33.3129C70.8118 33.4892 70.753 33.6655 70.7237 33.8418C70.665 34.0181 70.6356 34.1944 70.5769 34.3414C70.5182 34.5177 70.4888 34.694 70.4301 34.8703C70.3714 35.0466 70.3127 35.1935 70.254 35.3698C70.1952 35.5461 70.1365 35.7224 70.0778 35.8987C70.0191 36.0456 69.931 36.2219 69.8723 36.3689C69.8136 36.5452 69.7255 36.6921 69.6668 36.8684C68.3163 37.5442 66.8484 38.1613 65.2924 38.7196ZM70.1659 36.6333C70.1952 36.5452 70.2246 36.457 70.2833 36.3395C70.342 36.1926 70.4007 36.0456 70.4595 35.8987C70.5182 35.7224 70.6063 35.5461 70.665 35.3404C70.7237 35.1935 70.7824 35.0466 70.8118 34.8703C70.8705 34.694 70.9292 34.4883 70.9879 34.312C71.0173 34.165 71.076 34.0181 71.1053 33.8418C71.1641 33.6361 71.1934 33.4598 71.2521 33.2541C71.2815 33.1072 71.3108 32.9603 71.3402 32.784C71.3696 32.5783 71.3989 32.3726 71.4576 32.1669C71.487 32.02 71.5164 31.8731 71.5164 31.7262C71.5457 31.5205 71.5751 31.2854 71.6044 31.0797C71.6338 30.9328 71.6338 30.7859 71.6631 30.6683C71.6925 30.4333 71.6925 30.1688 71.7219 29.9043C71.7219 29.7868 71.7512 29.6693 71.7512 29.5811C71.7512 29.2285 71.7512 28.8465 71.7512 28.4939C71.7512 28.4351 71.7512 28.4057 71.7512 28.347C71.7512 28.0237 71.7219 27.7005 71.6925 27.3773C71.6925 27.2598 71.6631 27.1128 71.6631 26.9953C71.6338 26.7602 71.6338 26.5252 71.6044 26.2607C71.5751 26.1138 71.5751 25.9669 71.5457 25.8199C71.5164 25.6142 71.487 25.3792 71.4576 25.1735C71.4283 25.0266 71.3989 24.8503 71.3696 24.7033C71.3402 24.4976 71.2815 24.292 71.2521 24.0569C71.2228 23.8806 71.1641 23.7337 71.1347 23.5573C71.076 23.3517 71.0173 23.146 70.9879 22.9403C70.9292 22.764 70.8998 22.6171 70.8411 22.4407C70.7824 22.2351 70.7237 22.0294 70.665 21.8237C70.6063 21.6474 70.5475 21.5005 70.4888 21.3241C70.4301 21.1185 70.342 20.9128 70.254 20.7071C70.1952 20.5308 70.1365 20.3839 70.0485 20.2076C70.0191 20.1194 69.9604 20.0019 69.931 19.9137C74.687 23.1166 76.8302 30.11 77.0357 30.8152C76.8008 31.2266 75.5678 33.8418 70.1659 36.6333Z" fill="#2F3182"/>
<defs>
<linearGradient id="paint0_linear" x1="30.4346" y1="60.4311" x2="30.4346" y2="0.696289" gradientUnits="userSpaceOnUse">
<stop offset="0.0172256" stop-color="white"/>
<stop offset="0.475" stop-color="#F6FBFD"/>
<stop offset="1" stop-color="#86CCEC"/>
</linearGradient>
<linearGradient id="paint1_linear" x1="1.35006" y1="39.2265" x2="60.0385" y2="39.2265" gradientUnits="userSpaceOnUse">
<stop offset="0.1537" stop-color="#1E6DB4"/>
<stop offset="0.4013" stop-color="#2C8DCC"/>
<stop offset="0.6277" stop-color="#1E6DB4"/>
<stop offset="0.8611" stop-color="#2C8DCC"/>
<stop offset="1" stop-color="#1B66AF"/>
</linearGradient>
<linearGradient id="paint2_linear" x1="2.85432" y1="43.1255" x2="58.0946" y2="43.1255" gradientUnits="userSpaceOnUse">
<stop offset="0.1537" stop-color="#1E6DB4"/>
<stop offset="0.4013" stop-color="#2C8DCC"/>
<stop offset="0.6277" stop-color="#1E6DB4"/>
<stop offset="0.8611" stop-color="#2C8DCC"/>
<stop offset="1" stop-color="#1B66AF"/>
</linearGradient>
<linearGradient id="paint3_linear" x1="5.10707" y1="47.7282" x2="54.4176" y2="47.7282" gradientUnits="userSpaceOnUse">
<stop offset="0.1537" stop-color="#1E6DB4"/>
<stop offset="0.4013" stop-color="#2C8DCC"/>
<stop offset="0.6277" stop-color="#1E6DB4"/>
<stop offset="0.8611" stop-color="#2C8DCC"/>
<stop offset="1" stop-color="#1B66AF"/>
</linearGradient>
<linearGradient id="paint4_linear" x1="7.8098" y1="51.7963" x2="51.6591" y2="51.7963" gradientUnits="userSpaceOnUse">
<stop offset="0.1537" stop-color="#1E6DB4"/>
<stop offset="0.4013" stop-color="#2C8DCC"/>
<stop offset="0.6277" stop-color="#1E6DB4"/>
<stop offset="0.8611" stop-color="#2C8DCC"/>
<stop offset="1" stop-color="#1B66AF"/>
</linearGradient>
<linearGradient id="paint5_linear" x1="11.303" y1="56.4962" x2="48.1681" y2="56.4962" gradientUnits="userSpaceOnUse">
<stop offset="0.1537" stop-color="#1E6DB4"/>
<stop offset="0.4013" stop-color="#2C8DCC"/>
<stop offset="0.6277" stop-color="#1E6DB4"/>
<stop offset="0.8611" stop-color="#2C8DCC"/>
<stop offset="1" stop-color="#1B66AF"/>
</linearGradient>
</defs>
</svg>
