<svg width="252" height="252" viewBox="0 0 252 252" fill="none" xmlns="http://www.w3.org/2000/svg">
<g filter="url(#filter0_d)">
<path fill-rule="evenodd" clip-rule="evenodd" d="M179.114 103.963L128.373 67.0723V56.7848C136.515 55.4118 142.741 48.332 142.741 39.8102V21.3224C193.28 29.3675 231.908 73.1497 231.908 125.954C231.908 184.471 184.471 231.908 125.954 231.908C67.4372 231.908 20 184.471 20 125.954C20 67.4372 67.4372 20 125.954 20C129.682 20 133.365 20.1926 136.994 20.5682V39.8102C136.994 45.153 133.324 49.6418 128.373 50.923V49.3852C128.373 47.7977 127.088 46.5127 125.5 46.5127C123.912 46.5127 122.627 47.7977 122.627 49.3852V50.923C117.678 49.6418 114.006 45.153 114.006 39.8102C114.006 38.2226 112.721 36.9376 111.133 36.9376C109.544 36.9376 108.259 38.2226 108.259 39.8102C108.259 48.332 114.485 55.4118 122.627 56.7848V67.0723L71.8863 103.963H46V181.521H205V103.963H179.114ZM125.5 72.0858L169.346 103.963H81.6543L125.5 72.0858ZM70.9036 169.073C70.9036 170.659 69.6182 171.946 68.0301 171.946C66.442 171.946 65.1566 170.659 65.1566 169.073V116.411C65.1566 114.825 66.442 113.538 68.0301 113.538C69.6182 113.538 70.9036 114.825 70.9036 116.411V169.073ZM90.0602 169.073C90.0602 170.659 88.7748 171.946 87.1867 171.946C85.5987 171.946 84.3133 170.659 84.3133 169.073V116.411C84.3133 114.825 85.5987 113.538 87.1867 113.538C88.7748 113.538 90.0602 114.825 90.0602 116.411V169.073ZM109.217 169.073C109.217 170.659 107.931 171.946 106.343 171.946C104.755 171.946 103.47 170.659 103.47 169.073V116.411C103.47 114.825 104.755 113.538 106.343 113.538C107.931 113.538 109.217 114.825 109.217 116.411V169.073ZM128.373 169.073C128.373 170.659 127.088 171.946 125.5 171.946C123.912 171.946 122.627 170.659 122.627 169.073V116.411C122.627 114.825 123.912 113.538 125.5 113.538C127.088 113.538 128.373 114.825 128.373 116.411V169.073ZM147.53 169.073C147.53 170.659 146.243 171.946 144.657 171.946C143.07 171.946 141.783 170.659 141.783 169.073V116.411C141.783 114.825 143.07 113.538 144.657 113.538C146.243 113.538 147.53 114.825 147.53 116.411V169.073ZM166.687 169.073C166.687 170.659 165.399 171.946 163.813 171.946C162.227 171.946 160.94 170.659 160.94 169.073V116.411C160.94 114.825 162.227 113.538 163.813 113.538C165.399 113.538 166.687 114.825 166.687 116.411V169.073ZM185.843 169.073C185.843 170.659 184.556 171.946 182.97 171.946C181.384 171.946 180.096 170.659 180.096 169.073V116.411C180.096 114.825 181.384 113.538 182.97 113.538C184.556 113.538 185.843 114.825 185.843 116.411V169.073ZM117.328 85.5387C116.755 85.2574 116.068 85.1168 115.267 85.1168C114.002 85.1168 113.017 85.4413 112.314 86.0904C111.611 86.7395 111.232 87.6699 111.178 88.8815H113.888C113.921 88.438 114.05 88.0864 114.278 87.8267C114.505 87.5563 114.813 87.4211 115.202 87.4211C115.559 87.4211 115.841 87.5292 116.046 87.7456C116.263 87.9511 116.371 88.2486 116.371 88.6381C116.371 89.536 115.76 89.9741 114.537 89.9525H114.034V92.2081H114.553C115.916 92.2081 116.598 92.6787 116.598 93.6198C116.598 93.9985 116.479 94.3068 116.241 94.5448C116.014 94.7828 115.7 94.9018 115.3 94.9018C114.802 94.9018 114.424 94.7557 114.164 94.4637C113.904 94.1716 113.764 93.7713 113.742 93.2628H111.032C111.097 94.5935 111.514 95.5833 112.282 96.2324C113.06 96.8815 114.11 97.2061 115.43 97.2061C116.241 97.2061 116.933 97.0654 117.507 96.7841C118.091 96.4921 118.534 96.0918 118.837 95.5833C119.14 95.0641 119.292 94.4745 119.292 93.8146C119.292 92.4407 118.551 91.5157 117.069 91.0397V90.9586C117.642 90.8396 118.118 90.5529 118.497 90.0985C118.886 89.6442 119.081 89.0438 119.081 88.2973C119.081 87.6915 118.929 87.1506 118.626 86.6746C118.334 86.1878 117.902 85.8092 117.328 85.5387ZM121.961 95.5022C121.236 94.4528 120.873 93.0303 120.873 91.2345C120.873 89.4495 121.236 88.0377 121.961 86.9992C122.685 85.9498 123.843 85.4251 125.433 85.4251C127.013 85.4251 128.165 85.9498 128.89 86.9992C129.625 88.0377 129.993 89.4495 129.993 91.2345C129.993 93.0303 129.625 94.4528 128.89 95.5022C128.165 96.5516 127.013 97.0762 125.433 97.0762C123.843 97.0762 122.685 96.5516 121.961 95.5022ZM126.861 93.6198C127.11 93.0573 127.234 92.2622 127.234 91.2345C127.234 90.2067 127.11 89.4224 126.861 88.8815C126.623 88.3298 126.147 88.0539 125.433 88.0539C124.708 88.0539 124.222 88.3298 123.973 88.8815C123.724 89.4332 123.6 90.2175 123.6 91.2345C123.6 92.2622 123.724 93.0573 123.973 93.6198C124.222 94.1716 124.708 94.4474 125.433 94.4474C126.147 94.4474 126.623 94.1716 126.861 93.6198ZM132.404 95.5022C131.679 94.4528 131.316 93.0303 131.316 91.2345C131.316 89.4495 131.679 88.0377 132.404 86.9992C133.128 85.9498 134.286 85.4251 135.876 85.4251C137.456 85.4251 138.608 85.9498 139.333 86.9992C140.068 88.0377 140.436 89.4495 140.436 91.2345C140.436 93.0303 140.068 94.4528 139.333 95.5022C138.608 96.5516 137.456 97.0762 135.876 97.0762C134.286 97.0762 133.128 96.5516 132.404 95.5022ZM137.304 93.6198C137.553 93.0573 137.678 92.2622 137.678 91.2345C137.678 90.2067 137.553 89.4224 137.304 88.8815C137.066 88.3298 136.59 88.0539 135.876 88.0539C135.151 88.0539 134.665 88.3298 134.416 88.8815C134.167 89.4332 134.043 90.2175 134.043 91.2345C134.043 92.2622 134.167 93.0573 134.416 93.6198C134.665 94.1716 135.151 94.4474 135.876 94.4474C136.59 94.4474 137.066 94.1716 137.304 93.6198Z" fill="#F9F9F9"/>
</g>
<defs>
<filter id="filter0_d" x="0" y="0" width="251.908" height="251.908" filterUnits="userSpaceOnUse" color-interpolation-filters="sRGB">
<feFlood flood-opacity="0" result="BackgroundImageFix"/>
<feColorMatrix in="SourceAlpha" type="matrix" values="0 0 0 0 0 0 0 0 0 0 0 0 0 0 0 0 0 0 127 0"/>
<feOffset/>
<feGaussianBlur stdDeviation="10"/>
<feColorMatrix type="matrix" values="0 0 0 0 0.694118 0 0 0 0 0.866667 0 0 0 0 0.964706 0 0 0 0.3 0"/>
<feBlend mode="normal" in2="BackgroundImageFix" result="effect1_dropShadow"/>
<feBlend mode="normal" in="SourceGraphic" in2="effect1_dropShadow" result="shape"/>
</filter>
</defs>
</svg>
