<svg width="142" height="189" viewBox="0 0 142 189" fill="none" xmlns="http://www.w3.org/2000/svg">
<g filter="url(#filter0_d)">
<path d="M25.2775 20.1699C25.0689 20.1698 24.8632 20.2187 24.6769 20.3126C24.4907 20.4065 24.3291 20.5428 24.2051 20.7106C24.0812 20.8784 23.9984 21.0729 23.9633 21.2786C23.9283 21.4842 23.942 21.6952 24.0033 21.8945C24.0033 21.8945 24.2369 22.7018 24.616 24.0673V131.189C24.3336 131.317 24.094 131.524 23.9258 131.784C23.7577 132.045 23.668 132.348 23.6676 132.658C23.6679 132.968 23.7575 133.271 23.9257 133.532C24.0939 133.792 24.3335 133.999 24.616 134.127V137.322C24.616 138.243 23.8951 138.963 22.9741 138.963C22.053 138.963 21.3325 138.243 21.3325 137.322V136.468H23.0868L20 133.03V137.322C20 138.958 21.3379 140.296 22.9741 140.296C24.6103 140.296 25.9484 138.958 25.9484 137.322V134.126C26.2308 133.998 26.4704 133.792 26.6385 133.532C26.8067 133.271 26.8963 132.968 26.8967 132.658C26.8964 132.348 26.8067 132.044 26.6386 131.784C26.4704 131.524 26.2308 131.317 25.9484 131.189V29.0148C28.7626 39.711 34.0407 61.3683 37.6831 86.0229L35.8687 88.5486C34.3343 90.6213 34.7928 93.5486 36.8873 95.053C37.5426 95.5239 38.2787 95.7984 39.0262 95.8885C41.1621 113.071 42.1349 129.347 42.564 141.879C42.2955 141.016 41.7584 140.262 41.031 139.726C40.3036 139.19 39.4239 138.9 38.5203 138.899C37.3958 138.899 36.3174 139.345 35.5223 140.14C34.7272 140.936 34.2804 142.014 34.2804 143.138C34.2804 143.695 34.39 144.247 34.6031 144.761C34.8162 145.276 35.1285 145.743 35.5222 146.137C35.9159 146.53 36.3833 146.843 36.8977 147.056C37.4121 147.269 37.9635 147.379 38.5203 147.379C39.4711 147.377 40.394 147.057 41.1406 146.468C41.8873 145.879 42.4143 145.056 42.6371 144.132C42.6629 144.986 42.6861 145.818 42.707 146.631C42.4002 146.856 42.1531 147.153 41.9872 147.495C41.8214 147.838 41.7419 148.216 41.7556 148.596C41.9936 159.27 41.83 165.871 41.83 165.871C41.8186 166.18 41.8686 166.487 41.977 166.776C42.0854 167.065 42.2501 167.33 42.4615 167.555C42.6729 167.78 42.9268 167.96 43.2086 168.086C43.4903 168.212 43.7943 168.281 44.1028 168.289C44.4114 168.296 44.7183 168.243 45.006 168.131C45.2936 168.019 45.5561 167.851 45.7784 167.637C46.0007 167.423 46.1782 167.167 46.3007 166.883C46.4233 166.6 46.4884 166.295 46.4923 165.987C46.4923 165.987 46.6578 159.257 46.4179 148.492C46.4144 148.11 46.3172 147.735 46.1348 147.4C45.9523 147.064 45.6903 146.778 45.3717 146.568C45.0338 133.464 44.0973 115.033 41.6549 95.4322C42.3225 95.0984 42.9191 94.598 43.3764 93.9418L60.6819 69.851V107.271H60.6835V161.596C60.6308 165.28 63.6024 168.294 67.2864 168.294C70.9704 168.294 73.942 165.28 73.8893 161.596V110.049C73.8893 109.562 74.0177 109.083 74.2615 108.66C74.5053 108.238 74.856 107.887 75.2782 107.644C75.7005 107.4 76.1795 107.271 76.667 107.271C77.1546 107.271 77.6336 107.4 78.0558 107.644C78.4781 107.887 78.8288 108.238 79.0726 108.66C79.3164 109.083 79.4447 109.562 79.4447 110.049V161.596C79.3921 165.28 82.3637 168.294 86.0477 168.294C89.7317 168.294 92.7033 165.28 92.6506 161.596V107.271V69.8505L109.956 93.9418C110.681 94.98 111.8 95.6757 113.051 95.8663V104.19C111.12 105.812 105.498 111.206 105.498 119.129C105.498 126.973 111.632 133.927 111.632 133.927C109.483 134.762 107.836 136.121 106.527 137.836C105.93 138.574 106.471 139.1 107.17 138.984C109.483 138.602 111.892 138.261 113.717 138.261C115.543 138.261 117.952 138.602 120.264 138.984C120.964 139.099 121.504 138.574 120.908 137.836C119.599 136.121 117.951 134.762 115.803 133.927C115.803 133.927 121.937 126.973 121.937 119.129C121.937 111.206 116.315 105.812 114.384 104.19V95.8777C117.859 95.3958 119.552 91.369 117.464 88.5488L91.7827 52.7974C90.8826 51.5064 89.3876 50.7621 87.815 50.822C87.6442 50.822 87.4739 50.845 87.3049 50.8713H66.007C65.799 50.84 65.589 50.8219 65.3785 50.8187C63.8541 50.8022 62.4219 51.5469 61.5501 52.7976L39.9105 82.9222C34.6752 48.8906 26.561 21.1468 26.561 21.1468C26.4832 20.8661 26.3156 20.6187 26.0838 20.4423C25.852 20.2659 25.5687 20.1703 25.2775 20.1702L25.2775 20.1699ZM76.6388 23.7997C70.1451 23.7997 64.8635 29.081 64.8635 35.5747C64.8652 42.109 70.1468 47.3501 76.6388 47.3501C83.1731 47.3501 88.4693 42.109 88.4693 35.5747C88.4693 29.081 83.1731 23.7997 76.6388 23.7997ZM112.104 108.583C112.943 108.583 113.62 109.261 113.62 110.099C113.62 110.937 112.943 111.615 112.104 111.615C111.266 111.615 110.589 110.937 110.589 110.099C110.589 109.261 111.266 108.583 112.104 108.583Z" fill="#F9F9F9"/>
</g>
<defs>
<filter id="filter0_d" x="0" y="0.169861" width="141.937" height="188.124" filterUnits="userSpaceOnUse" color-interpolation-filters="sRGB">
<feFlood flood-opacity="0" result="BackgroundImageFix"/>
<feColorMatrix in="SourceAlpha" type="matrix" values="0 0 0 0 0 0 0 0 0 0 0 0 0 0 0 0 0 0 127 0"/>
<feOffset/>
<feGaussianBlur stdDeviation="10"/>
<feColorMatrix type="matrix" values="0 0 0 0 0.694118 0 0 0 0 0.866667 0 0 0 0 0.964706 0 0 0 0.3 0"/>
<feBlend mode="normal" in2="BackgroundImageFix" result="effect1_dropShadow"/>
<feBlend mode="normal" in="SourceGraphic" in2="effect1_dropShadow" result="shape"/>
</filter>
</defs>
</svg>
