<svg width="252" height="252" viewBox="0 0 252 252" fill="none" xmlns="http://www.w3.org/2000/svg">
<g filter="url(#filter0_d)">
<path fill-rule="evenodd" clip-rule="evenodd" d="M125.954 231.908C184.471 231.908 231.908 184.471 231.908 125.954C231.908 67.4372 184.471 20 125.954 20C67.4372 20 20 67.4372 20 125.954C20 184.471 67.4372 231.908 125.954 231.908ZM182.868 77.6851C184.658 79.4753 184.742 81.9601 184.358 84.0501C182.391 81.2761 180.066 78.4155 177.358 75.6986C176.08 74.4213 174.727 73.2159 173.342 72.059C175.346 71.9218 177.541 72.4496 179.228 74.0519L182.868 77.6851ZM157.237 95.8152C155.571 94.0672 155.062 91.7746 155.257 89.7099C156.473 91.1813 157.741 92.619 159.095 93.9722C161.784 96.6554 164.617 98.9607 167.366 100.918C165.253 101.329 162.696 101.277 160.872 99.4505L157.237 95.8152ZM190.647 101.196C190.647 101.196 196.29 100.789 207 111.494C207 111.494 197.715 106.645 192.46 109.073C190.035 114.325 194.884 123.612 194.884 123.612C184.185 112.909 184.588 107.255 184.588 107.255C184.588 107.255 171.461 102.607 160.961 92.106C150.456 81.6075 143.586 65.8545 146.42 63.0299C149.246 60.201 164.997 67.0684 175.494 77.5669C185.996 88.0696 190.647 101.196 190.647 101.196ZM156.099 72.7388C157.203 73.8429 159.004 73.8408 160.108 72.7367C161.212 71.6305 161.212 69.836 160.108 68.7298C158.995 67.6236 157.203 67.6236 156.093 68.7298C154.993 69.8339 154.993 71.6305 156.099 72.7388ZM111.694 162.707C112.177 163.857 113.617 164.313 114.713 163.811C116.857 162.84 120.415 156.16 122.45 150.724C120.195 149.025 117.987 147.283 115.884 145.487C113.03 151.085 110.729 160.416 111.694 162.707ZM123.015 170.106C123.501 171.259 124.941 171.713 126.039 171.212C128.137 170.265 131.584 163.857 133.638 158.489C131.333 157.009 129.024 155.462 126.733 153.847C124.105 159.496 122.106 167.942 123.015 170.106ZM134.344 177.512C134.827 178.665 136.265 179.114 137.362 178.618C139.522 177.639 143.115 170.866 145.142 165.407C142.858 164.123 140.485 162.734 138.055 161.252C135.427 166.904 133.429 175.35 134.344 177.512ZM163.81 114.713C164.311 113.615 163.855 112.178 162.706 111.694C160.416 110.73 151.091 113.029 145.492 115.881C147.289 117.988 149.045 120.183 150.743 122.444C156.174 120.405 162.841 116.854 163.81 114.713ZM158.49 133.639C163.855 131.585 170.26 128.138 171.208 126.037C171.708 124.939 171.256 123.504 170.108 123.018C167.944 122.104 159.497 124.103 153.846 126.73C155.459 129.022 157.01 131.336 158.49 133.639ZM165.413 145.143C170.87 143.114 177.638 139.523 178.615 137.359C179.114 136.261 178.662 134.828 177.513 134.344C175.354 133.43 166.907 135.427 161.256 138.051C162.738 140.483 164.125 142.86 165.413 145.143ZM101.132 128.957C93.5591 128.901 88.4614 123.13 83.8067 117.861C78.7553 112.143 74.2256 107.015 67.6203 110.423C70.4871 112.817 71.4435 116.784 71.2155 120.705C64.0462 120.217 59.8514 114.546 56.6278 108.498C52.8004 133.576 87.1205 139.003 107.319 137.203C106.923 136.764 102.508 131.323 101.132 128.957ZM120.704 71.2204C116.786 71.4442 112.819 70.4878 110.425 67.6231C107.016 74.2278 112.143 78.7572 117.86 83.8085C123.127 88.4624 128.896 93.5593 128.954 101.13C131.321 102.509 136.767 106.896 137.206 107.291C138.999 87.0853 133.56 52.8074 108.497 56.6327C114.544 59.8564 120.216 64.0511 120.704 71.2204ZM179.652 156.68C176.886 154.818 172.13 154.1 167.878 156.498C156.896 134.482 126.514 84.7145 105.614 105.612C84.7117 126.512 134.479 156.891 156.491 167.877C154.097 172.133 154.821 176.885 156.683 179.653C159.649 183.628 165.881 181.238 166.441 176.684C169.907 180.373 175.324 179.323 177.323 177.326C179.327 175.327 180.366 169.91 176.682 166.441C181.235 165.89 183.627 159.654 179.652 156.68ZM92.8078 108.175C94.9294 110.299 98.3705 110.295 100.492 108.175C102.582 106.081 102.611 102.709 100.58 100.581C102.708 102.612 106.078 102.585 108.174 100.495C110.294 98.3733 110.296 94.9322 108.177 92.8106C106.355 90.9887 103.56 90.7438 101.461 92.0506C93.5635 82.709 85.5013 64.8027 84.7497 55.1275C84.7159 54.9312 84.4162 54.9755 84.4119 55.1655C84.1502 68.6723 89.2126 84.3366 99.1221 95.1898C98.6221 96.979 99.034 98.9683 100.399 100.4C98.9677 99.0328 96.9783 98.6249 95.1891 99.1249C84.3338 89.2154 68.6695 84.1509 55.1648 84.4147C54.9769 84.4169 54.9305 84.7188 55.1268 84.7483C64.802 85.5083 82.7062 93.5642 92.0478 101.462C90.7389 103.558 90.9838 106.351 92.8078 108.175ZM96.7346 161.075C98.5248 162.865 98.6092 165.35 98.225 167.438C96.2554 164.664 93.9332 161.806 91.2246 159.089C89.9474 157.809 88.5942 156.606 87.2093 155.447C89.2127 155.31 91.4083 155.838 93.0951 157.442L96.7346 161.075ZM71.1038 179.205C69.4381 177.455 68.9293 175.165 69.1235 173.098C70.3395 174.571 71.6083 176.009 72.9615 177.362C75.6511 180.045 78.4841 182.349 81.2328 184.306C79.1196 184.719 76.563 184.667 74.7391 182.841L71.1038 179.205ZM104.514 184.586C104.514 184.586 110.157 184.179 120.867 194.884C120.867 194.884 111.58 190.035 106.325 192.461C103.9 197.715 108.749 207 108.749 207C98.0498 196.301 98.4551 190.645 98.4551 190.645C98.4551 190.645 85.3283 185.997 74.8277 175.494C64.3229 164.998 57.4534 149.245 60.2865 146.418C63.1133 143.589 78.8641 150.458 89.3605 160.957C99.8632 171.458 104.514 184.586 104.514 184.586ZM69.9659 156.127C71.07 157.231 72.8707 157.231 73.9748 156.127C75.0768 155.021 75.0768 153.224 73.9748 152.12C72.8623 151.012 71.07 151.012 69.9595 152.12C68.8597 153.224 68.8597 155.021 69.9659 156.127Z" fill="#F9F9F9"/>
</g>
<defs>
<filter id="filter0_d" x="0" y="0" width="251.908" height="251.908" filterUnits="userSpaceOnUse" color-interpolation-filters="sRGB">
<feFlood flood-opacity="0" result="BackgroundImageFix"/>
<feColorMatrix in="SourceAlpha" type="matrix" values="0 0 0 0 0 0 0 0 0 0 0 0 0 0 0 0 0 0 127 0"/>
<feOffset/>
<feGaussianBlur stdDeviation="10"/>
<feColorMatrix type="matrix" values="0 0 0 0 0.694118 0 0 0 0 0.866667 0 0 0 0 0.964706 0 0 0 0.3 0"/>
<feBlend mode="normal" in2="BackgroundImageFix" result="effect1_dropShadow"/>
<feBlend mode="normal" in="SourceGraphic" in2="effect1_dropShadow" result="shape"/>
</filter>
</defs>
</svg>
