<svg width="17" height="13" viewBox="0 0 17 13" fill="none" xmlns="http://www.w3.org/2000/svg">
<path d="M15.0994 3.3C15.0994 3.4 15.0994 3.6 15.0994 3.7C15.0994 8 11.6149 13 5.2795 13C3.27329 13 1.47826 12.5 0 11.5C0.31677 11.5 0.52795 11.5 0.84472 11.5C2.42857 11.5 4.01242 11 5.17391 10.1C3.69565 10.1 2.42857 9.1 1.90062 7.8C2.1118 7.8 2.32298 7.9 2.53416 7.9C2.85093 7.9 3.1677 7.9 3.48447 7.8C1.90062 7.5 0.73913 6.2 0.73913 4.6C1.16149 4.8 1.68944 5 2.32298 5C1.37267 4.4 0.73913 3.4 0.73913 2.3C0.73913 1.7 0.950311 1.1 1.16149 0.6C2.85093 2.6 5.38509 3.9 8.34161 4C8.23602 3.8 8.23602 3.5 8.23602 3.3C8.23602 1.5 9.81988 0 11.7205 0C12.6708 0 13.6211 0.4 14.2547 1C14.9938 0.9 15.8385 0.6 16.472 0.2C16.2609 1 15.6273 1.6 14.9938 2C15.7329 1.9 16.3665 1.7 17 1.5C16.3665 2.3 15.7329 2.9 15.0994 3.3Z" fill="white"/>
</svg>
